G04 EAGLE Gerber RS-274X export*
G75*
%MOMM*%
%FSLAX34Y34*%
%LPD*%
%IN*%
%IPPOS*%
%AMOC8*
5,1,8,0,0,1.08239X$1,22.5*%
G01*
%ADD10C,0.101600*%
%ADD11C,0.381000*%
%ADD12C,0.279400*%
%ADD13C,0.254000*%


D10*
X203200Y0D02*
X0Y0D01*
X0Y127000D02*
X203200Y127000D01*
X0Y127000D02*
X0Y0D01*
X203200Y0D02*
X203200Y127000D01*
X208280Y0D02*
X411480Y0D01*
X411480Y127000D02*
X208280Y127000D01*
X208280Y0D01*
X411480Y0D02*
X411480Y127000D01*
X416560Y0D02*
X619760Y0D01*
X619760Y127000D02*
X416560Y127000D01*
X416560Y0D01*
X619760Y0D02*
X619760Y127000D01*
X624840Y0D02*
X828040Y0D01*
X828040Y127000D02*
X624840Y127000D01*
X624840Y0D01*
X828040Y0D02*
X828040Y127000D01*
X833120Y0D02*
X1036320Y0D01*
X1036320Y127000D02*
X833120Y127000D01*
X833120Y0D01*
X1036320Y0D02*
X1036320Y127000D01*
X203200Y132080D02*
X0Y132080D01*
X0Y259080D02*
X203200Y259080D01*
X0Y259080D02*
X0Y132080D01*
X203200Y132080D02*
X203200Y259080D01*
X208280Y132080D02*
X411480Y132080D01*
X411480Y259080D02*
X208280Y259080D01*
X208280Y132080D01*
X411480Y132080D02*
X411480Y259080D01*
X416560Y132080D02*
X619760Y132080D01*
X619760Y259080D02*
X416560Y259080D01*
X416560Y132080D01*
X619760Y132080D02*
X619760Y259080D01*
X624840Y132080D02*
X828040Y132080D01*
X828040Y259080D02*
X624840Y259080D01*
X624840Y132080D01*
X828040Y132080D02*
X828040Y259080D01*
X833120Y132080D02*
X1036320Y132080D01*
X1036320Y259080D02*
X833120Y259080D01*
X833120Y132080D01*
X1036320Y132080D02*
X1036320Y259080D01*
X203200Y264160D02*
X0Y264160D01*
X0Y391160D02*
X203200Y391160D01*
X0Y391160D02*
X0Y264160D01*
X203200Y264160D02*
X203200Y391160D01*
X208280Y264160D02*
X411480Y264160D01*
X411480Y391160D02*
X208280Y391160D01*
X208280Y264160D01*
X411480Y264160D02*
X411480Y391160D01*
X416560Y264160D02*
X619760Y264160D01*
X619760Y391160D02*
X416560Y391160D01*
X416560Y264160D01*
X619760Y264160D02*
X619760Y391160D01*
X624840Y264160D02*
X828040Y264160D01*
X828040Y391160D02*
X624840Y391160D01*
X624840Y264160D01*
X828040Y264160D02*
X828040Y391160D01*
X833120Y264160D02*
X1036320Y264160D01*
X1036320Y391160D02*
X833120Y391160D01*
X833120Y264160D01*
X1036320Y264160D02*
X1036320Y391160D01*
X203200Y396240D02*
X0Y396240D01*
X0Y523240D02*
X203200Y523240D01*
X0Y523240D02*
X0Y396240D01*
X203200Y396240D02*
X203200Y523240D01*
X208280Y396240D02*
X411480Y396240D01*
X411480Y523240D02*
X208280Y523240D01*
X208280Y396240D01*
X411480Y396240D02*
X411480Y523240D01*
X416560Y396240D02*
X619760Y396240D01*
X619760Y523240D02*
X416560Y523240D01*
X416560Y396240D01*
X619760Y396240D02*
X619760Y523240D01*
X624840Y396240D02*
X828040Y396240D01*
X828040Y523240D02*
X624840Y523240D01*
X624840Y396240D01*
X828040Y396240D02*
X828040Y523240D01*
X833120Y396240D02*
X1036320Y396240D01*
X1036320Y523240D02*
X833120Y523240D01*
X833120Y396240D01*
X1036320Y396240D02*
X1036320Y523240D01*
X203200Y528320D02*
X0Y528320D01*
X0Y655320D02*
X203200Y655320D01*
X0Y655320D02*
X0Y528320D01*
X203200Y528320D02*
X203200Y655320D01*
X208280Y528320D02*
X411480Y528320D01*
X411480Y655320D02*
X208280Y655320D01*
X208280Y528320D01*
X411480Y528320D02*
X411480Y655320D01*
X416560Y528320D02*
X619760Y528320D01*
X619760Y655320D02*
X416560Y655320D01*
X416560Y528320D01*
X619760Y528320D02*
X619760Y655320D01*
X624840Y528320D02*
X828040Y528320D01*
X828040Y655320D02*
X624840Y655320D01*
X624840Y528320D01*
X828040Y528320D02*
X828040Y655320D01*
X833120Y528320D02*
X1036320Y528320D01*
X1036320Y655320D02*
X833120Y655320D01*
X833120Y528320D01*
X1036320Y528320D02*
X1036320Y655320D01*
X203200Y660400D02*
X0Y660400D01*
X0Y787400D02*
X203200Y787400D01*
X0Y787400D02*
X0Y660400D01*
X203200Y660400D02*
X203200Y787400D01*
X208280Y660400D02*
X411480Y660400D01*
X411480Y787400D02*
X208280Y787400D01*
X208280Y660400D01*
X411480Y660400D02*
X411480Y787400D01*
X416560Y660400D02*
X619760Y660400D01*
X619760Y787400D02*
X416560Y787400D01*
X416560Y660400D01*
X619760Y660400D02*
X619760Y787400D01*
X624840Y660400D02*
X828040Y660400D01*
X828040Y787400D02*
X624840Y787400D01*
X624840Y660400D01*
X828040Y660400D02*
X828040Y787400D01*
X833120Y660400D02*
X1036320Y660400D01*
X1036320Y787400D02*
X833120Y787400D01*
X833120Y660400D01*
X1036320Y660400D02*
X1036320Y787400D01*
X203200Y792480D02*
X0Y792480D01*
X0Y919480D02*
X203200Y919480D01*
X0Y919480D02*
X0Y792480D01*
X203200Y792480D02*
X203200Y919480D01*
X208280Y792480D02*
X411480Y792480D01*
X411480Y919480D02*
X208280Y919480D01*
X208280Y792480D01*
X411480Y792480D02*
X411480Y919480D01*
X416560Y792480D02*
X619760Y792480D01*
X619760Y919480D02*
X416560Y919480D01*
X416560Y792480D01*
X619760Y792480D02*
X619760Y919480D01*
X624840Y792480D02*
X828040Y792480D01*
X828040Y919480D02*
X624840Y919480D01*
X624840Y792480D01*
X828040Y792480D02*
X828040Y919480D01*
X833120Y792480D02*
X1036320Y792480D01*
X1036320Y919480D02*
X833120Y919480D01*
X833120Y792480D01*
X1036320Y792480D02*
X1036320Y919480D01*
X203200Y924560D02*
X0Y924560D01*
X0Y1051560D02*
X203200Y1051560D01*
X0Y1051560D02*
X0Y924560D01*
X203200Y924560D02*
X203200Y1051560D01*
X208280Y924560D02*
X411480Y924560D01*
X411480Y1051560D02*
X208280Y1051560D01*
X208280Y924560D01*
X411480Y924560D02*
X411480Y1051560D01*
X416560Y924560D02*
X619760Y924560D01*
X619760Y1051560D02*
X416560Y1051560D01*
X416560Y924560D01*
X619760Y924560D02*
X619760Y1051560D01*
X624840Y924560D02*
X828040Y924560D01*
X828040Y1051560D02*
X624840Y1051560D01*
X624840Y924560D01*
X828040Y924560D02*
X828040Y1051560D01*
X833120Y924560D02*
X1036320Y924560D01*
X1036320Y1051560D02*
X833120Y1051560D01*
X833120Y924560D01*
X1036320Y924560D02*
X1036320Y1051560D01*
D11*
X-2540Y1183640D02*
X-2540Y-68580D01*
D12*
X-42921Y1199007D02*
X-46251Y1208998D01*
X-39590Y1208998D02*
X-42921Y1199007D01*
X-32806Y1204835D02*
X-22815Y1204835D01*
X-14261Y1204835D02*
X-10098Y1203170D01*
X-14261Y1204834D02*
X-14346Y1204870D01*
X-14429Y1204910D01*
X-14510Y1204953D01*
X-14590Y1205000D01*
X-14667Y1205050D01*
X-14743Y1205103D01*
X-14816Y1205159D01*
X-14886Y1205219D01*
X-14954Y1205281D01*
X-15019Y1205346D01*
X-15081Y1205414D01*
X-15141Y1205485D01*
X-15197Y1205558D01*
X-15250Y1205633D01*
X-15300Y1205711D01*
X-15346Y1205790D01*
X-15389Y1205872D01*
X-15429Y1205955D01*
X-15465Y1206040D01*
X-15497Y1206126D01*
X-15526Y1206214D01*
X-15550Y1206303D01*
X-15571Y1206393D01*
X-15588Y1206483D01*
X-15602Y1206574D01*
X-15611Y1206666D01*
X-15616Y1206758D01*
X-15618Y1206850D01*
X-15616Y1206942D01*
X-15609Y1207034D01*
X-15599Y1207126D01*
X-15585Y1207217D01*
X-15567Y1207308D01*
X-15545Y1207397D01*
X-15519Y1207486D01*
X-15489Y1207573D01*
X-15456Y1207659D01*
X-15419Y1207743D01*
X-15379Y1207826D01*
X-15335Y1207907D01*
X-15288Y1207986D01*
X-15237Y1208063D01*
X-15183Y1208138D01*
X-15126Y1208211D01*
X-15066Y1208281D01*
X-15003Y1208348D01*
X-14937Y1208412D01*
X-14869Y1208474D01*
X-14798Y1208533D01*
X-14724Y1208588D01*
X-14648Y1208641D01*
X-14570Y1208690D01*
X-14490Y1208736D01*
X-14409Y1208778D01*
X-14325Y1208817D01*
X-14240Y1208852D01*
X-14153Y1208883D01*
X-14065Y1208911D01*
X-13976Y1208935D01*
X-13886Y1208955D01*
X-13796Y1208972D01*
X-13704Y1208984D01*
X-13612Y1208993D01*
X-13520Y1208997D01*
X-13428Y1208998D01*
X-13201Y1208992D01*
X-12974Y1208981D01*
X-12747Y1208964D01*
X-12521Y1208941D01*
X-12295Y1208914D01*
X-12070Y1208880D01*
X-11846Y1208842D01*
X-11623Y1208798D01*
X-11401Y1208749D01*
X-11180Y1208694D01*
X-10961Y1208634D01*
X-10743Y1208569D01*
X-10527Y1208498D01*
X-10313Y1208423D01*
X-10100Y1208342D01*
X-9890Y1208256D01*
X-9681Y1208165D01*
X-10098Y1203170D02*
X-10013Y1203134D01*
X-9930Y1203094D01*
X-9849Y1203051D01*
X-9769Y1203004D01*
X-9692Y1202954D01*
X-9616Y1202901D01*
X-9543Y1202845D01*
X-9473Y1202785D01*
X-9405Y1202723D01*
X-9340Y1202658D01*
X-9278Y1202590D01*
X-9218Y1202519D01*
X-9162Y1202446D01*
X-9109Y1202371D01*
X-9059Y1202293D01*
X-9013Y1202214D01*
X-8970Y1202132D01*
X-8930Y1202049D01*
X-8894Y1201964D01*
X-8862Y1201878D01*
X-8833Y1201790D01*
X-8809Y1201701D01*
X-8788Y1201611D01*
X-8771Y1201521D01*
X-8757Y1201430D01*
X-8748Y1201338D01*
X-8743Y1201246D01*
X-8741Y1201154D01*
X-8743Y1201062D01*
X-8750Y1200970D01*
X-8760Y1200878D01*
X-8774Y1200787D01*
X-8792Y1200696D01*
X-8814Y1200607D01*
X-8840Y1200518D01*
X-8870Y1200431D01*
X-8903Y1200345D01*
X-8940Y1200261D01*
X-8980Y1200178D01*
X-9024Y1200097D01*
X-9071Y1200018D01*
X-9122Y1199941D01*
X-9176Y1199866D01*
X-9233Y1199793D01*
X-9293Y1199723D01*
X-9356Y1199656D01*
X-9422Y1199592D01*
X-9490Y1199530D01*
X-9561Y1199471D01*
X-9635Y1199416D01*
X-9711Y1199363D01*
X-9789Y1199314D01*
X-9869Y1199268D01*
X-9950Y1199226D01*
X-10034Y1199187D01*
X-10119Y1199152D01*
X-10206Y1199121D01*
X-10294Y1199093D01*
X-10383Y1199069D01*
X-10473Y1199049D01*
X-10563Y1199032D01*
X-10655Y1199020D01*
X-10747Y1199011D01*
X-10839Y1199007D01*
X-10931Y1199006D01*
X-10931Y1199007D02*
X-11265Y1199016D01*
X-11598Y1199033D01*
X-11931Y1199057D01*
X-12264Y1199090D01*
X-12595Y1199130D01*
X-12926Y1199178D01*
X-13255Y1199234D01*
X-13583Y1199297D01*
X-13909Y1199369D01*
X-14233Y1199448D01*
X-14556Y1199534D01*
X-14876Y1199629D01*
X-15194Y1199731D01*
X-15510Y1199840D01*
X562Y1199007D02*
X3892Y1199007D01*
X562Y1199007D02*
X464Y1199009D01*
X366Y1199015D01*
X268Y1199024D01*
X171Y1199038D01*
X75Y1199055D01*
X-21Y1199076D01*
X-116Y1199101D01*
X-210Y1199129D01*
X-303Y1199161D01*
X-394Y1199197D01*
X-484Y1199236D01*
X-572Y1199279D01*
X-659Y1199326D01*
X-743Y1199375D01*
X-826Y1199428D01*
X-906Y1199484D01*
X-985Y1199543D01*
X-1060Y1199606D01*
X-1134Y1199671D01*
X-1204Y1199739D01*
X-1272Y1199809D01*
X-1338Y1199883D01*
X-1400Y1199959D01*
X-1459Y1200037D01*
X-1515Y1200117D01*
X-1568Y1200200D01*
X-1618Y1200284D01*
X-1664Y1200371D01*
X-1707Y1200459D01*
X-1746Y1200549D01*
X-1782Y1200640D01*
X-1814Y1200733D01*
X-1842Y1200827D01*
X-1867Y1200922D01*
X-1888Y1201018D01*
X-1905Y1201114D01*
X-1919Y1201211D01*
X-1928Y1201309D01*
X-1934Y1201407D01*
X-1936Y1201505D01*
X-1936Y1206500D01*
X-1934Y1206598D01*
X-1928Y1206696D01*
X-1919Y1206794D01*
X-1905Y1206891D01*
X-1888Y1206987D01*
X-1867Y1207083D01*
X-1842Y1207178D01*
X-1814Y1207272D01*
X-1782Y1207365D01*
X-1746Y1207456D01*
X-1707Y1207546D01*
X-1664Y1207634D01*
X-1617Y1207721D01*
X-1568Y1207805D01*
X-1515Y1207888D01*
X-1459Y1207968D01*
X-1400Y1208046D01*
X-1337Y1208122D01*
X-1272Y1208196D01*
X-1204Y1208266D01*
X-1134Y1208334D01*
X-1060Y1208399D01*
X-984Y1208462D01*
X-906Y1208521D01*
X-826Y1208577D01*
X-743Y1208630D01*
X-659Y1208679D01*
X-572Y1208726D01*
X-484Y1208769D01*
X-394Y1208808D01*
X-303Y1208844D01*
X-210Y1208876D01*
X-116Y1208904D01*
X-21Y1208929D01*
X75Y1208950D01*
X171Y1208967D01*
X268Y1208981D01*
X366Y1208990D01*
X464Y1208996D01*
X562Y1208998D01*
X3892Y1208998D01*
X10022Y1205667D02*
X10022Y1202337D01*
X10022Y1205667D02*
X10024Y1205781D01*
X10030Y1205894D01*
X10039Y1206008D01*
X10053Y1206120D01*
X10070Y1206233D01*
X10092Y1206345D01*
X10117Y1206455D01*
X10145Y1206565D01*
X10178Y1206674D01*
X10214Y1206782D01*
X10254Y1206889D01*
X10298Y1206994D01*
X10345Y1207097D01*
X10395Y1207199D01*
X10449Y1207299D01*
X10507Y1207397D01*
X10568Y1207493D01*
X10631Y1207587D01*
X10699Y1207679D01*
X10769Y1207769D01*
X10842Y1207855D01*
X10918Y1207940D01*
X10997Y1208022D01*
X11079Y1208101D01*
X11164Y1208177D01*
X11250Y1208250D01*
X11340Y1208320D01*
X11432Y1208388D01*
X11526Y1208451D01*
X11622Y1208512D01*
X11720Y1208570D01*
X11820Y1208624D01*
X11922Y1208674D01*
X12025Y1208721D01*
X12130Y1208765D01*
X12237Y1208805D01*
X12345Y1208841D01*
X12454Y1208874D01*
X12564Y1208902D01*
X12674Y1208927D01*
X12786Y1208949D01*
X12899Y1208966D01*
X13011Y1208980D01*
X13125Y1208989D01*
X13238Y1208995D01*
X13352Y1208997D01*
X13466Y1208995D01*
X13579Y1208989D01*
X13693Y1208980D01*
X13805Y1208966D01*
X13918Y1208949D01*
X14030Y1208927D01*
X14140Y1208902D01*
X14250Y1208874D01*
X14359Y1208841D01*
X14467Y1208805D01*
X14574Y1208765D01*
X14679Y1208721D01*
X14782Y1208674D01*
X14884Y1208624D01*
X14984Y1208570D01*
X15082Y1208512D01*
X15178Y1208451D01*
X15272Y1208388D01*
X15364Y1208320D01*
X15454Y1208250D01*
X15540Y1208177D01*
X15625Y1208101D01*
X15707Y1208022D01*
X15786Y1207940D01*
X15862Y1207855D01*
X15935Y1207769D01*
X16005Y1207679D01*
X16073Y1207587D01*
X16136Y1207493D01*
X16197Y1207397D01*
X16255Y1207299D01*
X16309Y1207199D01*
X16359Y1207097D01*
X16406Y1206994D01*
X16450Y1206889D01*
X16490Y1206782D01*
X16526Y1206674D01*
X16559Y1206565D01*
X16587Y1206455D01*
X16612Y1206345D01*
X16634Y1206233D01*
X16651Y1206120D01*
X16665Y1206008D01*
X16674Y1205894D01*
X16680Y1205781D01*
X16682Y1205667D01*
X16682Y1202337D01*
X16680Y1202223D01*
X16674Y1202110D01*
X16665Y1201996D01*
X16651Y1201884D01*
X16634Y1201771D01*
X16612Y1201659D01*
X16587Y1201549D01*
X16559Y1201439D01*
X16526Y1201330D01*
X16490Y1201222D01*
X16450Y1201115D01*
X16406Y1201010D01*
X16359Y1200907D01*
X16309Y1200805D01*
X16255Y1200705D01*
X16197Y1200607D01*
X16136Y1200511D01*
X16073Y1200417D01*
X16005Y1200325D01*
X15935Y1200235D01*
X15862Y1200149D01*
X15786Y1200064D01*
X15707Y1199982D01*
X15625Y1199903D01*
X15540Y1199827D01*
X15454Y1199754D01*
X15364Y1199684D01*
X15272Y1199616D01*
X15178Y1199553D01*
X15082Y1199492D01*
X14984Y1199434D01*
X14884Y1199380D01*
X14782Y1199330D01*
X14679Y1199283D01*
X14574Y1199239D01*
X14467Y1199199D01*
X14359Y1199163D01*
X14250Y1199130D01*
X14140Y1199102D01*
X14030Y1199077D01*
X13918Y1199055D01*
X13805Y1199038D01*
X13693Y1199024D01*
X13579Y1199015D01*
X13466Y1199009D01*
X13352Y1199007D01*
X13238Y1199009D01*
X13125Y1199015D01*
X13011Y1199024D01*
X12899Y1199038D01*
X12786Y1199055D01*
X12674Y1199077D01*
X12564Y1199102D01*
X12454Y1199130D01*
X12345Y1199163D01*
X12237Y1199199D01*
X12130Y1199239D01*
X12025Y1199283D01*
X11922Y1199330D01*
X11820Y1199380D01*
X11720Y1199434D01*
X11622Y1199492D01*
X11526Y1199553D01*
X11432Y1199616D01*
X11340Y1199684D01*
X11250Y1199754D01*
X11164Y1199827D01*
X11079Y1199903D01*
X10997Y1199982D01*
X10918Y1200064D01*
X10842Y1200149D01*
X10769Y1200235D01*
X10699Y1200325D01*
X10631Y1200417D01*
X10568Y1200511D01*
X10507Y1200607D01*
X10449Y1200705D01*
X10395Y1200805D01*
X10345Y1200907D01*
X10298Y1201010D01*
X10254Y1201115D01*
X10214Y1201222D01*
X10178Y1201330D01*
X10145Y1201439D01*
X10117Y1201549D01*
X10092Y1201659D01*
X10070Y1201771D01*
X10053Y1201884D01*
X10039Y1201996D01*
X10030Y1202110D01*
X10024Y1202223D01*
X10022Y1202337D01*
X24218Y1199007D02*
X24218Y1208998D01*
X29213Y1208998D01*
X29213Y1207333D01*
X37008Y1199007D02*
X41171Y1199007D01*
X37008Y1199007D02*
X36910Y1199009D01*
X36812Y1199015D01*
X36714Y1199024D01*
X36617Y1199038D01*
X36521Y1199055D01*
X36425Y1199076D01*
X36330Y1199101D01*
X36236Y1199129D01*
X36143Y1199161D01*
X36052Y1199197D01*
X35962Y1199236D01*
X35874Y1199279D01*
X35787Y1199326D01*
X35703Y1199375D01*
X35620Y1199428D01*
X35540Y1199484D01*
X35462Y1199543D01*
X35386Y1199606D01*
X35312Y1199671D01*
X35242Y1199739D01*
X35174Y1199809D01*
X35109Y1199883D01*
X35046Y1199959D01*
X34987Y1200037D01*
X34931Y1200117D01*
X34878Y1200200D01*
X34829Y1200284D01*
X34782Y1200371D01*
X34739Y1200459D01*
X34700Y1200549D01*
X34664Y1200640D01*
X34632Y1200733D01*
X34604Y1200827D01*
X34579Y1200922D01*
X34558Y1201018D01*
X34541Y1201114D01*
X34527Y1201211D01*
X34518Y1201309D01*
X34512Y1201407D01*
X34510Y1201505D01*
X34510Y1205667D01*
X34511Y1205667D02*
X34513Y1205781D01*
X34519Y1205894D01*
X34528Y1206008D01*
X34542Y1206120D01*
X34559Y1206233D01*
X34581Y1206345D01*
X34606Y1206455D01*
X34634Y1206565D01*
X34667Y1206674D01*
X34703Y1206782D01*
X34743Y1206889D01*
X34787Y1206994D01*
X34834Y1207097D01*
X34884Y1207199D01*
X34938Y1207299D01*
X34996Y1207397D01*
X35057Y1207493D01*
X35120Y1207587D01*
X35188Y1207679D01*
X35258Y1207769D01*
X35331Y1207855D01*
X35407Y1207940D01*
X35486Y1208022D01*
X35568Y1208101D01*
X35653Y1208177D01*
X35739Y1208250D01*
X35829Y1208320D01*
X35921Y1208388D01*
X36015Y1208451D01*
X36111Y1208512D01*
X36209Y1208570D01*
X36309Y1208624D01*
X36411Y1208674D01*
X36514Y1208721D01*
X36619Y1208765D01*
X36726Y1208805D01*
X36834Y1208841D01*
X36943Y1208874D01*
X37053Y1208902D01*
X37163Y1208927D01*
X37275Y1208949D01*
X37388Y1208966D01*
X37500Y1208980D01*
X37614Y1208989D01*
X37727Y1208995D01*
X37841Y1208997D01*
X37955Y1208995D01*
X38068Y1208989D01*
X38182Y1208980D01*
X38294Y1208966D01*
X38407Y1208949D01*
X38519Y1208927D01*
X38629Y1208902D01*
X38739Y1208874D01*
X38848Y1208841D01*
X38956Y1208805D01*
X39063Y1208765D01*
X39168Y1208721D01*
X39271Y1208674D01*
X39373Y1208624D01*
X39473Y1208570D01*
X39571Y1208512D01*
X39667Y1208451D01*
X39761Y1208388D01*
X39853Y1208320D01*
X39943Y1208250D01*
X40029Y1208177D01*
X40114Y1208101D01*
X40196Y1208022D01*
X40275Y1207940D01*
X40351Y1207855D01*
X40424Y1207769D01*
X40494Y1207679D01*
X40562Y1207587D01*
X40625Y1207493D01*
X40686Y1207397D01*
X40744Y1207299D01*
X40798Y1207199D01*
X40848Y1207097D01*
X40895Y1206994D01*
X40939Y1206889D01*
X40979Y1206782D01*
X41015Y1206674D01*
X41048Y1206565D01*
X41076Y1206455D01*
X41101Y1206345D01*
X41123Y1206233D01*
X41140Y1206120D01*
X41154Y1206008D01*
X41163Y1205894D01*
X41169Y1205781D01*
X41171Y1205667D01*
X41171Y1204002D01*
X34510Y1204002D01*
D11*
X205740Y1183640D02*
X205740Y-68580D01*
D12*
X165359Y1199007D02*
X162029Y1208998D01*
X168690Y1208998D02*
X165359Y1199007D01*
X175474Y1204835D02*
X185465Y1204835D01*
X194019Y1204835D02*
X198182Y1203170D01*
X194019Y1204834D02*
X193934Y1204870D01*
X193851Y1204910D01*
X193770Y1204953D01*
X193690Y1205000D01*
X193613Y1205050D01*
X193537Y1205103D01*
X193464Y1205159D01*
X193394Y1205219D01*
X193326Y1205281D01*
X193261Y1205346D01*
X193199Y1205414D01*
X193139Y1205485D01*
X193083Y1205558D01*
X193030Y1205633D01*
X192980Y1205711D01*
X192934Y1205790D01*
X192891Y1205872D01*
X192851Y1205955D01*
X192815Y1206040D01*
X192783Y1206126D01*
X192754Y1206214D01*
X192730Y1206303D01*
X192709Y1206393D01*
X192692Y1206483D01*
X192678Y1206574D01*
X192669Y1206666D01*
X192664Y1206758D01*
X192662Y1206850D01*
X192664Y1206942D01*
X192671Y1207034D01*
X192681Y1207126D01*
X192695Y1207217D01*
X192713Y1207308D01*
X192735Y1207397D01*
X192761Y1207486D01*
X192791Y1207573D01*
X192824Y1207659D01*
X192861Y1207743D01*
X192901Y1207826D01*
X192945Y1207907D01*
X192992Y1207986D01*
X193043Y1208063D01*
X193097Y1208138D01*
X193154Y1208211D01*
X193214Y1208281D01*
X193277Y1208348D01*
X193343Y1208412D01*
X193411Y1208474D01*
X193482Y1208533D01*
X193556Y1208588D01*
X193632Y1208641D01*
X193710Y1208690D01*
X193790Y1208736D01*
X193871Y1208778D01*
X193955Y1208817D01*
X194040Y1208852D01*
X194127Y1208883D01*
X194215Y1208911D01*
X194304Y1208935D01*
X194394Y1208955D01*
X194484Y1208972D01*
X194576Y1208984D01*
X194668Y1208993D01*
X194760Y1208997D01*
X194852Y1208998D01*
X195079Y1208992D01*
X195306Y1208981D01*
X195533Y1208964D01*
X195759Y1208941D01*
X195985Y1208914D01*
X196210Y1208880D01*
X196434Y1208842D01*
X196657Y1208798D01*
X196879Y1208749D01*
X197100Y1208694D01*
X197319Y1208634D01*
X197537Y1208569D01*
X197753Y1208498D01*
X197967Y1208423D01*
X198180Y1208342D01*
X198390Y1208256D01*
X198599Y1208165D01*
X198182Y1203170D02*
X198267Y1203134D01*
X198350Y1203094D01*
X198431Y1203051D01*
X198511Y1203004D01*
X198588Y1202954D01*
X198664Y1202901D01*
X198737Y1202845D01*
X198807Y1202785D01*
X198875Y1202723D01*
X198940Y1202658D01*
X199002Y1202590D01*
X199062Y1202519D01*
X199118Y1202446D01*
X199171Y1202371D01*
X199221Y1202293D01*
X199267Y1202214D01*
X199310Y1202132D01*
X199350Y1202049D01*
X199386Y1201964D01*
X199418Y1201878D01*
X199447Y1201790D01*
X199471Y1201701D01*
X199492Y1201611D01*
X199509Y1201521D01*
X199523Y1201430D01*
X199532Y1201338D01*
X199537Y1201246D01*
X199539Y1201154D01*
X199537Y1201062D01*
X199530Y1200970D01*
X199520Y1200878D01*
X199506Y1200787D01*
X199488Y1200696D01*
X199466Y1200607D01*
X199440Y1200518D01*
X199410Y1200431D01*
X199377Y1200345D01*
X199340Y1200261D01*
X199300Y1200178D01*
X199256Y1200097D01*
X199209Y1200018D01*
X199158Y1199941D01*
X199104Y1199866D01*
X199047Y1199793D01*
X198987Y1199723D01*
X198924Y1199656D01*
X198858Y1199592D01*
X198790Y1199530D01*
X198719Y1199471D01*
X198645Y1199416D01*
X198569Y1199363D01*
X198491Y1199314D01*
X198411Y1199268D01*
X198330Y1199226D01*
X198246Y1199187D01*
X198161Y1199152D01*
X198074Y1199121D01*
X197986Y1199093D01*
X197897Y1199069D01*
X197807Y1199049D01*
X197717Y1199032D01*
X197625Y1199020D01*
X197533Y1199011D01*
X197441Y1199007D01*
X197349Y1199006D01*
X197349Y1199007D02*
X197015Y1199016D01*
X196682Y1199033D01*
X196349Y1199057D01*
X196016Y1199090D01*
X195685Y1199130D01*
X195354Y1199178D01*
X195025Y1199234D01*
X194697Y1199297D01*
X194371Y1199369D01*
X194047Y1199448D01*
X193724Y1199534D01*
X193404Y1199629D01*
X193086Y1199731D01*
X192770Y1199840D01*
X208842Y1199007D02*
X212172Y1199007D01*
X208842Y1199007D02*
X208744Y1199009D01*
X208646Y1199015D01*
X208548Y1199024D01*
X208451Y1199038D01*
X208355Y1199055D01*
X208259Y1199076D01*
X208164Y1199101D01*
X208070Y1199129D01*
X207977Y1199161D01*
X207886Y1199197D01*
X207796Y1199236D01*
X207708Y1199279D01*
X207621Y1199326D01*
X207537Y1199375D01*
X207454Y1199428D01*
X207374Y1199484D01*
X207296Y1199543D01*
X207220Y1199606D01*
X207146Y1199671D01*
X207076Y1199739D01*
X207008Y1199809D01*
X206943Y1199883D01*
X206880Y1199959D01*
X206821Y1200037D01*
X206765Y1200117D01*
X206712Y1200200D01*
X206663Y1200284D01*
X206616Y1200371D01*
X206573Y1200459D01*
X206534Y1200549D01*
X206498Y1200640D01*
X206466Y1200733D01*
X206438Y1200827D01*
X206413Y1200922D01*
X206392Y1201018D01*
X206375Y1201114D01*
X206361Y1201211D01*
X206352Y1201309D01*
X206346Y1201407D01*
X206344Y1201505D01*
X206344Y1206500D01*
X206346Y1206598D01*
X206352Y1206696D01*
X206361Y1206794D01*
X206375Y1206891D01*
X206392Y1206987D01*
X206413Y1207083D01*
X206438Y1207178D01*
X206466Y1207272D01*
X206498Y1207365D01*
X206534Y1207456D01*
X206573Y1207546D01*
X206616Y1207634D01*
X206663Y1207721D01*
X206712Y1207805D01*
X206765Y1207888D01*
X206821Y1207968D01*
X206880Y1208047D01*
X206943Y1208122D01*
X207008Y1208196D01*
X207076Y1208266D01*
X207146Y1208334D01*
X207220Y1208400D01*
X207296Y1208462D01*
X207374Y1208521D01*
X207454Y1208577D01*
X207537Y1208630D01*
X207621Y1208680D01*
X207708Y1208726D01*
X207796Y1208769D01*
X207886Y1208808D01*
X207977Y1208844D01*
X208070Y1208876D01*
X208164Y1208904D01*
X208259Y1208929D01*
X208355Y1208950D01*
X208451Y1208967D01*
X208548Y1208981D01*
X208646Y1208990D01*
X208744Y1208996D01*
X208842Y1208998D01*
X212172Y1208998D01*
X218302Y1205667D02*
X218302Y1202337D01*
X218302Y1205667D02*
X218304Y1205781D01*
X218310Y1205894D01*
X218319Y1206008D01*
X218333Y1206120D01*
X218350Y1206233D01*
X218372Y1206345D01*
X218397Y1206455D01*
X218425Y1206565D01*
X218458Y1206674D01*
X218494Y1206782D01*
X218534Y1206889D01*
X218578Y1206994D01*
X218625Y1207097D01*
X218675Y1207199D01*
X218729Y1207299D01*
X218787Y1207397D01*
X218848Y1207493D01*
X218911Y1207587D01*
X218979Y1207679D01*
X219049Y1207769D01*
X219122Y1207855D01*
X219198Y1207940D01*
X219277Y1208022D01*
X219359Y1208101D01*
X219444Y1208177D01*
X219530Y1208250D01*
X219620Y1208320D01*
X219712Y1208388D01*
X219806Y1208451D01*
X219902Y1208512D01*
X220000Y1208570D01*
X220100Y1208624D01*
X220202Y1208674D01*
X220305Y1208721D01*
X220410Y1208765D01*
X220517Y1208805D01*
X220625Y1208841D01*
X220734Y1208874D01*
X220844Y1208902D01*
X220954Y1208927D01*
X221066Y1208949D01*
X221179Y1208966D01*
X221291Y1208980D01*
X221405Y1208989D01*
X221518Y1208995D01*
X221632Y1208997D01*
X221746Y1208995D01*
X221859Y1208989D01*
X221973Y1208980D01*
X222085Y1208966D01*
X222198Y1208949D01*
X222310Y1208927D01*
X222420Y1208902D01*
X222530Y1208874D01*
X222639Y1208841D01*
X222747Y1208805D01*
X222854Y1208765D01*
X222959Y1208721D01*
X223062Y1208674D01*
X223164Y1208624D01*
X223264Y1208570D01*
X223362Y1208512D01*
X223458Y1208451D01*
X223552Y1208388D01*
X223644Y1208320D01*
X223734Y1208250D01*
X223820Y1208177D01*
X223905Y1208101D01*
X223987Y1208022D01*
X224066Y1207940D01*
X224142Y1207855D01*
X224215Y1207769D01*
X224285Y1207679D01*
X224353Y1207587D01*
X224416Y1207493D01*
X224477Y1207397D01*
X224535Y1207299D01*
X224589Y1207199D01*
X224639Y1207097D01*
X224686Y1206994D01*
X224730Y1206889D01*
X224770Y1206782D01*
X224806Y1206674D01*
X224839Y1206565D01*
X224867Y1206455D01*
X224892Y1206345D01*
X224914Y1206233D01*
X224931Y1206120D01*
X224945Y1206008D01*
X224954Y1205894D01*
X224960Y1205781D01*
X224962Y1205667D01*
X224962Y1202337D01*
X224960Y1202223D01*
X224954Y1202110D01*
X224945Y1201996D01*
X224931Y1201884D01*
X224914Y1201771D01*
X224892Y1201659D01*
X224867Y1201549D01*
X224839Y1201439D01*
X224806Y1201330D01*
X224770Y1201222D01*
X224730Y1201115D01*
X224686Y1201010D01*
X224639Y1200907D01*
X224589Y1200805D01*
X224535Y1200705D01*
X224477Y1200607D01*
X224416Y1200511D01*
X224353Y1200417D01*
X224285Y1200325D01*
X224215Y1200235D01*
X224142Y1200149D01*
X224066Y1200064D01*
X223987Y1199982D01*
X223905Y1199903D01*
X223820Y1199827D01*
X223734Y1199754D01*
X223644Y1199684D01*
X223552Y1199616D01*
X223458Y1199553D01*
X223362Y1199492D01*
X223264Y1199434D01*
X223164Y1199380D01*
X223062Y1199330D01*
X222959Y1199283D01*
X222854Y1199239D01*
X222747Y1199199D01*
X222639Y1199163D01*
X222530Y1199130D01*
X222420Y1199102D01*
X222310Y1199077D01*
X222198Y1199055D01*
X222085Y1199038D01*
X221973Y1199024D01*
X221859Y1199015D01*
X221746Y1199009D01*
X221632Y1199007D01*
X221518Y1199009D01*
X221405Y1199015D01*
X221291Y1199024D01*
X221179Y1199038D01*
X221066Y1199055D01*
X220954Y1199077D01*
X220844Y1199102D01*
X220734Y1199130D01*
X220625Y1199163D01*
X220517Y1199199D01*
X220410Y1199239D01*
X220305Y1199283D01*
X220202Y1199330D01*
X220100Y1199380D01*
X220000Y1199434D01*
X219902Y1199492D01*
X219806Y1199553D01*
X219712Y1199616D01*
X219620Y1199684D01*
X219530Y1199754D01*
X219444Y1199827D01*
X219359Y1199903D01*
X219277Y1199982D01*
X219198Y1200064D01*
X219122Y1200149D01*
X219049Y1200235D01*
X218979Y1200325D01*
X218911Y1200417D01*
X218848Y1200511D01*
X218787Y1200607D01*
X218729Y1200705D01*
X218675Y1200805D01*
X218625Y1200907D01*
X218578Y1201010D01*
X218534Y1201115D01*
X218494Y1201222D01*
X218458Y1201330D01*
X218425Y1201439D01*
X218397Y1201549D01*
X218372Y1201659D01*
X218350Y1201771D01*
X218333Y1201884D01*
X218319Y1201996D01*
X218310Y1202110D01*
X218304Y1202223D01*
X218302Y1202337D01*
X232498Y1199007D02*
X232498Y1208998D01*
X237493Y1208998D01*
X237493Y1207333D01*
X245288Y1199007D02*
X249451Y1199007D01*
X245288Y1199007D02*
X245190Y1199009D01*
X245092Y1199015D01*
X244994Y1199024D01*
X244897Y1199038D01*
X244801Y1199055D01*
X244705Y1199076D01*
X244610Y1199101D01*
X244516Y1199129D01*
X244423Y1199161D01*
X244332Y1199197D01*
X244242Y1199236D01*
X244154Y1199279D01*
X244067Y1199326D01*
X243983Y1199375D01*
X243900Y1199428D01*
X243820Y1199484D01*
X243742Y1199543D01*
X243666Y1199606D01*
X243592Y1199671D01*
X243522Y1199739D01*
X243454Y1199809D01*
X243389Y1199883D01*
X243326Y1199959D01*
X243267Y1200037D01*
X243211Y1200117D01*
X243158Y1200200D01*
X243109Y1200284D01*
X243062Y1200371D01*
X243019Y1200459D01*
X242980Y1200549D01*
X242944Y1200640D01*
X242912Y1200733D01*
X242884Y1200827D01*
X242859Y1200922D01*
X242838Y1201018D01*
X242821Y1201114D01*
X242807Y1201211D01*
X242798Y1201309D01*
X242792Y1201407D01*
X242790Y1201505D01*
X242790Y1205667D01*
X242791Y1205667D02*
X242793Y1205781D01*
X242799Y1205894D01*
X242808Y1206008D01*
X242822Y1206120D01*
X242839Y1206233D01*
X242861Y1206345D01*
X242886Y1206455D01*
X242914Y1206565D01*
X242947Y1206674D01*
X242983Y1206782D01*
X243023Y1206889D01*
X243067Y1206994D01*
X243114Y1207097D01*
X243164Y1207199D01*
X243218Y1207299D01*
X243276Y1207397D01*
X243337Y1207493D01*
X243400Y1207587D01*
X243468Y1207679D01*
X243538Y1207769D01*
X243611Y1207855D01*
X243687Y1207940D01*
X243766Y1208022D01*
X243848Y1208101D01*
X243933Y1208177D01*
X244019Y1208250D01*
X244109Y1208320D01*
X244201Y1208388D01*
X244295Y1208451D01*
X244391Y1208512D01*
X244489Y1208570D01*
X244589Y1208624D01*
X244691Y1208674D01*
X244794Y1208721D01*
X244899Y1208765D01*
X245006Y1208805D01*
X245114Y1208841D01*
X245223Y1208874D01*
X245333Y1208902D01*
X245443Y1208927D01*
X245555Y1208949D01*
X245668Y1208966D01*
X245780Y1208980D01*
X245894Y1208989D01*
X246007Y1208995D01*
X246121Y1208997D01*
X246235Y1208995D01*
X246348Y1208989D01*
X246462Y1208980D01*
X246574Y1208966D01*
X246687Y1208949D01*
X246799Y1208927D01*
X246909Y1208902D01*
X247019Y1208874D01*
X247128Y1208841D01*
X247236Y1208805D01*
X247343Y1208765D01*
X247448Y1208721D01*
X247551Y1208674D01*
X247653Y1208624D01*
X247753Y1208570D01*
X247851Y1208512D01*
X247947Y1208451D01*
X248041Y1208388D01*
X248133Y1208320D01*
X248223Y1208250D01*
X248309Y1208177D01*
X248394Y1208101D01*
X248476Y1208022D01*
X248555Y1207940D01*
X248631Y1207855D01*
X248704Y1207769D01*
X248774Y1207679D01*
X248842Y1207587D01*
X248905Y1207493D01*
X248966Y1207397D01*
X249024Y1207299D01*
X249078Y1207199D01*
X249128Y1207097D01*
X249175Y1206994D01*
X249219Y1206889D01*
X249259Y1206782D01*
X249295Y1206674D01*
X249328Y1206565D01*
X249356Y1206455D01*
X249381Y1206345D01*
X249403Y1206233D01*
X249420Y1206120D01*
X249434Y1206008D01*
X249443Y1205894D01*
X249449Y1205781D01*
X249451Y1205667D01*
X249451Y1204002D01*
X242790Y1204002D01*
D11*
X414020Y1183640D02*
X414020Y-68580D01*
D12*
X373639Y1199007D02*
X370309Y1208998D01*
X376970Y1208998D02*
X373639Y1199007D01*
X383754Y1204835D02*
X393745Y1204835D01*
X402299Y1204835D02*
X406462Y1203170D01*
X402299Y1204834D02*
X402214Y1204870D01*
X402131Y1204910D01*
X402050Y1204953D01*
X401970Y1205000D01*
X401893Y1205050D01*
X401817Y1205103D01*
X401744Y1205159D01*
X401674Y1205219D01*
X401606Y1205281D01*
X401541Y1205346D01*
X401479Y1205414D01*
X401419Y1205485D01*
X401363Y1205558D01*
X401310Y1205633D01*
X401260Y1205711D01*
X401214Y1205790D01*
X401171Y1205872D01*
X401131Y1205955D01*
X401095Y1206040D01*
X401063Y1206126D01*
X401034Y1206214D01*
X401010Y1206303D01*
X400989Y1206393D01*
X400972Y1206483D01*
X400958Y1206574D01*
X400949Y1206666D01*
X400944Y1206758D01*
X400942Y1206850D01*
X400944Y1206942D01*
X400951Y1207034D01*
X400961Y1207126D01*
X400975Y1207217D01*
X400993Y1207308D01*
X401015Y1207397D01*
X401041Y1207486D01*
X401071Y1207573D01*
X401104Y1207659D01*
X401141Y1207743D01*
X401181Y1207826D01*
X401225Y1207907D01*
X401272Y1207986D01*
X401323Y1208063D01*
X401377Y1208138D01*
X401434Y1208211D01*
X401494Y1208281D01*
X401557Y1208348D01*
X401623Y1208412D01*
X401691Y1208474D01*
X401762Y1208533D01*
X401836Y1208588D01*
X401912Y1208641D01*
X401990Y1208690D01*
X402070Y1208736D01*
X402151Y1208778D01*
X402235Y1208817D01*
X402320Y1208852D01*
X402407Y1208883D01*
X402495Y1208911D01*
X402584Y1208935D01*
X402674Y1208955D01*
X402764Y1208972D01*
X402856Y1208984D01*
X402948Y1208993D01*
X403040Y1208997D01*
X403132Y1208998D01*
X403359Y1208992D01*
X403586Y1208981D01*
X403813Y1208964D01*
X404039Y1208941D01*
X404265Y1208914D01*
X404490Y1208880D01*
X404714Y1208842D01*
X404937Y1208798D01*
X405159Y1208749D01*
X405380Y1208694D01*
X405599Y1208634D01*
X405817Y1208569D01*
X406033Y1208498D01*
X406247Y1208423D01*
X406460Y1208342D01*
X406670Y1208256D01*
X406879Y1208165D01*
X406462Y1203170D02*
X406547Y1203134D01*
X406630Y1203094D01*
X406711Y1203051D01*
X406791Y1203004D01*
X406868Y1202954D01*
X406944Y1202901D01*
X407017Y1202845D01*
X407087Y1202785D01*
X407155Y1202723D01*
X407220Y1202658D01*
X407282Y1202590D01*
X407342Y1202519D01*
X407398Y1202446D01*
X407451Y1202371D01*
X407501Y1202293D01*
X407547Y1202214D01*
X407590Y1202132D01*
X407630Y1202049D01*
X407666Y1201964D01*
X407698Y1201878D01*
X407727Y1201790D01*
X407751Y1201701D01*
X407772Y1201611D01*
X407789Y1201521D01*
X407803Y1201430D01*
X407812Y1201338D01*
X407817Y1201246D01*
X407819Y1201154D01*
X407817Y1201062D01*
X407810Y1200970D01*
X407800Y1200878D01*
X407786Y1200787D01*
X407768Y1200696D01*
X407746Y1200607D01*
X407720Y1200518D01*
X407690Y1200431D01*
X407657Y1200345D01*
X407620Y1200261D01*
X407580Y1200178D01*
X407536Y1200097D01*
X407489Y1200018D01*
X407438Y1199941D01*
X407384Y1199866D01*
X407327Y1199793D01*
X407267Y1199723D01*
X407204Y1199656D01*
X407138Y1199592D01*
X407070Y1199530D01*
X406999Y1199471D01*
X406925Y1199416D01*
X406849Y1199363D01*
X406771Y1199314D01*
X406691Y1199268D01*
X406610Y1199226D01*
X406526Y1199187D01*
X406441Y1199152D01*
X406354Y1199121D01*
X406266Y1199093D01*
X406177Y1199069D01*
X406087Y1199049D01*
X405997Y1199032D01*
X405905Y1199020D01*
X405813Y1199011D01*
X405721Y1199007D01*
X405629Y1199006D01*
X405629Y1199007D02*
X405295Y1199016D01*
X404962Y1199033D01*
X404629Y1199057D01*
X404296Y1199090D01*
X403965Y1199130D01*
X403634Y1199178D01*
X403305Y1199234D01*
X402977Y1199297D01*
X402651Y1199369D01*
X402327Y1199448D01*
X402004Y1199534D01*
X401684Y1199629D01*
X401366Y1199731D01*
X401050Y1199840D01*
X417122Y1199007D02*
X420452Y1199007D01*
X417122Y1199007D02*
X417024Y1199009D01*
X416926Y1199015D01*
X416828Y1199024D01*
X416731Y1199038D01*
X416635Y1199055D01*
X416539Y1199076D01*
X416444Y1199101D01*
X416350Y1199129D01*
X416257Y1199161D01*
X416166Y1199197D01*
X416076Y1199236D01*
X415988Y1199279D01*
X415901Y1199326D01*
X415817Y1199375D01*
X415734Y1199428D01*
X415654Y1199484D01*
X415576Y1199543D01*
X415500Y1199606D01*
X415426Y1199671D01*
X415356Y1199739D01*
X415288Y1199809D01*
X415223Y1199883D01*
X415160Y1199959D01*
X415101Y1200037D01*
X415045Y1200117D01*
X414992Y1200200D01*
X414943Y1200284D01*
X414896Y1200371D01*
X414853Y1200459D01*
X414814Y1200549D01*
X414778Y1200640D01*
X414746Y1200733D01*
X414718Y1200827D01*
X414693Y1200922D01*
X414672Y1201018D01*
X414655Y1201114D01*
X414641Y1201211D01*
X414632Y1201309D01*
X414626Y1201407D01*
X414624Y1201505D01*
X414624Y1206500D01*
X414626Y1206598D01*
X414632Y1206696D01*
X414641Y1206794D01*
X414655Y1206891D01*
X414672Y1206987D01*
X414693Y1207083D01*
X414718Y1207178D01*
X414746Y1207272D01*
X414778Y1207365D01*
X414814Y1207456D01*
X414853Y1207546D01*
X414896Y1207634D01*
X414943Y1207721D01*
X414992Y1207805D01*
X415045Y1207888D01*
X415101Y1207968D01*
X415160Y1208047D01*
X415223Y1208122D01*
X415288Y1208196D01*
X415356Y1208266D01*
X415426Y1208334D01*
X415500Y1208400D01*
X415576Y1208462D01*
X415654Y1208521D01*
X415734Y1208577D01*
X415817Y1208630D01*
X415901Y1208680D01*
X415988Y1208726D01*
X416076Y1208769D01*
X416166Y1208808D01*
X416257Y1208844D01*
X416350Y1208876D01*
X416444Y1208904D01*
X416539Y1208929D01*
X416635Y1208950D01*
X416731Y1208967D01*
X416828Y1208981D01*
X416926Y1208990D01*
X417024Y1208996D01*
X417122Y1208998D01*
X420452Y1208998D01*
X426582Y1205667D02*
X426582Y1202337D01*
X426582Y1205667D02*
X426584Y1205781D01*
X426590Y1205894D01*
X426599Y1206008D01*
X426613Y1206120D01*
X426630Y1206233D01*
X426652Y1206345D01*
X426677Y1206455D01*
X426705Y1206565D01*
X426738Y1206674D01*
X426774Y1206782D01*
X426814Y1206889D01*
X426858Y1206994D01*
X426905Y1207097D01*
X426955Y1207199D01*
X427009Y1207299D01*
X427067Y1207397D01*
X427128Y1207493D01*
X427191Y1207587D01*
X427259Y1207679D01*
X427329Y1207769D01*
X427402Y1207855D01*
X427478Y1207940D01*
X427557Y1208022D01*
X427639Y1208101D01*
X427724Y1208177D01*
X427810Y1208250D01*
X427900Y1208320D01*
X427992Y1208388D01*
X428086Y1208451D01*
X428182Y1208512D01*
X428280Y1208570D01*
X428380Y1208624D01*
X428482Y1208674D01*
X428585Y1208721D01*
X428690Y1208765D01*
X428797Y1208805D01*
X428905Y1208841D01*
X429014Y1208874D01*
X429124Y1208902D01*
X429234Y1208927D01*
X429346Y1208949D01*
X429459Y1208966D01*
X429571Y1208980D01*
X429685Y1208989D01*
X429798Y1208995D01*
X429912Y1208997D01*
X430026Y1208995D01*
X430139Y1208989D01*
X430253Y1208980D01*
X430365Y1208966D01*
X430478Y1208949D01*
X430590Y1208927D01*
X430700Y1208902D01*
X430810Y1208874D01*
X430919Y1208841D01*
X431027Y1208805D01*
X431134Y1208765D01*
X431239Y1208721D01*
X431342Y1208674D01*
X431444Y1208624D01*
X431544Y1208570D01*
X431642Y1208512D01*
X431738Y1208451D01*
X431832Y1208388D01*
X431924Y1208320D01*
X432014Y1208250D01*
X432100Y1208177D01*
X432185Y1208101D01*
X432267Y1208022D01*
X432346Y1207940D01*
X432422Y1207855D01*
X432495Y1207769D01*
X432565Y1207679D01*
X432633Y1207587D01*
X432696Y1207493D01*
X432757Y1207397D01*
X432815Y1207299D01*
X432869Y1207199D01*
X432919Y1207097D01*
X432966Y1206994D01*
X433010Y1206889D01*
X433050Y1206782D01*
X433086Y1206674D01*
X433119Y1206565D01*
X433147Y1206455D01*
X433172Y1206345D01*
X433194Y1206233D01*
X433211Y1206120D01*
X433225Y1206008D01*
X433234Y1205894D01*
X433240Y1205781D01*
X433242Y1205667D01*
X433242Y1202337D01*
X433240Y1202223D01*
X433234Y1202110D01*
X433225Y1201996D01*
X433211Y1201884D01*
X433194Y1201771D01*
X433172Y1201659D01*
X433147Y1201549D01*
X433119Y1201439D01*
X433086Y1201330D01*
X433050Y1201222D01*
X433010Y1201115D01*
X432966Y1201010D01*
X432919Y1200907D01*
X432869Y1200805D01*
X432815Y1200705D01*
X432757Y1200607D01*
X432696Y1200511D01*
X432633Y1200417D01*
X432565Y1200325D01*
X432495Y1200235D01*
X432422Y1200149D01*
X432346Y1200064D01*
X432267Y1199982D01*
X432185Y1199903D01*
X432100Y1199827D01*
X432014Y1199754D01*
X431924Y1199684D01*
X431832Y1199616D01*
X431738Y1199553D01*
X431642Y1199492D01*
X431544Y1199434D01*
X431444Y1199380D01*
X431342Y1199330D01*
X431239Y1199283D01*
X431134Y1199239D01*
X431027Y1199199D01*
X430919Y1199163D01*
X430810Y1199130D01*
X430700Y1199102D01*
X430590Y1199077D01*
X430478Y1199055D01*
X430365Y1199038D01*
X430253Y1199024D01*
X430139Y1199015D01*
X430026Y1199009D01*
X429912Y1199007D01*
X429798Y1199009D01*
X429685Y1199015D01*
X429571Y1199024D01*
X429459Y1199038D01*
X429346Y1199055D01*
X429234Y1199077D01*
X429124Y1199102D01*
X429014Y1199130D01*
X428905Y1199163D01*
X428797Y1199199D01*
X428690Y1199239D01*
X428585Y1199283D01*
X428482Y1199330D01*
X428380Y1199380D01*
X428280Y1199434D01*
X428182Y1199492D01*
X428086Y1199553D01*
X427992Y1199616D01*
X427900Y1199684D01*
X427810Y1199754D01*
X427724Y1199827D01*
X427639Y1199903D01*
X427557Y1199982D01*
X427478Y1200064D01*
X427402Y1200149D01*
X427329Y1200235D01*
X427259Y1200325D01*
X427191Y1200417D01*
X427128Y1200511D01*
X427067Y1200607D01*
X427009Y1200705D01*
X426955Y1200805D01*
X426905Y1200907D01*
X426858Y1201010D01*
X426814Y1201115D01*
X426774Y1201222D01*
X426738Y1201330D01*
X426705Y1201439D01*
X426677Y1201549D01*
X426652Y1201659D01*
X426630Y1201771D01*
X426613Y1201884D01*
X426599Y1201996D01*
X426590Y1202110D01*
X426584Y1202223D01*
X426582Y1202337D01*
X440778Y1199007D02*
X440778Y1208998D01*
X445773Y1208998D01*
X445773Y1207333D01*
X453568Y1199007D02*
X457731Y1199007D01*
X453568Y1199007D02*
X453470Y1199009D01*
X453372Y1199015D01*
X453274Y1199024D01*
X453177Y1199038D01*
X453081Y1199055D01*
X452985Y1199076D01*
X452890Y1199101D01*
X452796Y1199129D01*
X452703Y1199161D01*
X452612Y1199197D01*
X452522Y1199236D01*
X452434Y1199279D01*
X452347Y1199326D01*
X452263Y1199375D01*
X452180Y1199428D01*
X452100Y1199484D01*
X452022Y1199543D01*
X451946Y1199606D01*
X451872Y1199671D01*
X451802Y1199739D01*
X451734Y1199809D01*
X451669Y1199883D01*
X451606Y1199959D01*
X451547Y1200037D01*
X451491Y1200117D01*
X451438Y1200200D01*
X451389Y1200284D01*
X451342Y1200371D01*
X451299Y1200459D01*
X451260Y1200549D01*
X451224Y1200640D01*
X451192Y1200733D01*
X451164Y1200827D01*
X451139Y1200922D01*
X451118Y1201018D01*
X451101Y1201114D01*
X451087Y1201211D01*
X451078Y1201309D01*
X451072Y1201407D01*
X451070Y1201505D01*
X451070Y1205667D01*
X451071Y1205667D02*
X451073Y1205781D01*
X451079Y1205894D01*
X451088Y1206008D01*
X451102Y1206120D01*
X451119Y1206233D01*
X451141Y1206345D01*
X451166Y1206455D01*
X451194Y1206565D01*
X451227Y1206674D01*
X451263Y1206782D01*
X451303Y1206889D01*
X451347Y1206994D01*
X451394Y1207097D01*
X451444Y1207199D01*
X451498Y1207299D01*
X451556Y1207397D01*
X451617Y1207493D01*
X451680Y1207587D01*
X451748Y1207679D01*
X451818Y1207769D01*
X451891Y1207855D01*
X451967Y1207940D01*
X452046Y1208022D01*
X452128Y1208101D01*
X452213Y1208177D01*
X452299Y1208250D01*
X452389Y1208320D01*
X452481Y1208388D01*
X452575Y1208451D01*
X452671Y1208512D01*
X452769Y1208570D01*
X452869Y1208624D01*
X452971Y1208674D01*
X453074Y1208721D01*
X453179Y1208765D01*
X453286Y1208805D01*
X453394Y1208841D01*
X453503Y1208874D01*
X453613Y1208902D01*
X453723Y1208927D01*
X453835Y1208949D01*
X453948Y1208966D01*
X454060Y1208980D01*
X454174Y1208989D01*
X454287Y1208995D01*
X454401Y1208997D01*
X454515Y1208995D01*
X454628Y1208989D01*
X454742Y1208980D01*
X454854Y1208966D01*
X454967Y1208949D01*
X455079Y1208927D01*
X455189Y1208902D01*
X455299Y1208874D01*
X455408Y1208841D01*
X455516Y1208805D01*
X455623Y1208765D01*
X455728Y1208721D01*
X455831Y1208674D01*
X455933Y1208624D01*
X456033Y1208570D01*
X456131Y1208512D01*
X456227Y1208451D01*
X456321Y1208388D01*
X456413Y1208320D01*
X456503Y1208250D01*
X456589Y1208177D01*
X456674Y1208101D01*
X456756Y1208022D01*
X456835Y1207940D01*
X456911Y1207855D01*
X456984Y1207769D01*
X457054Y1207679D01*
X457122Y1207587D01*
X457185Y1207493D01*
X457246Y1207397D01*
X457304Y1207299D01*
X457358Y1207199D01*
X457408Y1207097D01*
X457455Y1206994D01*
X457499Y1206889D01*
X457539Y1206782D01*
X457575Y1206674D01*
X457608Y1206565D01*
X457636Y1206455D01*
X457661Y1206345D01*
X457683Y1206233D01*
X457700Y1206120D01*
X457714Y1206008D01*
X457723Y1205894D01*
X457729Y1205781D01*
X457731Y1205667D01*
X457731Y1204002D01*
X451070Y1204002D01*
D11*
X622300Y1183640D02*
X622300Y-68580D01*
D12*
X581919Y1199007D02*
X578589Y1208998D01*
X585250Y1208998D02*
X581919Y1199007D01*
X592034Y1204835D02*
X602025Y1204835D01*
X610579Y1204835D02*
X614742Y1203170D01*
X610579Y1204834D02*
X610494Y1204870D01*
X610411Y1204910D01*
X610330Y1204953D01*
X610250Y1205000D01*
X610173Y1205050D01*
X610097Y1205103D01*
X610024Y1205159D01*
X609954Y1205219D01*
X609886Y1205281D01*
X609821Y1205346D01*
X609759Y1205414D01*
X609699Y1205485D01*
X609643Y1205558D01*
X609590Y1205633D01*
X609540Y1205711D01*
X609494Y1205790D01*
X609451Y1205872D01*
X609411Y1205955D01*
X609375Y1206040D01*
X609343Y1206126D01*
X609314Y1206214D01*
X609290Y1206303D01*
X609269Y1206393D01*
X609252Y1206483D01*
X609238Y1206574D01*
X609229Y1206666D01*
X609224Y1206758D01*
X609222Y1206850D01*
X609224Y1206942D01*
X609231Y1207034D01*
X609241Y1207126D01*
X609255Y1207217D01*
X609273Y1207308D01*
X609295Y1207397D01*
X609321Y1207486D01*
X609351Y1207573D01*
X609384Y1207659D01*
X609421Y1207743D01*
X609461Y1207826D01*
X609505Y1207907D01*
X609552Y1207986D01*
X609603Y1208063D01*
X609657Y1208138D01*
X609714Y1208211D01*
X609774Y1208281D01*
X609837Y1208348D01*
X609903Y1208412D01*
X609971Y1208474D01*
X610042Y1208533D01*
X610116Y1208588D01*
X610192Y1208641D01*
X610270Y1208690D01*
X610350Y1208736D01*
X610431Y1208778D01*
X610515Y1208817D01*
X610600Y1208852D01*
X610687Y1208883D01*
X610775Y1208911D01*
X610864Y1208935D01*
X610954Y1208955D01*
X611044Y1208972D01*
X611136Y1208984D01*
X611228Y1208993D01*
X611320Y1208997D01*
X611412Y1208998D01*
X611639Y1208992D01*
X611866Y1208981D01*
X612093Y1208964D01*
X612319Y1208941D01*
X612545Y1208914D01*
X612770Y1208880D01*
X612994Y1208842D01*
X613217Y1208798D01*
X613439Y1208749D01*
X613660Y1208694D01*
X613879Y1208634D01*
X614097Y1208569D01*
X614313Y1208498D01*
X614527Y1208423D01*
X614740Y1208342D01*
X614950Y1208256D01*
X615159Y1208165D01*
X614742Y1203170D02*
X614827Y1203134D01*
X614910Y1203094D01*
X614991Y1203051D01*
X615071Y1203004D01*
X615148Y1202954D01*
X615224Y1202901D01*
X615297Y1202845D01*
X615367Y1202785D01*
X615435Y1202723D01*
X615500Y1202658D01*
X615562Y1202590D01*
X615622Y1202519D01*
X615678Y1202446D01*
X615731Y1202371D01*
X615781Y1202293D01*
X615827Y1202214D01*
X615870Y1202132D01*
X615910Y1202049D01*
X615946Y1201964D01*
X615978Y1201878D01*
X616007Y1201790D01*
X616031Y1201701D01*
X616052Y1201611D01*
X616069Y1201521D01*
X616083Y1201430D01*
X616092Y1201338D01*
X616097Y1201246D01*
X616099Y1201154D01*
X616097Y1201062D01*
X616090Y1200970D01*
X616080Y1200878D01*
X616066Y1200787D01*
X616048Y1200696D01*
X616026Y1200607D01*
X616000Y1200518D01*
X615970Y1200431D01*
X615937Y1200345D01*
X615900Y1200261D01*
X615860Y1200178D01*
X615816Y1200097D01*
X615769Y1200018D01*
X615718Y1199941D01*
X615664Y1199866D01*
X615607Y1199793D01*
X615547Y1199723D01*
X615484Y1199656D01*
X615418Y1199592D01*
X615350Y1199530D01*
X615279Y1199471D01*
X615205Y1199416D01*
X615129Y1199363D01*
X615051Y1199314D01*
X614971Y1199268D01*
X614890Y1199226D01*
X614806Y1199187D01*
X614721Y1199152D01*
X614634Y1199121D01*
X614546Y1199093D01*
X614457Y1199069D01*
X614367Y1199049D01*
X614277Y1199032D01*
X614185Y1199020D01*
X614093Y1199011D01*
X614001Y1199007D01*
X613909Y1199006D01*
X613909Y1199007D02*
X613575Y1199016D01*
X613242Y1199033D01*
X612909Y1199057D01*
X612576Y1199090D01*
X612245Y1199130D01*
X611914Y1199178D01*
X611585Y1199234D01*
X611257Y1199297D01*
X610931Y1199369D01*
X610607Y1199448D01*
X610284Y1199534D01*
X609964Y1199629D01*
X609646Y1199731D01*
X609330Y1199840D01*
X625402Y1199007D02*
X628732Y1199007D01*
X625402Y1199007D02*
X625304Y1199009D01*
X625206Y1199015D01*
X625108Y1199024D01*
X625011Y1199038D01*
X624915Y1199055D01*
X624819Y1199076D01*
X624724Y1199101D01*
X624630Y1199129D01*
X624537Y1199161D01*
X624446Y1199197D01*
X624356Y1199236D01*
X624268Y1199279D01*
X624181Y1199326D01*
X624097Y1199375D01*
X624014Y1199428D01*
X623934Y1199484D01*
X623856Y1199543D01*
X623780Y1199606D01*
X623706Y1199671D01*
X623636Y1199739D01*
X623568Y1199809D01*
X623503Y1199883D01*
X623440Y1199959D01*
X623381Y1200037D01*
X623325Y1200117D01*
X623272Y1200200D01*
X623223Y1200284D01*
X623176Y1200371D01*
X623133Y1200459D01*
X623094Y1200549D01*
X623058Y1200640D01*
X623026Y1200733D01*
X622998Y1200827D01*
X622973Y1200922D01*
X622952Y1201018D01*
X622935Y1201114D01*
X622921Y1201211D01*
X622912Y1201309D01*
X622906Y1201407D01*
X622904Y1201505D01*
X622904Y1206500D01*
X622906Y1206598D01*
X622912Y1206696D01*
X622921Y1206794D01*
X622935Y1206891D01*
X622952Y1206987D01*
X622973Y1207083D01*
X622998Y1207178D01*
X623026Y1207272D01*
X623058Y1207365D01*
X623094Y1207456D01*
X623133Y1207546D01*
X623176Y1207634D01*
X623223Y1207721D01*
X623272Y1207805D01*
X623325Y1207888D01*
X623381Y1207968D01*
X623440Y1208047D01*
X623503Y1208122D01*
X623568Y1208196D01*
X623636Y1208266D01*
X623706Y1208334D01*
X623780Y1208400D01*
X623856Y1208462D01*
X623934Y1208521D01*
X624014Y1208577D01*
X624097Y1208630D01*
X624181Y1208680D01*
X624268Y1208726D01*
X624356Y1208769D01*
X624446Y1208808D01*
X624537Y1208844D01*
X624630Y1208876D01*
X624724Y1208904D01*
X624819Y1208929D01*
X624915Y1208950D01*
X625011Y1208967D01*
X625108Y1208981D01*
X625206Y1208990D01*
X625304Y1208996D01*
X625402Y1208998D01*
X628732Y1208998D01*
X634862Y1205667D02*
X634862Y1202337D01*
X634862Y1205667D02*
X634864Y1205781D01*
X634870Y1205894D01*
X634879Y1206008D01*
X634893Y1206120D01*
X634910Y1206233D01*
X634932Y1206345D01*
X634957Y1206455D01*
X634985Y1206565D01*
X635018Y1206674D01*
X635054Y1206782D01*
X635094Y1206889D01*
X635138Y1206994D01*
X635185Y1207097D01*
X635235Y1207199D01*
X635289Y1207299D01*
X635347Y1207397D01*
X635408Y1207493D01*
X635471Y1207587D01*
X635539Y1207679D01*
X635609Y1207769D01*
X635682Y1207855D01*
X635758Y1207940D01*
X635837Y1208022D01*
X635919Y1208101D01*
X636004Y1208177D01*
X636090Y1208250D01*
X636180Y1208320D01*
X636272Y1208388D01*
X636366Y1208451D01*
X636462Y1208512D01*
X636560Y1208570D01*
X636660Y1208624D01*
X636762Y1208674D01*
X636865Y1208721D01*
X636970Y1208765D01*
X637077Y1208805D01*
X637185Y1208841D01*
X637294Y1208874D01*
X637404Y1208902D01*
X637514Y1208927D01*
X637626Y1208949D01*
X637739Y1208966D01*
X637851Y1208980D01*
X637965Y1208989D01*
X638078Y1208995D01*
X638192Y1208997D01*
X638306Y1208995D01*
X638419Y1208989D01*
X638533Y1208980D01*
X638645Y1208966D01*
X638758Y1208949D01*
X638870Y1208927D01*
X638980Y1208902D01*
X639090Y1208874D01*
X639199Y1208841D01*
X639307Y1208805D01*
X639414Y1208765D01*
X639519Y1208721D01*
X639622Y1208674D01*
X639724Y1208624D01*
X639824Y1208570D01*
X639922Y1208512D01*
X640018Y1208451D01*
X640112Y1208388D01*
X640204Y1208320D01*
X640294Y1208250D01*
X640380Y1208177D01*
X640465Y1208101D01*
X640547Y1208022D01*
X640626Y1207940D01*
X640702Y1207855D01*
X640775Y1207769D01*
X640845Y1207679D01*
X640913Y1207587D01*
X640976Y1207493D01*
X641037Y1207397D01*
X641095Y1207299D01*
X641149Y1207199D01*
X641199Y1207097D01*
X641246Y1206994D01*
X641290Y1206889D01*
X641330Y1206782D01*
X641366Y1206674D01*
X641399Y1206565D01*
X641427Y1206455D01*
X641452Y1206345D01*
X641474Y1206233D01*
X641491Y1206120D01*
X641505Y1206008D01*
X641514Y1205894D01*
X641520Y1205781D01*
X641522Y1205667D01*
X641522Y1202337D01*
X641520Y1202223D01*
X641514Y1202110D01*
X641505Y1201996D01*
X641491Y1201884D01*
X641474Y1201771D01*
X641452Y1201659D01*
X641427Y1201549D01*
X641399Y1201439D01*
X641366Y1201330D01*
X641330Y1201222D01*
X641290Y1201115D01*
X641246Y1201010D01*
X641199Y1200907D01*
X641149Y1200805D01*
X641095Y1200705D01*
X641037Y1200607D01*
X640976Y1200511D01*
X640913Y1200417D01*
X640845Y1200325D01*
X640775Y1200235D01*
X640702Y1200149D01*
X640626Y1200064D01*
X640547Y1199982D01*
X640465Y1199903D01*
X640380Y1199827D01*
X640294Y1199754D01*
X640204Y1199684D01*
X640112Y1199616D01*
X640018Y1199553D01*
X639922Y1199492D01*
X639824Y1199434D01*
X639724Y1199380D01*
X639622Y1199330D01*
X639519Y1199283D01*
X639414Y1199239D01*
X639307Y1199199D01*
X639199Y1199163D01*
X639090Y1199130D01*
X638980Y1199102D01*
X638870Y1199077D01*
X638758Y1199055D01*
X638645Y1199038D01*
X638533Y1199024D01*
X638419Y1199015D01*
X638306Y1199009D01*
X638192Y1199007D01*
X638078Y1199009D01*
X637965Y1199015D01*
X637851Y1199024D01*
X637739Y1199038D01*
X637626Y1199055D01*
X637514Y1199077D01*
X637404Y1199102D01*
X637294Y1199130D01*
X637185Y1199163D01*
X637077Y1199199D01*
X636970Y1199239D01*
X636865Y1199283D01*
X636762Y1199330D01*
X636660Y1199380D01*
X636560Y1199434D01*
X636462Y1199492D01*
X636366Y1199553D01*
X636272Y1199616D01*
X636180Y1199684D01*
X636090Y1199754D01*
X636004Y1199827D01*
X635919Y1199903D01*
X635837Y1199982D01*
X635758Y1200064D01*
X635682Y1200149D01*
X635609Y1200235D01*
X635539Y1200325D01*
X635471Y1200417D01*
X635408Y1200511D01*
X635347Y1200607D01*
X635289Y1200705D01*
X635235Y1200805D01*
X635185Y1200907D01*
X635138Y1201010D01*
X635094Y1201115D01*
X635054Y1201222D01*
X635018Y1201330D01*
X634985Y1201439D01*
X634957Y1201549D01*
X634932Y1201659D01*
X634910Y1201771D01*
X634893Y1201884D01*
X634879Y1201996D01*
X634870Y1202110D01*
X634864Y1202223D01*
X634862Y1202337D01*
X649058Y1199007D02*
X649058Y1208998D01*
X654053Y1208998D01*
X654053Y1207333D01*
X661848Y1199007D02*
X666011Y1199007D01*
X661848Y1199007D02*
X661750Y1199009D01*
X661652Y1199015D01*
X661554Y1199024D01*
X661457Y1199038D01*
X661361Y1199055D01*
X661265Y1199076D01*
X661170Y1199101D01*
X661076Y1199129D01*
X660983Y1199161D01*
X660892Y1199197D01*
X660802Y1199236D01*
X660714Y1199279D01*
X660627Y1199326D01*
X660543Y1199375D01*
X660460Y1199428D01*
X660380Y1199484D01*
X660302Y1199543D01*
X660226Y1199606D01*
X660152Y1199671D01*
X660082Y1199739D01*
X660014Y1199809D01*
X659949Y1199883D01*
X659886Y1199959D01*
X659827Y1200037D01*
X659771Y1200117D01*
X659718Y1200200D01*
X659669Y1200284D01*
X659622Y1200371D01*
X659579Y1200459D01*
X659540Y1200549D01*
X659504Y1200640D01*
X659472Y1200733D01*
X659444Y1200827D01*
X659419Y1200922D01*
X659398Y1201018D01*
X659381Y1201114D01*
X659367Y1201211D01*
X659358Y1201309D01*
X659352Y1201407D01*
X659350Y1201505D01*
X659350Y1205667D01*
X659351Y1205667D02*
X659353Y1205781D01*
X659359Y1205894D01*
X659368Y1206008D01*
X659382Y1206120D01*
X659399Y1206233D01*
X659421Y1206345D01*
X659446Y1206455D01*
X659474Y1206565D01*
X659507Y1206674D01*
X659543Y1206782D01*
X659583Y1206889D01*
X659627Y1206994D01*
X659674Y1207097D01*
X659724Y1207199D01*
X659778Y1207299D01*
X659836Y1207397D01*
X659897Y1207493D01*
X659960Y1207587D01*
X660028Y1207679D01*
X660098Y1207769D01*
X660171Y1207855D01*
X660247Y1207940D01*
X660326Y1208022D01*
X660408Y1208101D01*
X660493Y1208177D01*
X660579Y1208250D01*
X660669Y1208320D01*
X660761Y1208388D01*
X660855Y1208451D01*
X660951Y1208512D01*
X661049Y1208570D01*
X661149Y1208624D01*
X661251Y1208674D01*
X661354Y1208721D01*
X661459Y1208765D01*
X661566Y1208805D01*
X661674Y1208841D01*
X661783Y1208874D01*
X661893Y1208902D01*
X662003Y1208927D01*
X662115Y1208949D01*
X662228Y1208966D01*
X662340Y1208980D01*
X662454Y1208989D01*
X662567Y1208995D01*
X662681Y1208997D01*
X662795Y1208995D01*
X662908Y1208989D01*
X663022Y1208980D01*
X663134Y1208966D01*
X663247Y1208949D01*
X663359Y1208927D01*
X663469Y1208902D01*
X663579Y1208874D01*
X663688Y1208841D01*
X663796Y1208805D01*
X663903Y1208765D01*
X664008Y1208721D01*
X664111Y1208674D01*
X664213Y1208624D01*
X664313Y1208570D01*
X664411Y1208512D01*
X664507Y1208451D01*
X664601Y1208388D01*
X664693Y1208320D01*
X664783Y1208250D01*
X664869Y1208177D01*
X664954Y1208101D01*
X665036Y1208022D01*
X665115Y1207940D01*
X665191Y1207855D01*
X665264Y1207769D01*
X665334Y1207679D01*
X665402Y1207587D01*
X665465Y1207493D01*
X665526Y1207397D01*
X665584Y1207299D01*
X665638Y1207199D01*
X665688Y1207097D01*
X665735Y1206994D01*
X665779Y1206889D01*
X665819Y1206782D01*
X665855Y1206674D01*
X665888Y1206565D01*
X665916Y1206455D01*
X665941Y1206345D01*
X665963Y1206233D01*
X665980Y1206120D01*
X665994Y1206008D01*
X666003Y1205894D01*
X666009Y1205781D01*
X666011Y1205667D01*
X666011Y1204002D01*
X659350Y1204002D01*
D11*
X830580Y1183640D02*
X830580Y-68580D01*
D12*
X790199Y1199007D02*
X786869Y1208998D01*
X793530Y1208998D02*
X790199Y1199007D01*
X800314Y1204835D02*
X810305Y1204835D01*
X818859Y1204835D02*
X823022Y1203170D01*
X818859Y1204834D02*
X818774Y1204870D01*
X818691Y1204910D01*
X818610Y1204953D01*
X818530Y1205000D01*
X818453Y1205050D01*
X818377Y1205103D01*
X818304Y1205159D01*
X818234Y1205219D01*
X818166Y1205281D01*
X818101Y1205346D01*
X818039Y1205414D01*
X817979Y1205485D01*
X817923Y1205558D01*
X817870Y1205633D01*
X817820Y1205711D01*
X817774Y1205790D01*
X817731Y1205872D01*
X817691Y1205955D01*
X817655Y1206040D01*
X817623Y1206126D01*
X817594Y1206214D01*
X817570Y1206303D01*
X817549Y1206393D01*
X817532Y1206483D01*
X817518Y1206574D01*
X817509Y1206666D01*
X817504Y1206758D01*
X817502Y1206850D01*
X817504Y1206942D01*
X817511Y1207034D01*
X817521Y1207126D01*
X817535Y1207217D01*
X817553Y1207308D01*
X817575Y1207397D01*
X817601Y1207486D01*
X817631Y1207573D01*
X817664Y1207659D01*
X817701Y1207743D01*
X817741Y1207826D01*
X817785Y1207907D01*
X817832Y1207986D01*
X817883Y1208063D01*
X817937Y1208138D01*
X817994Y1208211D01*
X818054Y1208281D01*
X818117Y1208348D01*
X818183Y1208412D01*
X818251Y1208474D01*
X818322Y1208533D01*
X818396Y1208588D01*
X818472Y1208641D01*
X818550Y1208690D01*
X818630Y1208736D01*
X818711Y1208778D01*
X818795Y1208817D01*
X818880Y1208852D01*
X818967Y1208883D01*
X819055Y1208911D01*
X819144Y1208935D01*
X819234Y1208955D01*
X819324Y1208972D01*
X819416Y1208984D01*
X819508Y1208993D01*
X819600Y1208997D01*
X819692Y1208998D01*
X819919Y1208992D01*
X820146Y1208981D01*
X820373Y1208964D01*
X820599Y1208941D01*
X820825Y1208914D01*
X821050Y1208880D01*
X821274Y1208842D01*
X821497Y1208798D01*
X821719Y1208749D01*
X821940Y1208694D01*
X822159Y1208634D01*
X822377Y1208569D01*
X822593Y1208498D01*
X822807Y1208423D01*
X823020Y1208342D01*
X823230Y1208256D01*
X823439Y1208165D01*
X823022Y1203170D02*
X823107Y1203134D01*
X823190Y1203094D01*
X823271Y1203051D01*
X823351Y1203004D01*
X823428Y1202954D01*
X823504Y1202901D01*
X823577Y1202845D01*
X823647Y1202785D01*
X823715Y1202723D01*
X823780Y1202658D01*
X823842Y1202590D01*
X823902Y1202519D01*
X823958Y1202446D01*
X824011Y1202371D01*
X824061Y1202293D01*
X824107Y1202214D01*
X824150Y1202132D01*
X824190Y1202049D01*
X824226Y1201964D01*
X824258Y1201878D01*
X824287Y1201790D01*
X824311Y1201701D01*
X824332Y1201611D01*
X824349Y1201521D01*
X824363Y1201430D01*
X824372Y1201338D01*
X824377Y1201246D01*
X824379Y1201154D01*
X824377Y1201062D01*
X824370Y1200970D01*
X824360Y1200878D01*
X824346Y1200787D01*
X824328Y1200696D01*
X824306Y1200607D01*
X824280Y1200518D01*
X824250Y1200431D01*
X824217Y1200345D01*
X824180Y1200261D01*
X824140Y1200178D01*
X824096Y1200097D01*
X824049Y1200018D01*
X823998Y1199941D01*
X823944Y1199866D01*
X823887Y1199793D01*
X823827Y1199723D01*
X823764Y1199656D01*
X823698Y1199592D01*
X823630Y1199530D01*
X823559Y1199471D01*
X823485Y1199416D01*
X823409Y1199363D01*
X823331Y1199314D01*
X823251Y1199268D01*
X823170Y1199226D01*
X823086Y1199187D01*
X823001Y1199152D01*
X822914Y1199121D01*
X822826Y1199093D01*
X822737Y1199069D01*
X822647Y1199049D01*
X822557Y1199032D01*
X822465Y1199020D01*
X822373Y1199011D01*
X822281Y1199007D01*
X822189Y1199006D01*
X822189Y1199007D02*
X821855Y1199016D01*
X821522Y1199033D01*
X821189Y1199057D01*
X820856Y1199090D01*
X820525Y1199130D01*
X820194Y1199178D01*
X819865Y1199234D01*
X819537Y1199297D01*
X819211Y1199369D01*
X818887Y1199448D01*
X818564Y1199534D01*
X818244Y1199629D01*
X817926Y1199731D01*
X817610Y1199840D01*
X833682Y1199007D02*
X837012Y1199007D01*
X833682Y1199007D02*
X833584Y1199009D01*
X833486Y1199015D01*
X833388Y1199024D01*
X833291Y1199038D01*
X833195Y1199055D01*
X833099Y1199076D01*
X833004Y1199101D01*
X832910Y1199129D01*
X832817Y1199161D01*
X832726Y1199197D01*
X832636Y1199236D01*
X832548Y1199279D01*
X832461Y1199326D01*
X832377Y1199375D01*
X832294Y1199428D01*
X832214Y1199484D01*
X832136Y1199543D01*
X832060Y1199606D01*
X831986Y1199671D01*
X831916Y1199739D01*
X831848Y1199809D01*
X831783Y1199883D01*
X831720Y1199959D01*
X831661Y1200037D01*
X831605Y1200117D01*
X831552Y1200200D01*
X831503Y1200284D01*
X831456Y1200371D01*
X831413Y1200459D01*
X831374Y1200549D01*
X831338Y1200640D01*
X831306Y1200733D01*
X831278Y1200827D01*
X831253Y1200922D01*
X831232Y1201018D01*
X831215Y1201114D01*
X831201Y1201211D01*
X831192Y1201309D01*
X831186Y1201407D01*
X831184Y1201505D01*
X831184Y1206500D01*
X831186Y1206598D01*
X831192Y1206696D01*
X831201Y1206794D01*
X831215Y1206891D01*
X831232Y1206987D01*
X831253Y1207083D01*
X831278Y1207178D01*
X831306Y1207272D01*
X831338Y1207365D01*
X831374Y1207456D01*
X831413Y1207546D01*
X831456Y1207634D01*
X831503Y1207721D01*
X831552Y1207805D01*
X831605Y1207888D01*
X831661Y1207968D01*
X831720Y1208047D01*
X831783Y1208122D01*
X831848Y1208196D01*
X831916Y1208266D01*
X831986Y1208334D01*
X832060Y1208400D01*
X832136Y1208462D01*
X832214Y1208521D01*
X832294Y1208577D01*
X832377Y1208630D01*
X832461Y1208680D01*
X832548Y1208726D01*
X832636Y1208769D01*
X832726Y1208808D01*
X832817Y1208844D01*
X832910Y1208876D01*
X833004Y1208904D01*
X833099Y1208929D01*
X833195Y1208950D01*
X833291Y1208967D01*
X833388Y1208981D01*
X833486Y1208990D01*
X833584Y1208996D01*
X833682Y1208998D01*
X837012Y1208998D01*
X843142Y1205667D02*
X843142Y1202337D01*
X843142Y1205667D02*
X843144Y1205781D01*
X843150Y1205894D01*
X843159Y1206008D01*
X843173Y1206120D01*
X843190Y1206233D01*
X843212Y1206345D01*
X843237Y1206455D01*
X843265Y1206565D01*
X843298Y1206674D01*
X843334Y1206782D01*
X843374Y1206889D01*
X843418Y1206994D01*
X843465Y1207097D01*
X843515Y1207199D01*
X843569Y1207299D01*
X843627Y1207397D01*
X843688Y1207493D01*
X843751Y1207587D01*
X843819Y1207679D01*
X843889Y1207769D01*
X843962Y1207855D01*
X844038Y1207940D01*
X844117Y1208022D01*
X844199Y1208101D01*
X844284Y1208177D01*
X844370Y1208250D01*
X844460Y1208320D01*
X844552Y1208388D01*
X844646Y1208451D01*
X844742Y1208512D01*
X844840Y1208570D01*
X844940Y1208624D01*
X845042Y1208674D01*
X845145Y1208721D01*
X845250Y1208765D01*
X845357Y1208805D01*
X845465Y1208841D01*
X845574Y1208874D01*
X845684Y1208902D01*
X845794Y1208927D01*
X845906Y1208949D01*
X846019Y1208966D01*
X846131Y1208980D01*
X846245Y1208989D01*
X846358Y1208995D01*
X846472Y1208997D01*
X846586Y1208995D01*
X846699Y1208989D01*
X846813Y1208980D01*
X846925Y1208966D01*
X847038Y1208949D01*
X847150Y1208927D01*
X847260Y1208902D01*
X847370Y1208874D01*
X847479Y1208841D01*
X847587Y1208805D01*
X847694Y1208765D01*
X847799Y1208721D01*
X847902Y1208674D01*
X848004Y1208624D01*
X848104Y1208570D01*
X848202Y1208512D01*
X848298Y1208451D01*
X848392Y1208388D01*
X848484Y1208320D01*
X848574Y1208250D01*
X848660Y1208177D01*
X848745Y1208101D01*
X848827Y1208022D01*
X848906Y1207940D01*
X848982Y1207855D01*
X849055Y1207769D01*
X849125Y1207679D01*
X849193Y1207587D01*
X849256Y1207493D01*
X849317Y1207397D01*
X849375Y1207299D01*
X849429Y1207199D01*
X849479Y1207097D01*
X849526Y1206994D01*
X849570Y1206889D01*
X849610Y1206782D01*
X849646Y1206674D01*
X849679Y1206565D01*
X849707Y1206455D01*
X849732Y1206345D01*
X849754Y1206233D01*
X849771Y1206120D01*
X849785Y1206008D01*
X849794Y1205894D01*
X849800Y1205781D01*
X849802Y1205667D01*
X849802Y1202337D01*
X849800Y1202223D01*
X849794Y1202110D01*
X849785Y1201996D01*
X849771Y1201884D01*
X849754Y1201771D01*
X849732Y1201659D01*
X849707Y1201549D01*
X849679Y1201439D01*
X849646Y1201330D01*
X849610Y1201222D01*
X849570Y1201115D01*
X849526Y1201010D01*
X849479Y1200907D01*
X849429Y1200805D01*
X849375Y1200705D01*
X849317Y1200607D01*
X849256Y1200511D01*
X849193Y1200417D01*
X849125Y1200325D01*
X849055Y1200235D01*
X848982Y1200149D01*
X848906Y1200064D01*
X848827Y1199982D01*
X848745Y1199903D01*
X848660Y1199827D01*
X848574Y1199754D01*
X848484Y1199684D01*
X848392Y1199616D01*
X848298Y1199553D01*
X848202Y1199492D01*
X848104Y1199434D01*
X848004Y1199380D01*
X847902Y1199330D01*
X847799Y1199283D01*
X847694Y1199239D01*
X847587Y1199199D01*
X847479Y1199163D01*
X847370Y1199130D01*
X847260Y1199102D01*
X847150Y1199077D01*
X847038Y1199055D01*
X846925Y1199038D01*
X846813Y1199024D01*
X846699Y1199015D01*
X846586Y1199009D01*
X846472Y1199007D01*
X846358Y1199009D01*
X846245Y1199015D01*
X846131Y1199024D01*
X846019Y1199038D01*
X845906Y1199055D01*
X845794Y1199077D01*
X845684Y1199102D01*
X845574Y1199130D01*
X845465Y1199163D01*
X845357Y1199199D01*
X845250Y1199239D01*
X845145Y1199283D01*
X845042Y1199330D01*
X844940Y1199380D01*
X844840Y1199434D01*
X844742Y1199492D01*
X844646Y1199553D01*
X844552Y1199616D01*
X844460Y1199684D01*
X844370Y1199754D01*
X844284Y1199827D01*
X844199Y1199903D01*
X844117Y1199982D01*
X844038Y1200064D01*
X843962Y1200149D01*
X843889Y1200235D01*
X843819Y1200325D01*
X843751Y1200417D01*
X843688Y1200511D01*
X843627Y1200607D01*
X843569Y1200705D01*
X843515Y1200805D01*
X843465Y1200907D01*
X843418Y1201010D01*
X843374Y1201115D01*
X843334Y1201222D01*
X843298Y1201330D01*
X843265Y1201439D01*
X843237Y1201549D01*
X843212Y1201659D01*
X843190Y1201771D01*
X843173Y1201884D01*
X843159Y1201996D01*
X843150Y1202110D01*
X843144Y1202223D01*
X843142Y1202337D01*
X857338Y1199007D02*
X857338Y1208998D01*
X862333Y1208998D01*
X862333Y1207333D01*
X870128Y1199007D02*
X874291Y1199007D01*
X870128Y1199007D02*
X870030Y1199009D01*
X869932Y1199015D01*
X869834Y1199024D01*
X869737Y1199038D01*
X869641Y1199055D01*
X869545Y1199076D01*
X869450Y1199101D01*
X869356Y1199129D01*
X869263Y1199161D01*
X869172Y1199197D01*
X869082Y1199236D01*
X868994Y1199279D01*
X868907Y1199326D01*
X868823Y1199375D01*
X868740Y1199428D01*
X868660Y1199484D01*
X868582Y1199543D01*
X868506Y1199606D01*
X868432Y1199671D01*
X868362Y1199739D01*
X868294Y1199809D01*
X868229Y1199883D01*
X868166Y1199959D01*
X868107Y1200037D01*
X868051Y1200117D01*
X867998Y1200200D01*
X867949Y1200284D01*
X867902Y1200371D01*
X867859Y1200459D01*
X867820Y1200549D01*
X867784Y1200640D01*
X867752Y1200733D01*
X867724Y1200827D01*
X867699Y1200922D01*
X867678Y1201018D01*
X867661Y1201114D01*
X867647Y1201211D01*
X867638Y1201309D01*
X867632Y1201407D01*
X867630Y1201505D01*
X867630Y1205667D01*
X867631Y1205667D02*
X867633Y1205781D01*
X867639Y1205894D01*
X867648Y1206008D01*
X867662Y1206120D01*
X867679Y1206233D01*
X867701Y1206345D01*
X867726Y1206455D01*
X867754Y1206565D01*
X867787Y1206674D01*
X867823Y1206782D01*
X867863Y1206889D01*
X867907Y1206994D01*
X867954Y1207097D01*
X868004Y1207199D01*
X868058Y1207299D01*
X868116Y1207397D01*
X868177Y1207493D01*
X868240Y1207587D01*
X868308Y1207679D01*
X868378Y1207769D01*
X868451Y1207855D01*
X868527Y1207940D01*
X868606Y1208022D01*
X868688Y1208101D01*
X868773Y1208177D01*
X868859Y1208250D01*
X868949Y1208320D01*
X869041Y1208388D01*
X869135Y1208451D01*
X869231Y1208512D01*
X869329Y1208570D01*
X869429Y1208624D01*
X869531Y1208674D01*
X869634Y1208721D01*
X869739Y1208765D01*
X869846Y1208805D01*
X869954Y1208841D01*
X870063Y1208874D01*
X870173Y1208902D01*
X870283Y1208927D01*
X870395Y1208949D01*
X870508Y1208966D01*
X870620Y1208980D01*
X870734Y1208989D01*
X870847Y1208995D01*
X870961Y1208997D01*
X871075Y1208995D01*
X871188Y1208989D01*
X871302Y1208980D01*
X871414Y1208966D01*
X871527Y1208949D01*
X871639Y1208927D01*
X871749Y1208902D01*
X871859Y1208874D01*
X871968Y1208841D01*
X872076Y1208805D01*
X872183Y1208765D01*
X872288Y1208721D01*
X872391Y1208674D01*
X872493Y1208624D01*
X872593Y1208570D01*
X872691Y1208512D01*
X872787Y1208451D01*
X872881Y1208388D01*
X872973Y1208320D01*
X873063Y1208250D01*
X873149Y1208177D01*
X873234Y1208101D01*
X873316Y1208022D01*
X873395Y1207940D01*
X873471Y1207855D01*
X873544Y1207769D01*
X873614Y1207679D01*
X873682Y1207587D01*
X873745Y1207493D01*
X873806Y1207397D01*
X873864Y1207299D01*
X873918Y1207199D01*
X873968Y1207097D01*
X874015Y1206994D01*
X874059Y1206889D01*
X874099Y1206782D01*
X874135Y1206674D01*
X874168Y1206565D01*
X874196Y1206455D01*
X874221Y1206345D01*
X874243Y1206233D01*
X874260Y1206120D01*
X874274Y1206008D01*
X874283Y1205894D01*
X874289Y1205781D01*
X874291Y1205667D01*
X874291Y1204002D01*
X867630Y1204002D01*
D11*
X1038860Y1183640D02*
X1038860Y-68580D01*
D12*
X998479Y1199007D02*
X995149Y1208998D01*
X1001810Y1208998D02*
X998479Y1199007D01*
X1008594Y1204835D02*
X1018585Y1204835D01*
X1027139Y1204835D02*
X1031302Y1203170D01*
X1027139Y1204834D02*
X1027054Y1204870D01*
X1026971Y1204910D01*
X1026890Y1204953D01*
X1026810Y1205000D01*
X1026733Y1205050D01*
X1026657Y1205103D01*
X1026584Y1205159D01*
X1026514Y1205219D01*
X1026446Y1205281D01*
X1026381Y1205346D01*
X1026319Y1205414D01*
X1026259Y1205485D01*
X1026203Y1205558D01*
X1026150Y1205633D01*
X1026100Y1205711D01*
X1026054Y1205790D01*
X1026011Y1205872D01*
X1025971Y1205955D01*
X1025935Y1206040D01*
X1025903Y1206126D01*
X1025874Y1206214D01*
X1025850Y1206303D01*
X1025829Y1206393D01*
X1025812Y1206483D01*
X1025798Y1206574D01*
X1025789Y1206666D01*
X1025784Y1206758D01*
X1025782Y1206850D01*
X1025784Y1206942D01*
X1025791Y1207034D01*
X1025801Y1207126D01*
X1025815Y1207217D01*
X1025833Y1207308D01*
X1025855Y1207397D01*
X1025881Y1207486D01*
X1025911Y1207573D01*
X1025944Y1207659D01*
X1025981Y1207743D01*
X1026021Y1207826D01*
X1026065Y1207907D01*
X1026112Y1207986D01*
X1026163Y1208063D01*
X1026217Y1208138D01*
X1026274Y1208211D01*
X1026334Y1208281D01*
X1026397Y1208348D01*
X1026463Y1208412D01*
X1026531Y1208474D01*
X1026602Y1208533D01*
X1026676Y1208588D01*
X1026752Y1208641D01*
X1026830Y1208690D01*
X1026910Y1208736D01*
X1026991Y1208778D01*
X1027075Y1208817D01*
X1027160Y1208852D01*
X1027247Y1208883D01*
X1027335Y1208911D01*
X1027424Y1208935D01*
X1027514Y1208955D01*
X1027604Y1208972D01*
X1027696Y1208984D01*
X1027788Y1208993D01*
X1027880Y1208997D01*
X1027972Y1208998D01*
X1028199Y1208992D01*
X1028426Y1208981D01*
X1028653Y1208964D01*
X1028879Y1208941D01*
X1029105Y1208914D01*
X1029330Y1208880D01*
X1029554Y1208842D01*
X1029777Y1208798D01*
X1029999Y1208749D01*
X1030220Y1208694D01*
X1030439Y1208634D01*
X1030657Y1208569D01*
X1030873Y1208498D01*
X1031087Y1208423D01*
X1031300Y1208342D01*
X1031510Y1208256D01*
X1031719Y1208165D01*
X1031302Y1203170D02*
X1031387Y1203134D01*
X1031470Y1203094D01*
X1031551Y1203051D01*
X1031631Y1203004D01*
X1031708Y1202954D01*
X1031784Y1202901D01*
X1031857Y1202845D01*
X1031927Y1202785D01*
X1031995Y1202723D01*
X1032060Y1202658D01*
X1032122Y1202590D01*
X1032182Y1202519D01*
X1032238Y1202446D01*
X1032291Y1202371D01*
X1032341Y1202293D01*
X1032387Y1202214D01*
X1032430Y1202132D01*
X1032470Y1202049D01*
X1032506Y1201964D01*
X1032538Y1201878D01*
X1032567Y1201790D01*
X1032591Y1201701D01*
X1032612Y1201611D01*
X1032629Y1201521D01*
X1032643Y1201430D01*
X1032652Y1201338D01*
X1032657Y1201246D01*
X1032659Y1201154D01*
X1032657Y1201062D01*
X1032650Y1200970D01*
X1032640Y1200878D01*
X1032626Y1200787D01*
X1032608Y1200696D01*
X1032586Y1200607D01*
X1032560Y1200518D01*
X1032530Y1200431D01*
X1032497Y1200345D01*
X1032460Y1200261D01*
X1032420Y1200178D01*
X1032376Y1200097D01*
X1032329Y1200018D01*
X1032278Y1199941D01*
X1032224Y1199866D01*
X1032167Y1199793D01*
X1032107Y1199723D01*
X1032044Y1199656D01*
X1031978Y1199592D01*
X1031910Y1199530D01*
X1031839Y1199471D01*
X1031765Y1199416D01*
X1031689Y1199363D01*
X1031611Y1199314D01*
X1031531Y1199268D01*
X1031450Y1199226D01*
X1031366Y1199187D01*
X1031281Y1199152D01*
X1031194Y1199121D01*
X1031106Y1199093D01*
X1031017Y1199069D01*
X1030927Y1199049D01*
X1030837Y1199032D01*
X1030745Y1199020D01*
X1030653Y1199011D01*
X1030561Y1199007D01*
X1030469Y1199006D01*
X1030469Y1199007D02*
X1030135Y1199016D01*
X1029802Y1199033D01*
X1029469Y1199057D01*
X1029136Y1199090D01*
X1028805Y1199130D01*
X1028474Y1199178D01*
X1028145Y1199234D01*
X1027817Y1199297D01*
X1027491Y1199369D01*
X1027167Y1199448D01*
X1026844Y1199534D01*
X1026524Y1199629D01*
X1026206Y1199731D01*
X1025890Y1199840D01*
X1041962Y1199007D02*
X1045292Y1199007D01*
X1041962Y1199007D02*
X1041864Y1199009D01*
X1041766Y1199015D01*
X1041668Y1199024D01*
X1041571Y1199038D01*
X1041475Y1199055D01*
X1041379Y1199076D01*
X1041284Y1199101D01*
X1041190Y1199129D01*
X1041097Y1199161D01*
X1041006Y1199197D01*
X1040916Y1199236D01*
X1040828Y1199279D01*
X1040741Y1199326D01*
X1040657Y1199375D01*
X1040574Y1199428D01*
X1040494Y1199484D01*
X1040416Y1199543D01*
X1040340Y1199606D01*
X1040266Y1199671D01*
X1040196Y1199739D01*
X1040128Y1199809D01*
X1040063Y1199883D01*
X1040000Y1199959D01*
X1039941Y1200037D01*
X1039885Y1200117D01*
X1039832Y1200200D01*
X1039783Y1200284D01*
X1039736Y1200371D01*
X1039693Y1200459D01*
X1039654Y1200549D01*
X1039618Y1200640D01*
X1039586Y1200733D01*
X1039558Y1200827D01*
X1039533Y1200922D01*
X1039512Y1201018D01*
X1039495Y1201114D01*
X1039481Y1201211D01*
X1039472Y1201309D01*
X1039466Y1201407D01*
X1039464Y1201505D01*
X1039464Y1206500D01*
X1039466Y1206598D01*
X1039472Y1206696D01*
X1039481Y1206794D01*
X1039495Y1206891D01*
X1039512Y1206987D01*
X1039533Y1207083D01*
X1039558Y1207178D01*
X1039586Y1207272D01*
X1039618Y1207365D01*
X1039654Y1207456D01*
X1039693Y1207546D01*
X1039736Y1207634D01*
X1039783Y1207721D01*
X1039832Y1207805D01*
X1039885Y1207888D01*
X1039941Y1207968D01*
X1040000Y1208047D01*
X1040063Y1208122D01*
X1040128Y1208196D01*
X1040196Y1208266D01*
X1040266Y1208334D01*
X1040340Y1208400D01*
X1040416Y1208462D01*
X1040494Y1208521D01*
X1040574Y1208577D01*
X1040657Y1208630D01*
X1040741Y1208680D01*
X1040828Y1208726D01*
X1040916Y1208769D01*
X1041006Y1208808D01*
X1041097Y1208844D01*
X1041190Y1208876D01*
X1041284Y1208904D01*
X1041379Y1208929D01*
X1041475Y1208950D01*
X1041571Y1208967D01*
X1041668Y1208981D01*
X1041766Y1208990D01*
X1041864Y1208996D01*
X1041962Y1208998D01*
X1045292Y1208998D01*
X1051422Y1205667D02*
X1051422Y1202337D01*
X1051422Y1205667D02*
X1051424Y1205781D01*
X1051430Y1205894D01*
X1051439Y1206008D01*
X1051453Y1206120D01*
X1051470Y1206233D01*
X1051492Y1206345D01*
X1051517Y1206455D01*
X1051545Y1206565D01*
X1051578Y1206674D01*
X1051614Y1206782D01*
X1051654Y1206889D01*
X1051698Y1206994D01*
X1051745Y1207097D01*
X1051795Y1207199D01*
X1051849Y1207299D01*
X1051907Y1207397D01*
X1051968Y1207493D01*
X1052031Y1207587D01*
X1052099Y1207679D01*
X1052169Y1207769D01*
X1052242Y1207855D01*
X1052318Y1207940D01*
X1052397Y1208022D01*
X1052479Y1208101D01*
X1052564Y1208177D01*
X1052650Y1208250D01*
X1052740Y1208320D01*
X1052832Y1208388D01*
X1052926Y1208451D01*
X1053022Y1208512D01*
X1053120Y1208570D01*
X1053220Y1208624D01*
X1053322Y1208674D01*
X1053425Y1208721D01*
X1053530Y1208765D01*
X1053637Y1208805D01*
X1053745Y1208841D01*
X1053854Y1208874D01*
X1053964Y1208902D01*
X1054074Y1208927D01*
X1054186Y1208949D01*
X1054299Y1208966D01*
X1054411Y1208980D01*
X1054525Y1208989D01*
X1054638Y1208995D01*
X1054752Y1208997D01*
X1054866Y1208995D01*
X1054979Y1208989D01*
X1055093Y1208980D01*
X1055205Y1208966D01*
X1055318Y1208949D01*
X1055430Y1208927D01*
X1055540Y1208902D01*
X1055650Y1208874D01*
X1055759Y1208841D01*
X1055867Y1208805D01*
X1055974Y1208765D01*
X1056079Y1208721D01*
X1056182Y1208674D01*
X1056284Y1208624D01*
X1056384Y1208570D01*
X1056482Y1208512D01*
X1056578Y1208451D01*
X1056672Y1208388D01*
X1056764Y1208320D01*
X1056854Y1208250D01*
X1056940Y1208177D01*
X1057025Y1208101D01*
X1057107Y1208022D01*
X1057186Y1207940D01*
X1057262Y1207855D01*
X1057335Y1207769D01*
X1057405Y1207679D01*
X1057473Y1207587D01*
X1057536Y1207493D01*
X1057597Y1207397D01*
X1057655Y1207299D01*
X1057709Y1207199D01*
X1057759Y1207097D01*
X1057806Y1206994D01*
X1057850Y1206889D01*
X1057890Y1206782D01*
X1057926Y1206674D01*
X1057959Y1206565D01*
X1057987Y1206455D01*
X1058012Y1206345D01*
X1058034Y1206233D01*
X1058051Y1206120D01*
X1058065Y1206008D01*
X1058074Y1205894D01*
X1058080Y1205781D01*
X1058082Y1205667D01*
X1058082Y1202337D01*
X1058080Y1202223D01*
X1058074Y1202110D01*
X1058065Y1201996D01*
X1058051Y1201884D01*
X1058034Y1201771D01*
X1058012Y1201659D01*
X1057987Y1201549D01*
X1057959Y1201439D01*
X1057926Y1201330D01*
X1057890Y1201222D01*
X1057850Y1201115D01*
X1057806Y1201010D01*
X1057759Y1200907D01*
X1057709Y1200805D01*
X1057655Y1200705D01*
X1057597Y1200607D01*
X1057536Y1200511D01*
X1057473Y1200417D01*
X1057405Y1200325D01*
X1057335Y1200235D01*
X1057262Y1200149D01*
X1057186Y1200064D01*
X1057107Y1199982D01*
X1057025Y1199903D01*
X1056940Y1199827D01*
X1056854Y1199754D01*
X1056764Y1199684D01*
X1056672Y1199616D01*
X1056578Y1199553D01*
X1056482Y1199492D01*
X1056384Y1199434D01*
X1056284Y1199380D01*
X1056182Y1199330D01*
X1056079Y1199283D01*
X1055974Y1199239D01*
X1055867Y1199199D01*
X1055759Y1199163D01*
X1055650Y1199130D01*
X1055540Y1199102D01*
X1055430Y1199077D01*
X1055318Y1199055D01*
X1055205Y1199038D01*
X1055093Y1199024D01*
X1054979Y1199015D01*
X1054866Y1199009D01*
X1054752Y1199007D01*
X1054638Y1199009D01*
X1054525Y1199015D01*
X1054411Y1199024D01*
X1054299Y1199038D01*
X1054186Y1199055D01*
X1054074Y1199077D01*
X1053964Y1199102D01*
X1053854Y1199130D01*
X1053745Y1199163D01*
X1053637Y1199199D01*
X1053530Y1199239D01*
X1053425Y1199283D01*
X1053322Y1199330D01*
X1053220Y1199380D01*
X1053120Y1199434D01*
X1053022Y1199492D01*
X1052926Y1199553D01*
X1052832Y1199616D01*
X1052740Y1199684D01*
X1052650Y1199754D01*
X1052564Y1199827D01*
X1052479Y1199903D01*
X1052397Y1199982D01*
X1052318Y1200064D01*
X1052242Y1200149D01*
X1052169Y1200235D01*
X1052099Y1200325D01*
X1052031Y1200417D01*
X1051968Y1200511D01*
X1051907Y1200607D01*
X1051849Y1200705D01*
X1051795Y1200805D01*
X1051745Y1200907D01*
X1051698Y1201010D01*
X1051654Y1201115D01*
X1051614Y1201222D01*
X1051578Y1201330D01*
X1051545Y1201439D01*
X1051517Y1201549D01*
X1051492Y1201659D01*
X1051470Y1201771D01*
X1051453Y1201884D01*
X1051439Y1201996D01*
X1051430Y1202110D01*
X1051424Y1202223D01*
X1051422Y1202337D01*
X1065618Y1199007D02*
X1065618Y1208998D01*
X1070613Y1208998D01*
X1070613Y1207333D01*
X1078408Y1199007D02*
X1082571Y1199007D01*
X1078408Y1199007D02*
X1078310Y1199009D01*
X1078212Y1199015D01*
X1078114Y1199024D01*
X1078017Y1199038D01*
X1077921Y1199055D01*
X1077825Y1199076D01*
X1077730Y1199101D01*
X1077636Y1199129D01*
X1077543Y1199161D01*
X1077452Y1199197D01*
X1077362Y1199236D01*
X1077274Y1199279D01*
X1077187Y1199326D01*
X1077103Y1199375D01*
X1077020Y1199428D01*
X1076940Y1199484D01*
X1076862Y1199543D01*
X1076786Y1199606D01*
X1076712Y1199671D01*
X1076642Y1199739D01*
X1076574Y1199809D01*
X1076509Y1199883D01*
X1076446Y1199959D01*
X1076387Y1200037D01*
X1076331Y1200117D01*
X1076278Y1200200D01*
X1076229Y1200284D01*
X1076182Y1200371D01*
X1076139Y1200459D01*
X1076100Y1200549D01*
X1076064Y1200640D01*
X1076032Y1200733D01*
X1076004Y1200827D01*
X1075979Y1200922D01*
X1075958Y1201018D01*
X1075941Y1201114D01*
X1075927Y1201211D01*
X1075918Y1201309D01*
X1075912Y1201407D01*
X1075910Y1201505D01*
X1075910Y1205667D01*
X1075911Y1205667D02*
X1075913Y1205781D01*
X1075919Y1205894D01*
X1075928Y1206008D01*
X1075942Y1206120D01*
X1075959Y1206233D01*
X1075981Y1206345D01*
X1076006Y1206455D01*
X1076034Y1206565D01*
X1076067Y1206674D01*
X1076103Y1206782D01*
X1076143Y1206889D01*
X1076187Y1206994D01*
X1076234Y1207097D01*
X1076284Y1207199D01*
X1076338Y1207299D01*
X1076396Y1207397D01*
X1076457Y1207493D01*
X1076520Y1207587D01*
X1076588Y1207679D01*
X1076658Y1207769D01*
X1076731Y1207855D01*
X1076807Y1207940D01*
X1076886Y1208022D01*
X1076968Y1208101D01*
X1077053Y1208177D01*
X1077139Y1208250D01*
X1077229Y1208320D01*
X1077321Y1208388D01*
X1077415Y1208451D01*
X1077511Y1208512D01*
X1077609Y1208570D01*
X1077709Y1208624D01*
X1077811Y1208674D01*
X1077914Y1208721D01*
X1078019Y1208765D01*
X1078126Y1208805D01*
X1078234Y1208841D01*
X1078343Y1208874D01*
X1078453Y1208902D01*
X1078563Y1208927D01*
X1078675Y1208949D01*
X1078788Y1208966D01*
X1078900Y1208980D01*
X1079014Y1208989D01*
X1079127Y1208995D01*
X1079241Y1208997D01*
X1079355Y1208995D01*
X1079468Y1208989D01*
X1079582Y1208980D01*
X1079694Y1208966D01*
X1079807Y1208949D01*
X1079919Y1208927D01*
X1080029Y1208902D01*
X1080139Y1208874D01*
X1080248Y1208841D01*
X1080356Y1208805D01*
X1080463Y1208765D01*
X1080568Y1208721D01*
X1080671Y1208674D01*
X1080773Y1208624D01*
X1080873Y1208570D01*
X1080971Y1208512D01*
X1081067Y1208451D01*
X1081161Y1208388D01*
X1081253Y1208320D01*
X1081343Y1208250D01*
X1081429Y1208177D01*
X1081514Y1208101D01*
X1081596Y1208022D01*
X1081675Y1207940D01*
X1081751Y1207855D01*
X1081824Y1207769D01*
X1081894Y1207679D01*
X1081962Y1207587D01*
X1082025Y1207493D01*
X1082086Y1207397D01*
X1082144Y1207299D01*
X1082198Y1207199D01*
X1082248Y1207097D01*
X1082295Y1206994D01*
X1082339Y1206889D01*
X1082379Y1206782D01*
X1082415Y1206674D01*
X1082448Y1206565D01*
X1082476Y1206455D01*
X1082501Y1206345D01*
X1082523Y1206233D01*
X1082540Y1206120D01*
X1082554Y1206008D01*
X1082563Y1205894D01*
X1082569Y1205781D01*
X1082571Y1205667D01*
X1082571Y1204002D01*
X1075910Y1204002D01*
D11*
X1168400Y-2540D02*
X-68580Y-2540D01*
D12*
X1200889Y-42D02*
X1204219Y-10033D01*
X1207550Y-42D01*
X1214334Y-4205D02*
X1224325Y-4205D01*
X1232879Y-4205D02*
X1237042Y-5870D01*
X1232879Y-4206D02*
X1232794Y-4170D01*
X1232711Y-4130D01*
X1232630Y-4087D01*
X1232550Y-4040D01*
X1232473Y-3990D01*
X1232397Y-3937D01*
X1232324Y-3881D01*
X1232254Y-3821D01*
X1232186Y-3759D01*
X1232121Y-3694D01*
X1232059Y-3626D01*
X1231999Y-3555D01*
X1231943Y-3482D01*
X1231890Y-3407D01*
X1231840Y-3329D01*
X1231794Y-3250D01*
X1231751Y-3168D01*
X1231711Y-3085D01*
X1231675Y-3000D01*
X1231643Y-2914D01*
X1231614Y-2826D01*
X1231590Y-2737D01*
X1231569Y-2647D01*
X1231552Y-2557D01*
X1231538Y-2466D01*
X1231529Y-2374D01*
X1231524Y-2282D01*
X1231522Y-2190D01*
X1231524Y-2098D01*
X1231531Y-2006D01*
X1231541Y-1914D01*
X1231555Y-1823D01*
X1231573Y-1732D01*
X1231595Y-1643D01*
X1231621Y-1554D01*
X1231651Y-1467D01*
X1231684Y-1381D01*
X1231721Y-1297D01*
X1231761Y-1214D01*
X1231805Y-1133D01*
X1231852Y-1054D01*
X1231903Y-977D01*
X1231957Y-902D01*
X1232014Y-829D01*
X1232074Y-759D01*
X1232137Y-692D01*
X1232203Y-628D01*
X1232271Y-566D01*
X1232342Y-507D01*
X1232416Y-452D01*
X1232492Y-399D01*
X1232570Y-350D01*
X1232650Y-304D01*
X1232731Y-262D01*
X1232815Y-223D01*
X1232900Y-188D01*
X1232987Y-157D01*
X1233075Y-129D01*
X1233164Y-105D01*
X1233254Y-85D01*
X1233344Y-68D01*
X1233436Y-56D01*
X1233528Y-47D01*
X1233620Y-43D01*
X1233712Y-42D01*
X1233939Y-48D01*
X1234166Y-59D01*
X1234393Y-76D01*
X1234619Y-99D01*
X1234845Y-126D01*
X1235070Y-160D01*
X1235294Y-198D01*
X1235517Y-242D01*
X1235739Y-291D01*
X1235960Y-346D01*
X1236179Y-406D01*
X1236397Y-471D01*
X1236613Y-542D01*
X1236827Y-617D01*
X1237040Y-698D01*
X1237250Y-784D01*
X1237459Y-875D01*
X1237042Y-5870D02*
X1237127Y-5906D01*
X1237210Y-5946D01*
X1237291Y-5989D01*
X1237371Y-6036D01*
X1237448Y-6086D01*
X1237524Y-6139D01*
X1237597Y-6195D01*
X1237667Y-6255D01*
X1237735Y-6317D01*
X1237800Y-6382D01*
X1237862Y-6450D01*
X1237922Y-6521D01*
X1237978Y-6594D01*
X1238031Y-6669D01*
X1238081Y-6747D01*
X1238127Y-6826D01*
X1238170Y-6908D01*
X1238210Y-6991D01*
X1238246Y-7076D01*
X1238278Y-7162D01*
X1238307Y-7250D01*
X1238331Y-7339D01*
X1238352Y-7429D01*
X1238369Y-7519D01*
X1238383Y-7610D01*
X1238392Y-7702D01*
X1238397Y-7794D01*
X1238399Y-7886D01*
X1238397Y-7978D01*
X1238390Y-8070D01*
X1238380Y-8162D01*
X1238366Y-8253D01*
X1238348Y-8344D01*
X1238326Y-8433D01*
X1238300Y-8522D01*
X1238270Y-8609D01*
X1238237Y-8695D01*
X1238200Y-8779D01*
X1238160Y-8862D01*
X1238116Y-8943D01*
X1238069Y-9022D01*
X1238018Y-9099D01*
X1237964Y-9174D01*
X1237907Y-9247D01*
X1237847Y-9317D01*
X1237784Y-9384D01*
X1237718Y-9448D01*
X1237650Y-9510D01*
X1237579Y-9569D01*
X1237505Y-9624D01*
X1237429Y-9677D01*
X1237351Y-9726D01*
X1237271Y-9772D01*
X1237190Y-9814D01*
X1237106Y-9853D01*
X1237021Y-9888D01*
X1236934Y-9919D01*
X1236846Y-9947D01*
X1236757Y-9971D01*
X1236667Y-9991D01*
X1236577Y-10008D01*
X1236485Y-10020D01*
X1236393Y-10029D01*
X1236301Y-10033D01*
X1236209Y-10034D01*
X1236209Y-10033D02*
X1235875Y-10024D01*
X1235542Y-10007D01*
X1235209Y-9983D01*
X1234876Y-9950D01*
X1234545Y-9910D01*
X1234214Y-9862D01*
X1233885Y-9806D01*
X1233557Y-9743D01*
X1233231Y-9671D01*
X1232907Y-9592D01*
X1232584Y-9506D01*
X1232264Y-9411D01*
X1231946Y-9309D01*
X1231630Y-9200D01*
X1247702Y-10033D02*
X1251032Y-10033D01*
X1247702Y-10033D02*
X1247604Y-10031D01*
X1247506Y-10025D01*
X1247408Y-10016D01*
X1247311Y-10002D01*
X1247215Y-9985D01*
X1247119Y-9964D01*
X1247024Y-9939D01*
X1246930Y-9911D01*
X1246837Y-9879D01*
X1246746Y-9843D01*
X1246656Y-9804D01*
X1246568Y-9761D01*
X1246481Y-9714D01*
X1246397Y-9665D01*
X1246314Y-9612D01*
X1246234Y-9556D01*
X1246156Y-9497D01*
X1246080Y-9435D01*
X1246006Y-9369D01*
X1245936Y-9301D01*
X1245868Y-9231D01*
X1245803Y-9157D01*
X1245740Y-9082D01*
X1245681Y-9003D01*
X1245625Y-8923D01*
X1245572Y-8840D01*
X1245523Y-8756D01*
X1245476Y-8669D01*
X1245433Y-8581D01*
X1245394Y-8491D01*
X1245358Y-8400D01*
X1245326Y-8307D01*
X1245298Y-8213D01*
X1245273Y-8118D01*
X1245252Y-8022D01*
X1245235Y-7926D01*
X1245221Y-7829D01*
X1245212Y-7731D01*
X1245206Y-7633D01*
X1245204Y-7535D01*
X1245204Y-2540D01*
X1245206Y-2442D01*
X1245212Y-2344D01*
X1245221Y-2246D01*
X1245235Y-2149D01*
X1245252Y-2053D01*
X1245273Y-1957D01*
X1245298Y-1862D01*
X1245326Y-1768D01*
X1245358Y-1675D01*
X1245394Y-1584D01*
X1245433Y-1494D01*
X1245476Y-1406D01*
X1245523Y-1319D01*
X1245572Y-1235D01*
X1245625Y-1152D01*
X1245681Y-1072D01*
X1245740Y-994D01*
X1245803Y-918D01*
X1245868Y-844D01*
X1245936Y-774D01*
X1246006Y-706D01*
X1246080Y-641D01*
X1246156Y-578D01*
X1246234Y-519D01*
X1246314Y-463D01*
X1246397Y-410D01*
X1246481Y-361D01*
X1246568Y-314D01*
X1246656Y-271D01*
X1246746Y-232D01*
X1246837Y-196D01*
X1246930Y-164D01*
X1247024Y-136D01*
X1247119Y-111D01*
X1247215Y-90D01*
X1247311Y-73D01*
X1247408Y-59D01*
X1247506Y-50D01*
X1247604Y-44D01*
X1247702Y-42D01*
X1251032Y-42D01*
X1257162Y-3373D02*
X1257162Y-6703D01*
X1257162Y-3373D02*
X1257164Y-3259D01*
X1257170Y-3146D01*
X1257179Y-3032D01*
X1257193Y-2920D01*
X1257210Y-2807D01*
X1257232Y-2695D01*
X1257257Y-2585D01*
X1257285Y-2475D01*
X1257318Y-2366D01*
X1257354Y-2258D01*
X1257394Y-2151D01*
X1257438Y-2046D01*
X1257485Y-1943D01*
X1257535Y-1841D01*
X1257589Y-1741D01*
X1257647Y-1643D01*
X1257708Y-1547D01*
X1257771Y-1453D01*
X1257839Y-1361D01*
X1257909Y-1271D01*
X1257982Y-1185D01*
X1258058Y-1100D01*
X1258137Y-1018D01*
X1258219Y-939D01*
X1258304Y-863D01*
X1258390Y-790D01*
X1258480Y-720D01*
X1258572Y-652D01*
X1258666Y-589D01*
X1258762Y-528D01*
X1258860Y-470D01*
X1258960Y-416D01*
X1259062Y-366D01*
X1259165Y-319D01*
X1259270Y-275D01*
X1259377Y-235D01*
X1259485Y-199D01*
X1259594Y-166D01*
X1259704Y-138D01*
X1259814Y-113D01*
X1259926Y-91D01*
X1260039Y-74D01*
X1260151Y-60D01*
X1260265Y-51D01*
X1260378Y-45D01*
X1260492Y-43D01*
X1260606Y-45D01*
X1260719Y-51D01*
X1260833Y-60D01*
X1260945Y-74D01*
X1261058Y-91D01*
X1261170Y-113D01*
X1261280Y-138D01*
X1261390Y-166D01*
X1261499Y-199D01*
X1261607Y-235D01*
X1261714Y-275D01*
X1261819Y-319D01*
X1261922Y-366D01*
X1262024Y-416D01*
X1262124Y-470D01*
X1262222Y-528D01*
X1262318Y-589D01*
X1262412Y-652D01*
X1262504Y-720D01*
X1262594Y-790D01*
X1262680Y-863D01*
X1262765Y-939D01*
X1262847Y-1018D01*
X1262926Y-1100D01*
X1263002Y-1185D01*
X1263075Y-1271D01*
X1263145Y-1361D01*
X1263213Y-1453D01*
X1263276Y-1547D01*
X1263337Y-1643D01*
X1263395Y-1741D01*
X1263449Y-1841D01*
X1263499Y-1943D01*
X1263546Y-2046D01*
X1263590Y-2151D01*
X1263630Y-2258D01*
X1263666Y-2366D01*
X1263699Y-2475D01*
X1263727Y-2585D01*
X1263752Y-2695D01*
X1263774Y-2807D01*
X1263791Y-2920D01*
X1263805Y-3032D01*
X1263814Y-3146D01*
X1263820Y-3259D01*
X1263822Y-3373D01*
X1263822Y-6703D01*
X1263820Y-6817D01*
X1263814Y-6930D01*
X1263805Y-7044D01*
X1263791Y-7156D01*
X1263774Y-7269D01*
X1263752Y-7381D01*
X1263727Y-7491D01*
X1263699Y-7601D01*
X1263666Y-7710D01*
X1263630Y-7818D01*
X1263590Y-7925D01*
X1263546Y-8030D01*
X1263499Y-8133D01*
X1263449Y-8235D01*
X1263395Y-8335D01*
X1263337Y-8433D01*
X1263276Y-8529D01*
X1263213Y-8623D01*
X1263145Y-8715D01*
X1263075Y-8805D01*
X1263002Y-8891D01*
X1262926Y-8976D01*
X1262847Y-9058D01*
X1262765Y-9137D01*
X1262680Y-9213D01*
X1262594Y-9286D01*
X1262504Y-9356D01*
X1262412Y-9424D01*
X1262318Y-9487D01*
X1262222Y-9548D01*
X1262124Y-9606D01*
X1262024Y-9660D01*
X1261922Y-9710D01*
X1261819Y-9757D01*
X1261714Y-9801D01*
X1261607Y-9841D01*
X1261499Y-9877D01*
X1261390Y-9910D01*
X1261280Y-9938D01*
X1261170Y-9963D01*
X1261058Y-9985D01*
X1260945Y-10002D01*
X1260833Y-10016D01*
X1260719Y-10025D01*
X1260606Y-10031D01*
X1260492Y-10033D01*
X1260378Y-10031D01*
X1260265Y-10025D01*
X1260151Y-10016D01*
X1260039Y-10002D01*
X1259926Y-9985D01*
X1259814Y-9963D01*
X1259704Y-9938D01*
X1259594Y-9910D01*
X1259485Y-9877D01*
X1259377Y-9841D01*
X1259270Y-9801D01*
X1259165Y-9757D01*
X1259062Y-9710D01*
X1258960Y-9660D01*
X1258860Y-9606D01*
X1258762Y-9548D01*
X1258666Y-9487D01*
X1258572Y-9424D01*
X1258480Y-9356D01*
X1258390Y-9286D01*
X1258304Y-9213D01*
X1258219Y-9137D01*
X1258137Y-9058D01*
X1258058Y-8976D01*
X1257982Y-8891D01*
X1257909Y-8805D01*
X1257839Y-8715D01*
X1257771Y-8623D01*
X1257708Y-8529D01*
X1257647Y-8433D01*
X1257589Y-8335D01*
X1257535Y-8235D01*
X1257485Y-8133D01*
X1257438Y-8030D01*
X1257394Y-7925D01*
X1257354Y-7818D01*
X1257318Y-7710D01*
X1257285Y-7601D01*
X1257257Y-7491D01*
X1257232Y-7381D01*
X1257210Y-7269D01*
X1257193Y-7156D01*
X1257179Y-7044D01*
X1257170Y-6930D01*
X1257164Y-6817D01*
X1257162Y-6703D01*
X1271358Y-10033D02*
X1271358Y-42D01*
X1276353Y-42D01*
X1276353Y-1707D01*
X1284148Y-10033D02*
X1288311Y-10033D01*
X1284148Y-10033D02*
X1284050Y-10031D01*
X1283952Y-10025D01*
X1283854Y-10016D01*
X1283757Y-10002D01*
X1283661Y-9985D01*
X1283565Y-9964D01*
X1283470Y-9939D01*
X1283376Y-9911D01*
X1283283Y-9879D01*
X1283192Y-9843D01*
X1283102Y-9804D01*
X1283014Y-9761D01*
X1282927Y-9714D01*
X1282843Y-9665D01*
X1282760Y-9612D01*
X1282680Y-9556D01*
X1282602Y-9497D01*
X1282526Y-9435D01*
X1282452Y-9369D01*
X1282382Y-9301D01*
X1282314Y-9231D01*
X1282249Y-9157D01*
X1282186Y-9082D01*
X1282127Y-9003D01*
X1282071Y-8923D01*
X1282018Y-8840D01*
X1281969Y-8756D01*
X1281922Y-8669D01*
X1281879Y-8581D01*
X1281840Y-8491D01*
X1281804Y-8400D01*
X1281772Y-8307D01*
X1281744Y-8213D01*
X1281719Y-8118D01*
X1281698Y-8022D01*
X1281681Y-7926D01*
X1281667Y-7829D01*
X1281658Y-7731D01*
X1281652Y-7633D01*
X1281650Y-7535D01*
X1281650Y-3373D01*
X1281651Y-3373D02*
X1281653Y-3259D01*
X1281659Y-3146D01*
X1281668Y-3032D01*
X1281682Y-2920D01*
X1281699Y-2807D01*
X1281721Y-2695D01*
X1281746Y-2585D01*
X1281774Y-2475D01*
X1281807Y-2366D01*
X1281843Y-2258D01*
X1281883Y-2151D01*
X1281927Y-2046D01*
X1281974Y-1943D01*
X1282024Y-1841D01*
X1282078Y-1741D01*
X1282136Y-1643D01*
X1282197Y-1547D01*
X1282260Y-1453D01*
X1282328Y-1361D01*
X1282398Y-1271D01*
X1282471Y-1185D01*
X1282547Y-1100D01*
X1282626Y-1018D01*
X1282708Y-939D01*
X1282793Y-863D01*
X1282879Y-790D01*
X1282969Y-720D01*
X1283061Y-652D01*
X1283155Y-589D01*
X1283251Y-528D01*
X1283349Y-470D01*
X1283449Y-416D01*
X1283551Y-366D01*
X1283654Y-319D01*
X1283759Y-275D01*
X1283866Y-235D01*
X1283974Y-199D01*
X1284083Y-166D01*
X1284193Y-138D01*
X1284303Y-113D01*
X1284415Y-91D01*
X1284528Y-74D01*
X1284640Y-60D01*
X1284754Y-51D01*
X1284867Y-45D01*
X1284981Y-43D01*
X1285095Y-45D01*
X1285208Y-51D01*
X1285322Y-60D01*
X1285434Y-74D01*
X1285547Y-91D01*
X1285659Y-113D01*
X1285769Y-138D01*
X1285879Y-166D01*
X1285988Y-199D01*
X1286096Y-235D01*
X1286203Y-275D01*
X1286308Y-319D01*
X1286411Y-366D01*
X1286513Y-416D01*
X1286613Y-470D01*
X1286711Y-528D01*
X1286807Y-589D01*
X1286901Y-652D01*
X1286993Y-720D01*
X1287083Y-790D01*
X1287169Y-863D01*
X1287254Y-939D01*
X1287336Y-1018D01*
X1287415Y-1100D01*
X1287491Y-1185D01*
X1287564Y-1271D01*
X1287634Y-1361D01*
X1287702Y-1453D01*
X1287765Y-1547D01*
X1287826Y-1643D01*
X1287884Y-1741D01*
X1287938Y-1841D01*
X1287988Y-1943D01*
X1288035Y-2046D01*
X1288079Y-2151D01*
X1288119Y-2258D01*
X1288155Y-2366D01*
X1288188Y-2475D01*
X1288216Y-2585D01*
X1288241Y-2695D01*
X1288263Y-2807D01*
X1288280Y-2920D01*
X1288294Y-3032D01*
X1288303Y-3146D01*
X1288309Y-3259D01*
X1288311Y-3373D01*
X1288311Y-5038D01*
X1281650Y-5038D01*
D11*
X1168400Y129540D02*
X-68580Y129540D01*
D12*
X1200889Y132038D02*
X1204219Y122047D01*
X1207550Y132038D01*
X1214334Y127875D02*
X1224325Y127875D01*
X1232879Y127875D02*
X1237042Y126210D01*
X1232879Y127874D02*
X1232794Y127910D01*
X1232711Y127950D01*
X1232630Y127993D01*
X1232550Y128040D01*
X1232473Y128090D01*
X1232397Y128143D01*
X1232324Y128199D01*
X1232254Y128259D01*
X1232186Y128321D01*
X1232121Y128386D01*
X1232059Y128454D01*
X1231999Y128525D01*
X1231943Y128598D01*
X1231890Y128673D01*
X1231840Y128751D01*
X1231794Y128830D01*
X1231751Y128912D01*
X1231711Y128995D01*
X1231675Y129080D01*
X1231643Y129166D01*
X1231614Y129254D01*
X1231590Y129343D01*
X1231569Y129433D01*
X1231552Y129523D01*
X1231538Y129614D01*
X1231529Y129706D01*
X1231524Y129798D01*
X1231522Y129890D01*
X1231524Y129982D01*
X1231531Y130074D01*
X1231541Y130166D01*
X1231555Y130257D01*
X1231573Y130348D01*
X1231595Y130437D01*
X1231621Y130526D01*
X1231651Y130613D01*
X1231684Y130699D01*
X1231721Y130783D01*
X1231761Y130866D01*
X1231805Y130947D01*
X1231852Y131026D01*
X1231903Y131103D01*
X1231957Y131178D01*
X1232014Y131251D01*
X1232074Y131321D01*
X1232137Y131388D01*
X1232203Y131452D01*
X1232271Y131514D01*
X1232342Y131573D01*
X1232416Y131628D01*
X1232492Y131681D01*
X1232570Y131730D01*
X1232650Y131776D01*
X1232731Y131818D01*
X1232815Y131857D01*
X1232900Y131892D01*
X1232987Y131923D01*
X1233075Y131951D01*
X1233164Y131975D01*
X1233254Y131995D01*
X1233344Y132012D01*
X1233436Y132024D01*
X1233528Y132033D01*
X1233620Y132037D01*
X1233712Y132038D01*
X1233939Y132032D01*
X1234166Y132021D01*
X1234393Y132004D01*
X1234619Y131981D01*
X1234845Y131954D01*
X1235070Y131920D01*
X1235294Y131882D01*
X1235517Y131838D01*
X1235739Y131789D01*
X1235960Y131734D01*
X1236179Y131674D01*
X1236397Y131609D01*
X1236613Y131538D01*
X1236827Y131463D01*
X1237040Y131382D01*
X1237250Y131296D01*
X1237459Y131205D01*
X1237042Y126210D02*
X1237127Y126174D01*
X1237210Y126134D01*
X1237291Y126091D01*
X1237371Y126044D01*
X1237448Y125994D01*
X1237524Y125941D01*
X1237597Y125885D01*
X1237667Y125825D01*
X1237735Y125763D01*
X1237800Y125698D01*
X1237862Y125630D01*
X1237922Y125559D01*
X1237978Y125486D01*
X1238031Y125411D01*
X1238081Y125333D01*
X1238127Y125254D01*
X1238170Y125172D01*
X1238210Y125089D01*
X1238246Y125004D01*
X1238278Y124918D01*
X1238307Y124830D01*
X1238331Y124741D01*
X1238352Y124651D01*
X1238369Y124561D01*
X1238383Y124470D01*
X1238392Y124378D01*
X1238397Y124286D01*
X1238399Y124194D01*
X1238397Y124102D01*
X1238390Y124010D01*
X1238380Y123918D01*
X1238366Y123827D01*
X1238348Y123736D01*
X1238326Y123647D01*
X1238300Y123558D01*
X1238270Y123471D01*
X1238237Y123385D01*
X1238200Y123301D01*
X1238160Y123218D01*
X1238116Y123137D01*
X1238069Y123058D01*
X1238018Y122981D01*
X1237964Y122906D01*
X1237907Y122833D01*
X1237847Y122763D01*
X1237784Y122696D01*
X1237718Y122632D01*
X1237650Y122570D01*
X1237579Y122511D01*
X1237505Y122456D01*
X1237429Y122403D01*
X1237351Y122354D01*
X1237271Y122308D01*
X1237190Y122266D01*
X1237106Y122227D01*
X1237021Y122192D01*
X1236934Y122161D01*
X1236846Y122133D01*
X1236757Y122109D01*
X1236667Y122089D01*
X1236577Y122072D01*
X1236485Y122060D01*
X1236393Y122051D01*
X1236301Y122047D01*
X1236209Y122046D01*
X1236209Y122047D02*
X1235875Y122056D01*
X1235542Y122073D01*
X1235209Y122097D01*
X1234876Y122130D01*
X1234545Y122170D01*
X1234214Y122218D01*
X1233885Y122274D01*
X1233557Y122337D01*
X1233231Y122409D01*
X1232907Y122488D01*
X1232584Y122574D01*
X1232264Y122669D01*
X1231946Y122771D01*
X1231630Y122880D01*
X1247702Y122047D02*
X1251032Y122047D01*
X1247702Y122047D02*
X1247604Y122049D01*
X1247506Y122055D01*
X1247408Y122064D01*
X1247311Y122078D01*
X1247215Y122095D01*
X1247119Y122116D01*
X1247024Y122141D01*
X1246930Y122169D01*
X1246837Y122201D01*
X1246746Y122237D01*
X1246656Y122276D01*
X1246568Y122319D01*
X1246481Y122366D01*
X1246397Y122415D01*
X1246314Y122468D01*
X1246234Y122524D01*
X1246156Y122583D01*
X1246080Y122646D01*
X1246006Y122711D01*
X1245936Y122779D01*
X1245868Y122849D01*
X1245803Y122923D01*
X1245740Y122999D01*
X1245681Y123077D01*
X1245625Y123157D01*
X1245572Y123240D01*
X1245523Y123324D01*
X1245476Y123411D01*
X1245433Y123499D01*
X1245394Y123589D01*
X1245358Y123680D01*
X1245326Y123773D01*
X1245298Y123867D01*
X1245273Y123962D01*
X1245252Y124058D01*
X1245235Y124154D01*
X1245221Y124251D01*
X1245212Y124349D01*
X1245206Y124447D01*
X1245204Y124545D01*
X1245204Y129540D01*
X1245206Y129638D01*
X1245212Y129736D01*
X1245221Y129834D01*
X1245235Y129931D01*
X1245252Y130027D01*
X1245273Y130123D01*
X1245298Y130218D01*
X1245326Y130312D01*
X1245358Y130405D01*
X1245394Y130496D01*
X1245433Y130586D01*
X1245476Y130674D01*
X1245523Y130761D01*
X1245572Y130845D01*
X1245625Y130928D01*
X1245681Y131008D01*
X1245740Y131087D01*
X1245803Y131162D01*
X1245868Y131236D01*
X1245936Y131306D01*
X1246006Y131374D01*
X1246080Y131440D01*
X1246156Y131502D01*
X1246234Y131561D01*
X1246314Y131617D01*
X1246397Y131670D01*
X1246481Y131720D01*
X1246568Y131766D01*
X1246656Y131809D01*
X1246746Y131848D01*
X1246837Y131884D01*
X1246930Y131916D01*
X1247024Y131944D01*
X1247119Y131969D01*
X1247215Y131990D01*
X1247311Y132007D01*
X1247408Y132021D01*
X1247506Y132030D01*
X1247604Y132036D01*
X1247702Y132038D01*
X1251032Y132038D01*
X1257162Y128707D02*
X1257162Y125377D01*
X1257162Y128707D02*
X1257164Y128821D01*
X1257170Y128934D01*
X1257179Y129048D01*
X1257193Y129160D01*
X1257210Y129273D01*
X1257232Y129385D01*
X1257257Y129495D01*
X1257285Y129605D01*
X1257318Y129714D01*
X1257354Y129822D01*
X1257394Y129929D01*
X1257438Y130034D01*
X1257485Y130137D01*
X1257535Y130239D01*
X1257589Y130339D01*
X1257647Y130437D01*
X1257708Y130533D01*
X1257771Y130627D01*
X1257839Y130719D01*
X1257909Y130809D01*
X1257982Y130895D01*
X1258058Y130980D01*
X1258137Y131062D01*
X1258219Y131141D01*
X1258304Y131217D01*
X1258390Y131290D01*
X1258480Y131360D01*
X1258572Y131428D01*
X1258666Y131491D01*
X1258762Y131552D01*
X1258860Y131610D01*
X1258960Y131664D01*
X1259062Y131714D01*
X1259165Y131761D01*
X1259270Y131805D01*
X1259377Y131845D01*
X1259485Y131881D01*
X1259594Y131914D01*
X1259704Y131942D01*
X1259814Y131967D01*
X1259926Y131989D01*
X1260039Y132006D01*
X1260151Y132020D01*
X1260265Y132029D01*
X1260378Y132035D01*
X1260492Y132037D01*
X1260606Y132035D01*
X1260719Y132029D01*
X1260833Y132020D01*
X1260945Y132006D01*
X1261058Y131989D01*
X1261170Y131967D01*
X1261280Y131942D01*
X1261390Y131914D01*
X1261499Y131881D01*
X1261607Y131845D01*
X1261714Y131805D01*
X1261819Y131761D01*
X1261922Y131714D01*
X1262024Y131664D01*
X1262124Y131610D01*
X1262222Y131552D01*
X1262318Y131491D01*
X1262412Y131428D01*
X1262504Y131360D01*
X1262594Y131290D01*
X1262680Y131217D01*
X1262765Y131141D01*
X1262847Y131062D01*
X1262926Y130980D01*
X1263002Y130895D01*
X1263075Y130809D01*
X1263145Y130719D01*
X1263213Y130627D01*
X1263276Y130533D01*
X1263337Y130437D01*
X1263395Y130339D01*
X1263449Y130239D01*
X1263499Y130137D01*
X1263546Y130034D01*
X1263590Y129929D01*
X1263630Y129822D01*
X1263666Y129714D01*
X1263699Y129605D01*
X1263727Y129495D01*
X1263752Y129385D01*
X1263774Y129273D01*
X1263791Y129160D01*
X1263805Y129048D01*
X1263814Y128934D01*
X1263820Y128821D01*
X1263822Y128707D01*
X1263822Y125377D01*
X1263820Y125263D01*
X1263814Y125150D01*
X1263805Y125036D01*
X1263791Y124924D01*
X1263774Y124811D01*
X1263752Y124699D01*
X1263727Y124589D01*
X1263699Y124479D01*
X1263666Y124370D01*
X1263630Y124262D01*
X1263590Y124155D01*
X1263546Y124050D01*
X1263499Y123947D01*
X1263449Y123845D01*
X1263395Y123745D01*
X1263337Y123647D01*
X1263276Y123551D01*
X1263213Y123457D01*
X1263145Y123365D01*
X1263075Y123275D01*
X1263002Y123189D01*
X1262926Y123104D01*
X1262847Y123022D01*
X1262765Y122943D01*
X1262680Y122867D01*
X1262594Y122794D01*
X1262504Y122724D01*
X1262412Y122656D01*
X1262318Y122593D01*
X1262222Y122532D01*
X1262124Y122474D01*
X1262024Y122420D01*
X1261922Y122370D01*
X1261819Y122323D01*
X1261714Y122279D01*
X1261607Y122239D01*
X1261499Y122203D01*
X1261390Y122170D01*
X1261280Y122142D01*
X1261170Y122117D01*
X1261058Y122095D01*
X1260945Y122078D01*
X1260833Y122064D01*
X1260719Y122055D01*
X1260606Y122049D01*
X1260492Y122047D01*
X1260378Y122049D01*
X1260265Y122055D01*
X1260151Y122064D01*
X1260039Y122078D01*
X1259926Y122095D01*
X1259814Y122117D01*
X1259704Y122142D01*
X1259594Y122170D01*
X1259485Y122203D01*
X1259377Y122239D01*
X1259270Y122279D01*
X1259165Y122323D01*
X1259062Y122370D01*
X1258960Y122420D01*
X1258860Y122474D01*
X1258762Y122532D01*
X1258666Y122593D01*
X1258572Y122656D01*
X1258480Y122724D01*
X1258390Y122794D01*
X1258304Y122867D01*
X1258219Y122943D01*
X1258137Y123022D01*
X1258058Y123104D01*
X1257982Y123189D01*
X1257909Y123275D01*
X1257839Y123365D01*
X1257771Y123457D01*
X1257708Y123551D01*
X1257647Y123647D01*
X1257589Y123745D01*
X1257535Y123845D01*
X1257485Y123947D01*
X1257438Y124050D01*
X1257394Y124155D01*
X1257354Y124262D01*
X1257318Y124370D01*
X1257285Y124479D01*
X1257257Y124589D01*
X1257232Y124699D01*
X1257210Y124811D01*
X1257193Y124924D01*
X1257179Y125036D01*
X1257170Y125150D01*
X1257164Y125263D01*
X1257162Y125377D01*
X1271358Y122047D02*
X1271358Y132038D01*
X1276353Y132038D01*
X1276353Y130373D01*
X1284148Y122047D02*
X1288311Y122047D01*
X1284148Y122047D02*
X1284050Y122049D01*
X1283952Y122055D01*
X1283854Y122064D01*
X1283757Y122078D01*
X1283661Y122095D01*
X1283565Y122116D01*
X1283470Y122141D01*
X1283376Y122169D01*
X1283283Y122201D01*
X1283192Y122237D01*
X1283102Y122276D01*
X1283014Y122319D01*
X1282927Y122366D01*
X1282843Y122415D01*
X1282760Y122468D01*
X1282680Y122524D01*
X1282602Y122583D01*
X1282526Y122646D01*
X1282452Y122711D01*
X1282382Y122779D01*
X1282314Y122849D01*
X1282249Y122923D01*
X1282186Y122999D01*
X1282127Y123077D01*
X1282071Y123157D01*
X1282018Y123240D01*
X1281969Y123324D01*
X1281922Y123411D01*
X1281879Y123499D01*
X1281840Y123589D01*
X1281804Y123680D01*
X1281772Y123773D01*
X1281744Y123867D01*
X1281719Y123962D01*
X1281698Y124058D01*
X1281681Y124154D01*
X1281667Y124251D01*
X1281658Y124349D01*
X1281652Y124447D01*
X1281650Y124545D01*
X1281650Y128707D01*
X1281651Y128707D02*
X1281653Y128821D01*
X1281659Y128934D01*
X1281668Y129048D01*
X1281682Y129160D01*
X1281699Y129273D01*
X1281721Y129385D01*
X1281746Y129495D01*
X1281774Y129605D01*
X1281807Y129714D01*
X1281843Y129822D01*
X1281883Y129929D01*
X1281927Y130034D01*
X1281974Y130137D01*
X1282024Y130239D01*
X1282078Y130339D01*
X1282136Y130437D01*
X1282197Y130533D01*
X1282260Y130627D01*
X1282328Y130719D01*
X1282398Y130809D01*
X1282471Y130895D01*
X1282547Y130980D01*
X1282626Y131062D01*
X1282708Y131141D01*
X1282793Y131217D01*
X1282879Y131290D01*
X1282969Y131360D01*
X1283061Y131428D01*
X1283155Y131491D01*
X1283251Y131552D01*
X1283349Y131610D01*
X1283449Y131664D01*
X1283551Y131714D01*
X1283654Y131761D01*
X1283759Y131805D01*
X1283866Y131845D01*
X1283974Y131881D01*
X1284083Y131914D01*
X1284193Y131942D01*
X1284303Y131967D01*
X1284415Y131989D01*
X1284528Y132006D01*
X1284640Y132020D01*
X1284754Y132029D01*
X1284867Y132035D01*
X1284981Y132037D01*
X1285095Y132035D01*
X1285208Y132029D01*
X1285322Y132020D01*
X1285434Y132006D01*
X1285547Y131989D01*
X1285659Y131967D01*
X1285769Y131942D01*
X1285879Y131914D01*
X1285988Y131881D01*
X1286096Y131845D01*
X1286203Y131805D01*
X1286308Y131761D01*
X1286411Y131714D01*
X1286513Y131664D01*
X1286613Y131610D01*
X1286711Y131552D01*
X1286807Y131491D01*
X1286901Y131428D01*
X1286993Y131360D01*
X1287083Y131290D01*
X1287169Y131217D01*
X1287254Y131141D01*
X1287336Y131062D01*
X1287415Y130980D01*
X1287491Y130895D01*
X1287564Y130809D01*
X1287634Y130719D01*
X1287702Y130627D01*
X1287765Y130533D01*
X1287826Y130437D01*
X1287884Y130339D01*
X1287938Y130239D01*
X1287988Y130137D01*
X1288035Y130034D01*
X1288079Y129929D01*
X1288119Y129822D01*
X1288155Y129714D01*
X1288188Y129605D01*
X1288216Y129495D01*
X1288241Y129385D01*
X1288263Y129273D01*
X1288280Y129160D01*
X1288294Y129048D01*
X1288303Y128934D01*
X1288309Y128821D01*
X1288311Y128707D01*
X1288311Y127042D01*
X1281650Y127042D01*
D11*
X1168400Y261620D02*
X-68580Y261620D01*
D12*
X1200889Y264118D02*
X1204219Y254127D01*
X1207550Y264118D01*
X1214334Y259955D02*
X1224325Y259955D01*
X1232879Y259955D02*
X1237042Y258290D01*
X1232879Y259954D02*
X1232794Y259990D01*
X1232711Y260030D01*
X1232630Y260073D01*
X1232550Y260120D01*
X1232473Y260170D01*
X1232397Y260223D01*
X1232324Y260279D01*
X1232254Y260339D01*
X1232186Y260401D01*
X1232121Y260466D01*
X1232059Y260534D01*
X1231999Y260605D01*
X1231943Y260678D01*
X1231890Y260753D01*
X1231840Y260831D01*
X1231794Y260910D01*
X1231751Y260992D01*
X1231711Y261075D01*
X1231675Y261160D01*
X1231643Y261246D01*
X1231614Y261334D01*
X1231590Y261423D01*
X1231569Y261513D01*
X1231552Y261603D01*
X1231538Y261694D01*
X1231529Y261786D01*
X1231524Y261878D01*
X1231522Y261970D01*
X1231524Y262062D01*
X1231531Y262154D01*
X1231541Y262246D01*
X1231555Y262337D01*
X1231573Y262428D01*
X1231595Y262517D01*
X1231621Y262606D01*
X1231651Y262693D01*
X1231684Y262779D01*
X1231721Y262863D01*
X1231761Y262946D01*
X1231805Y263027D01*
X1231852Y263106D01*
X1231903Y263183D01*
X1231957Y263258D01*
X1232014Y263331D01*
X1232074Y263401D01*
X1232137Y263468D01*
X1232203Y263532D01*
X1232271Y263594D01*
X1232342Y263653D01*
X1232416Y263708D01*
X1232492Y263761D01*
X1232570Y263810D01*
X1232650Y263856D01*
X1232731Y263898D01*
X1232815Y263937D01*
X1232900Y263972D01*
X1232987Y264003D01*
X1233075Y264031D01*
X1233164Y264055D01*
X1233254Y264075D01*
X1233344Y264092D01*
X1233436Y264104D01*
X1233528Y264113D01*
X1233620Y264117D01*
X1233712Y264118D01*
X1233939Y264112D01*
X1234166Y264101D01*
X1234393Y264084D01*
X1234619Y264061D01*
X1234845Y264034D01*
X1235070Y264000D01*
X1235294Y263962D01*
X1235517Y263918D01*
X1235739Y263869D01*
X1235960Y263814D01*
X1236179Y263754D01*
X1236397Y263689D01*
X1236613Y263618D01*
X1236827Y263543D01*
X1237040Y263462D01*
X1237250Y263376D01*
X1237459Y263285D01*
X1237042Y258290D02*
X1237127Y258254D01*
X1237210Y258214D01*
X1237291Y258171D01*
X1237371Y258124D01*
X1237448Y258074D01*
X1237524Y258021D01*
X1237597Y257965D01*
X1237667Y257905D01*
X1237735Y257843D01*
X1237800Y257778D01*
X1237862Y257710D01*
X1237922Y257639D01*
X1237978Y257566D01*
X1238031Y257491D01*
X1238081Y257413D01*
X1238127Y257334D01*
X1238170Y257252D01*
X1238210Y257169D01*
X1238246Y257084D01*
X1238278Y256998D01*
X1238307Y256910D01*
X1238331Y256821D01*
X1238352Y256731D01*
X1238369Y256641D01*
X1238383Y256550D01*
X1238392Y256458D01*
X1238397Y256366D01*
X1238399Y256274D01*
X1238397Y256182D01*
X1238390Y256090D01*
X1238380Y255998D01*
X1238366Y255907D01*
X1238348Y255816D01*
X1238326Y255727D01*
X1238300Y255638D01*
X1238270Y255551D01*
X1238237Y255465D01*
X1238200Y255381D01*
X1238160Y255298D01*
X1238116Y255217D01*
X1238069Y255138D01*
X1238018Y255061D01*
X1237964Y254986D01*
X1237907Y254913D01*
X1237847Y254843D01*
X1237784Y254776D01*
X1237718Y254712D01*
X1237650Y254650D01*
X1237579Y254591D01*
X1237505Y254536D01*
X1237429Y254483D01*
X1237351Y254434D01*
X1237271Y254388D01*
X1237190Y254346D01*
X1237106Y254307D01*
X1237021Y254272D01*
X1236934Y254241D01*
X1236846Y254213D01*
X1236757Y254189D01*
X1236667Y254169D01*
X1236577Y254152D01*
X1236485Y254140D01*
X1236393Y254131D01*
X1236301Y254127D01*
X1236209Y254126D01*
X1236209Y254127D02*
X1235875Y254136D01*
X1235542Y254153D01*
X1235209Y254177D01*
X1234876Y254210D01*
X1234545Y254250D01*
X1234214Y254298D01*
X1233885Y254354D01*
X1233557Y254417D01*
X1233231Y254489D01*
X1232907Y254568D01*
X1232584Y254654D01*
X1232264Y254749D01*
X1231946Y254851D01*
X1231630Y254960D01*
X1247702Y254127D02*
X1251032Y254127D01*
X1247702Y254127D02*
X1247604Y254129D01*
X1247506Y254135D01*
X1247408Y254144D01*
X1247311Y254158D01*
X1247215Y254175D01*
X1247119Y254196D01*
X1247024Y254221D01*
X1246930Y254249D01*
X1246837Y254281D01*
X1246746Y254317D01*
X1246656Y254356D01*
X1246568Y254399D01*
X1246481Y254446D01*
X1246397Y254495D01*
X1246314Y254548D01*
X1246234Y254604D01*
X1246156Y254663D01*
X1246080Y254726D01*
X1246006Y254791D01*
X1245936Y254859D01*
X1245868Y254929D01*
X1245803Y255003D01*
X1245740Y255079D01*
X1245681Y255157D01*
X1245625Y255237D01*
X1245572Y255320D01*
X1245523Y255404D01*
X1245476Y255491D01*
X1245433Y255579D01*
X1245394Y255669D01*
X1245358Y255760D01*
X1245326Y255853D01*
X1245298Y255947D01*
X1245273Y256042D01*
X1245252Y256138D01*
X1245235Y256234D01*
X1245221Y256331D01*
X1245212Y256429D01*
X1245206Y256527D01*
X1245204Y256625D01*
X1245204Y261620D01*
X1245206Y261718D01*
X1245212Y261816D01*
X1245221Y261914D01*
X1245235Y262011D01*
X1245252Y262107D01*
X1245273Y262203D01*
X1245298Y262298D01*
X1245326Y262392D01*
X1245358Y262485D01*
X1245394Y262576D01*
X1245433Y262666D01*
X1245476Y262754D01*
X1245523Y262841D01*
X1245572Y262925D01*
X1245625Y263008D01*
X1245681Y263088D01*
X1245740Y263167D01*
X1245803Y263242D01*
X1245868Y263316D01*
X1245936Y263386D01*
X1246006Y263454D01*
X1246080Y263520D01*
X1246156Y263582D01*
X1246234Y263641D01*
X1246314Y263697D01*
X1246397Y263750D01*
X1246481Y263800D01*
X1246568Y263846D01*
X1246656Y263889D01*
X1246746Y263928D01*
X1246837Y263964D01*
X1246930Y263996D01*
X1247024Y264024D01*
X1247119Y264049D01*
X1247215Y264070D01*
X1247311Y264087D01*
X1247408Y264101D01*
X1247506Y264110D01*
X1247604Y264116D01*
X1247702Y264118D01*
X1251032Y264118D01*
X1257162Y260787D02*
X1257162Y257457D01*
X1257162Y260787D02*
X1257164Y260901D01*
X1257170Y261014D01*
X1257179Y261128D01*
X1257193Y261240D01*
X1257210Y261353D01*
X1257232Y261465D01*
X1257257Y261575D01*
X1257285Y261685D01*
X1257318Y261794D01*
X1257354Y261902D01*
X1257394Y262009D01*
X1257438Y262114D01*
X1257485Y262217D01*
X1257535Y262319D01*
X1257589Y262419D01*
X1257647Y262517D01*
X1257708Y262613D01*
X1257771Y262707D01*
X1257839Y262799D01*
X1257909Y262889D01*
X1257982Y262975D01*
X1258058Y263060D01*
X1258137Y263142D01*
X1258219Y263221D01*
X1258304Y263297D01*
X1258390Y263370D01*
X1258480Y263440D01*
X1258572Y263508D01*
X1258666Y263571D01*
X1258762Y263632D01*
X1258860Y263690D01*
X1258960Y263744D01*
X1259062Y263794D01*
X1259165Y263841D01*
X1259270Y263885D01*
X1259377Y263925D01*
X1259485Y263961D01*
X1259594Y263994D01*
X1259704Y264022D01*
X1259814Y264047D01*
X1259926Y264069D01*
X1260039Y264086D01*
X1260151Y264100D01*
X1260265Y264109D01*
X1260378Y264115D01*
X1260492Y264117D01*
X1260606Y264115D01*
X1260719Y264109D01*
X1260833Y264100D01*
X1260945Y264086D01*
X1261058Y264069D01*
X1261170Y264047D01*
X1261280Y264022D01*
X1261390Y263994D01*
X1261499Y263961D01*
X1261607Y263925D01*
X1261714Y263885D01*
X1261819Y263841D01*
X1261922Y263794D01*
X1262024Y263744D01*
X1262124Y263690D01*
X1262222Y263632D01*
X1262318Y263571D01*
X1262412Y263508D01*
X1262504Y263440D01*
X1262594Y263370D01*
X1262680Y263297D01*
X1262765Y263221D01*
X1262847Y263142D01*
X1262926Y263060D01*
X1263002Y262975D01*
X1263075Y262889D01*
X1263145Y262799D01*
X1263213Y262707D01*
X1263276Y262613D01*
X1263337Y262517D01*
X1263395Y262419D01*
X1263449Y262319D01*
X1263499Y262217D01*
X1263546Y262114D01*
X1263590Y262009D01*
X1263630Y261902D01*
X1263666Y261794D01*
X1263699Y261685D01*
X1263727Y261575D01*
X1263752Y261465D01*
X1263774Y261353D01*
X1263791Y261240D01*
X1263805Y261128D01*
X1263814Y261014D01*
X1263820Y260901D01*
X1263822Y260787D01*
X1263822Y257457D01*
X1263820Y257343D01*
X1263814Y257230D01*
X1263805Y257116D01*
X1263791Y257004D01*
X1263774Y256891D01*
X1263752Y256779D01*
X1263727Y256669D01*
X1263699Y256559D01*
X1263666Y256450D01*
X1263630Y256342D01*
X1263590Y256235D01*
X1263546Y256130D01*
X1263499Y256027D01*
X1263449Y255925D01*
X1263395Y255825D01*
X1263337Y255727D01*
X1263276Y255631D01*
X1263213Y255537D01*
X1263145Y255445D01*
X1263075Y255355D01*
X1263002Y255269D01*
X1262926Y255184D01*
X1262847Y255102D01*
X1262765Y255023D01*
X1262680Y254947D01*
X1262594Y254874D01*
X1262504Y254804D01*
X1262412Y254736D01*
X1262318Y254673D01*
X1262222Y254612D01*
X1262124Y254554D01*
X1262024Y254500D01*
X1261922Y254450D01*
X1261819Y254403D01*
X1261714Y254359D01*
X1261607Y254319D01*
X1261499Y254283D01*
X1261390Y254250D01*
X1261280Y254222D01*
X1261170Y254197D01*
X1261058Y254175D01*
X1260945Y254158D01*
X1260833Y254144D01*
X1260719Y254135D01*
X1260606Y254129D01*
X1260492Y254127D01*
X1260378Y254129D01*
X1260265Y254135D01*
X1260151Y254144D01*
X1260039Y254158D01*
X1259926Y254175D01*
X1259814Y254197D01*
X1259704Y254222D01*
X1259594Y254250D01*
X1259485Y254283D01*
X1259377Y254319D01*
X1259270Y254359D01*
X1259165Y254403D01*
X1259062Y254450D01*
X1258960Y254500D01*
X1258860Y254554D01*
X1258762Y254612D01*
X1258666Y254673D01*
X1258572Y254736D01*
X1258480Y254804D01*
X1258390Y254874D01*
X1258304Y254947D01*
X1258219Y255023D01*
X1258137Y255102D01*
X1258058Y255184D01*
X1257982Y255269D01*
X1257909Y255355D01*
X1257839Y255445D01*
X1257771Y255537D01*
X1257708Y255631D01*
X1257647Y255727D01*
X1257589Y255825D01*
X1257535Y255925D01*
X1257485Y256027D01*
X1257438Y256130D01*
X1257394Y256235D01*
X1257354Y256342D01*
X1257318Y256450D01*
X1257285Y256559D01*
X1257257Y256669D01*
X1257232Y256779D01*
X1257210Y256891D01*
X1257193Y257004D01*
X1257179Y257116D01*
X1257170Y257230D01*
X1257164Y257343D01*
X1257162Y257457D01*
X1271358Y254127D02*
X1271358Y264118D01*
X1276353Y264118D01*
X1276353Y262453D01*
X1284148Y254127D02*
X1288311Y254127D01*
X1284148Y254127D02*
X1284050Y254129D01*
X1283952Y254135D01*
X1283854Y254144D01*
X1283757Y254158D01*
X1283661Y254175D01*
X1283565Y254196D01*
X1283470Y254221D01*
X1283376Y254249D01*
X1283283Y254281D01*
X1283192Y254317D01*
X1283102Y254356D01*
X1283014Y254399D01*
X1282927Y254446D01*
X1282843Y254495D01*
X1282760Y254548D01*
X1282680Y254604D01*
X1282602Y254663D01*
X1282526Y254726D01*
X1282452Y254791D01*
X1282382Y254859D01*
X1282314Y254929D01*
X1282249Y255003D01*
X1282186Y255079D01*
X1282127Y255157D01*
X1282071Y255237D01*
X1282018Y255320D01*
X1281969Y255404D01*
X1281922Y255491D01*
X1281879Y255579D01*
X1281840Y255669D01*
X1281804Y255760D01*
X1281772Y255853D01*
X1281744Y255947D01*
X1281719Y256042D01*
X1281698Y256138D01*
X1281681Y256234D01*
X1281667Y256331D01*
X1281658Y256429D01*
X1281652Y256527D01*
X1281650Y256625D01*
X1281650Y260787D01*
X1281651Y260787D02*
X1281653Y260901D01*
X1281659Y261014D01*
X1281668Y261128D01*
X1281682Y261240D01*
X1281699Y261353D01*
X1281721Y261465D01*
X1281746Y261575D01*
X1281774Y261685D01*
X1281807Y261794D01*
X1281843Y261902D01*
X1281883Y262009D01*
X1281927Y262114D01*
X1281974Y262217D01*
X1282024Y262319D01*
X1282078Y262419D01*
X1282136Y262517D01*
X1282197Y262613D01*
X1282260Y262707D01*
X1282328Y262799D01*
X1282398Y262889D01*
X1282471Y262975D01*
X1282547Y263060D01*
X1282626Y263142D01*
X1282708Y263221D01*
X1282793Y263297D01*
X1282879Y263370D01*
X1282969Y263440D01*
X1283061Y263508D01*
X1283155Y263571D01*
X1283251Y263632D01*
X1283349Y263690D01*
X1283449Y263744D01*
X1283551Y263794D01*
X1283654Y263841D01*
X1283759Y263885D01*
X1283866Y263925D01*
X1283974Y263961D01*
X1284083Y263994D01*
X1284193Y264022D01*
X1284303Y264047D01*
X1284415Y264069D01*
X1284528Y264086D01*
X1284640Y264100D01*
X1284754Y264109D01*
X1284867Y264115D01*
X1284981Y264117D01*
X1285095Y264115D01*
X1285208Y264109D01*
X1285322Y264100D01*
X1285434Y264086D01*
X1285547Y264069D01*
X1285659Y264047D01*
X1285769Y264022D01*
X1285879Y263994D01*
X1285988Y263961D01*
X1286096Y263925D01*
X1286203Y263885D01*
X1286308Y263841D01*
X1286411Y263794D01*
X1286513Y263744D01*
X1286613Y263690D01*
X1286711Y263632D01*
X1286807Y263571D01*
X1286901Y263508D01*
X1286993Y263440D01*
X1287083Y263370D01*
X1287169Y263297D01*
X1287254Y263221D01*
X1287336Y263142D01*
X1287415Y263060D01*
X1287491Y262975D01*
X1287564Y262889D01*
X1287634Y262799D01*
X1287702Y262707D01*
X1287765Y262613D01*
X1287826Y262517D01*
X1287884Y262419D01*
X1287938Y262319D01*
X1287988Y262217D01*
X1288035Y262114D01*
X1288079Y262009D01*
X1288119Y261902D01*
X1288155Y261794D01*
X1288188Y261685D01*
X1288216Y261575D01*
X1288241Y261465D01*
X1288263Y261353D01*
X1288280Y261240D01*
X1288294Y261128D01*
X1288303Y261014D01*
X1288309Y260901D01*
X1288311Y260787D01*
X1288311Y259122D01*
X1281650Y259122D01*
D11*
X1168400Y393700D02*
X-68580Y393700D01*
D12*
X1200889Y396198D02*
X1204219Y386207D01*
X1207550Y396198D01*
X1214334Y392035D02*
X1224325Y392035D01*
X1232879Y392035D02*
X1237042Y390370D01*
X1232879Y392034D02*
X1232794Y392070D01*
X1232711Y392110D01*
X1232630Y392153D01*
X1232550Y392200D01*
X1232473Y392250D01*
X1232397Y392303D01*
X1232324Y392359D01*
X1232254Y392419D01*
X1232186Y392481D01*
X1232121Y392546D01*
X1232059Y392614D01*
X1231999Y392685D01*
X1231943Y392758D01*
X1231890Y392833D01*
X1231840Y392911D01*
X1231794Y392990D01*
X1231751Y393072D01*
X1231711Y393155D01*
X1231675Y393240D01*
X1231643Y393326D01*
X1231614Y393414D01*
X1231590Y393503D01*
X1231569Y393593D01*
X1231552Y393683D01*
X1231538Y393774D01*
X1231529Y393866D01*
X1231524Y393958D01*
X1231522Y394050D01*
X1231524Y394142D01*
X1231531Y394234D01*
X1231541Y394326D01*
X1231555Y394417D01*
X1231573Y394508D01*
X1231595Y394597D01*
X1231621Y394686D01*
X1231651Y394773D01*
X1231684Y394859D01*
X1231721Y394943D01*
X1231761Y395026D01*
X1231805Y395107D01*
X1231852Y395186D01*
X1231903Y395263D01*
X1231957Y395338D01*
X1232014Y395411D01*
X1232074Y395481D01*
X1232137Y395548D01*
X1232203Y395612D01*
X1232271Y395674D01*
X1232342Y395733D01*
X1232416Y395788D01*
X1232492Y395841D01*
X1232570Y395890D01*
X1232650Y395936D01*
X1232731Y395978D01*
X1232815Y396017D01*
X1232900Y396052D01*
X1232987Y396083D01*
X1233075Y396111D01*
X1233164Y396135D01*
X1233254Y396155D01*
X1233344Y396172D01*
X1233436Y396184D01*
X1233528Y396193D01*
X1233620Y396197D01*
X1233712Y396198D01*
X1233939Y396192D01*
X1234166Y396181D01*
X1234393Y396164D01*
X1234619Y396141D01*
X1234845Y396114D01*
X1235070Y396080D01*
X1235294Y396042D01*
X1235517Y395998D01*
X1235739Y395949D01*
X1235960Y395894D01*
X1236179Y395834D01*
X1236397Y395769D01*
X1236613Y395698D01*
X1236827Y395623D01*
X1237040Y395542D01*
X1237250Y395456D01*
X1237459Y395365D01*
X1237042Y390370D02*
X1237127Y390334D01*
X1237210Y390294D01*
X1237291Y390251D01*
X1237371Y390204D01*
X1237448Y390154D01*
X1237524Y390101D01*
X1237597Y390045D01*
X1237667Y389985D01*
X1237735Y389923D01*
X1237800Y389858D01*
X1237862Y389790D01*
X1237922Y389719D01*
X1237978Y389646D01*
X1238031Y389571D01*
X1238081Y389493D01*
X1238127Y389414D01*
X1238170Y389332D01*
X1238210Y389249D01*
X1238246Y389164D01*
X1238278Y389078D01*
X1238307Y388990D01*
X1238331Y388901D01*
X1238352Y388811D01*
X1238369Y388721D01*
X1238383Y388630D01*
X1238392Y388538D01*
X1238397Y388446D01*
X1238399Y388354D01*
X1238397Y388262D01*
X1238390Y388170D01*
X1238380Y388078D01*
X1238366Y387987D01*
X1238348Y387896D01*
X1238326Y387807D01*
X1238300Y387718D01*
X1238270Y387631D01*
X1238237Y387545D01*
X1238200Y387461D01*
X1238160Y387378D01*
X1238116Y387297D01*
X1238069Y387218D01*
X1238018Y387141D01*
X1237964Y387066D01*
X1237907Y386993D01*
X1237847Y386923D01*
X1237784Y386856D01*
X1237718Y386792D01*
X1237650Y386730D01*
X1237579Y386671D01*
X1237505Y386616D01*
X1237429Y386563D01*
X1237351Y386514D01*
X1237271Y386468D01*
X1237190Y386426D01*
X1237106Y386387D01*
X1237021Y386352D01*
X1236934Y386321D01*
X1236846Y386293D01*
X1236757Y386269D01*
X1236667Y386249D01*
X1236577Y386232D01*
X1236485Y386220D01*
X1236393Y386211D01*
X1236301Y386207D01*
X1236209Y386206D01*
X1236209Y386207D02*
X1235875Y386216D01*
X1235542Y386233D01*
X1235209Y386257D01*
X1234876Y386290D01*
X1234545Y386330D01*
X1234214Y386378D01*
X1233885Y386434D01*
X1233557Y386497D01*
X1233231Y386569D01*
X1232907Y386648D01*
X1232584Y386734D01*
X1232264Y386829D01*
X1231946Y386931D01*
X1231630Y387040D01*
X1247702Y386207D02*
X1251032Y386207D01*
X1247702Y386207D02*
X1247604Y386209D01*
X1247506Y386215D01*
X1247408Y386224D01*
X1247311Y386238D01*
X1247215Y386255D01*
X1247119Y386276D01*
X1247024Y386301D01*
X1246930Y386329D01*
X1246837Y386361D01*
X1246746Y386397D01*
X1246656Y386436D01*
X1246568Y386479D01*
X1246481Y386526D01*
X1246397Y386575D01*
X1246314Y386628D01*
X1246234Y386684D01*
X1246156Y386743D01*
X1246080Y386806D01*
X1246006Y386871D01*
X1245936Y386939D01*
X1245868Y387009D01*
X1245803Y387083D01*
X1245740Y387159D01*
X1245681Y387237D01*
X1245625Y387317D01*
X1245572Y387400D01*
X1245523Y387484D01*
X1245476Y387571D01*
X1245433Y387659D01*
X1245394Y387749D01*
X1245358Y387840D01*
X1245326Y387933D01*
X1245298Y388027D01*
X1245273Y388122D01*
X1245252Y388218D01*
X1245235Y388314D01*
X1245221Y388411D01*
X1245212Y388509D01*
X1245206Y388607D01*
X1245204Y388705D01*
X1245204Y393700D01*
X1245206Y393798D01*
X1245212Y393896D01*
X1245221Y393994D01*
X1245235Y394091D01*
X1245252Y394187D01*
X1245273Y394283D01*
X1245298Y394378D01*
X1245326Y394472D01*
X1245358Y394565D01*
X1245394Y394656D01*
X1245433Y394746D01*
X1245476Y394834D01*
X1245523Y394921D01*
X1245572Y395005D01*
X1245625Y395088D01*
X1245681Y395168D01*
X1245740Y395247D01*
X1245803Y395322D01*
X1245868Y395396D01*
X1245936Y395466D01*
X1246006Y395534D01*
X1246080Y395600D01*
X1246156Y395662D01*
X1246234Y395721D01*
X1246314Y395777D01*
X1246397Y395830D01*
X1246481Y395880D01*
X1246568Y395926D01*
X1246656Y395969D01*
X1246746Y396008D01*
X1246837Y396044D01*
X1246930Y396076D01*
X1247024Y396104D01*
X1247119Y396129D01*
X1247215Y396150D01*
X1247311Y396167D01*
X1247408Y396181D01*
X1247506Y396190D01*
X1247604Y396196D01*
X1247702Y396198D01*
X1251032Y396198D01*
X1257162Y392867D02*
X1257162Y389537D01*
X1257162Y392867D02*
X1257164Y392981D01*
X1257170Y393094D01*
X1257179Y393208D01*
X1257193Y393320D01*
X1257210Y393433D01*
X1257232Y393545D01*
X1257257Y393655D01*
X1257285Y393765D01*
X1257318Y393874D01*
X1257354Y393982D01*
X1257394Y394089D01*
X1257438Y394194D01*
X1257485Y394297D01*
X1257535Y394399D01*
X1257589Y394499D01*
X1257647Y394597D01*
X1257708Y394693D01*
X1257771Y394787D01*
X1257839Y394879D01*
X1257909Y394969D01*
X1257982Y395055D01*
X1258058Y395140D01*
X1258137Y395222D01*
X1258219Y395301D01*
X1258304Y395377D01*
X1258390Y395450D01*
X1258480Y395520D01*
X1258572Y395588D01*
X1258666Y395651D01*
X1258762Y395712D01*
X1258860Y395770D01*
X1258960Y395824D01*
X1259062Y395874D01*
X1259165Y395921D01*
X1259270Y395965D01*
X1259377Y396005D01*
X1259485Y396041D01*
X1259594Y396074D01*
X1259704Y396102D01*
X1259814Y396127D01*
X1259926Y396149D01*
X1260039Y396166D01*
X1260151Y396180D01*
X1260265Y396189D01*
X1260378Y396195D01*
X1260492Y396197D01*
X1260606Y396195D01*
X1260719Y396189D01*
X1260833Y396180D01*
X1260945Y396166D01*
X1261058Y396149D01*
X1261170Y396127D01*
X1261280Y396102D01*
X1261390Y396074D01*
X1261499Y396041D01*
X1261607Y396005D01*
X1261714Y395965D01*
X1261819Y395921D01*
X1261922Y395874D01*
X1262024Y395824D01*
X1262124Y395770D01*
X1262222Y395712D01*
X1262318Y395651D01*
X1262412Y395588D01*
X1262504Y395520D01*
X1262594Y395450D01*
X1262680Y395377D01*
X1262765Y395301D01*
X1262847Y395222D01*
X1262926Y395140D01*
X1263002Y395055D01*
X1263075Y394969D01*
X1263145Y394879D01*
X1263213Y394787D01*
X1263276Y394693D01*
X1263337Y394597D01*
X1263395Y394499D01*
X1263449Y394399D01*
X1263499Y394297D01*
X1263546Y394194D01*
X1263590Y394089D01*
X1263630Y393982D01*
X1263666Y393874D01*
X1263699Y393765D01*
X1263727Y393655D01*
X1263752Y393545D01*
X1263774Y393433D01*
X1263791Y393320D01*
X1263805Y393208D01*
X1263814Y393094D01*
X1263820Y392981D01*
X1263822Y392867D01*
X1263822Y389537D01*
X1263820Y389423D01*
X1263814Y389310D01*
X1263805Y389196D01*
X1263791Y389084D01*
X1263774Y388971D01*
X1263752Y388859D01*
X1263727Y388749D01*
X1263699Y388639D01*
X1263666Y388530D01*
X1263630Y388422D01*
X1263590Y388315D01*
X1263546Y388210D01*
X1263499Y388107D01*
X1263449Y388005D01*
X1263395Y387905D01*
X1263337Y387807D01*
X1263276Y387711D01*
X1263213Y387617D01*
X1263145Y387525D01*
X1263075Y387435D01*
X1263002Y387349D01*
X1262926Y387264D01*
X1262847Y387182D01*
X1262765Y387103D01*
X1262680Y387027D01*
X1262594Y386954D01*
X1262504Y386884D01*
X1262412Y386816D01*
X1262318Y386753D01*
X1262222Y386692D01*
X1262124Y386634D01*
X1262024Y386580D01*
X1261922Y386530D01*
X1261819Y386483D01*
X1261714Y386439D01*
X1261607Y386399D01*
X1261499Y386363D01*
X1261390Y386330D01*
X1261280Y386302D01*
X1261170Y386277D01*
X1261058Y386255D01*
X1260945Y386238D01*
X1260833Y386224D01*
X1260719Y386215D01*
X1260606Y386209D01*
X1260492Y386207D01*
X1260378Y386209D01*
X1260265Y386215D01*
X1260151Y386224D01*
X1260039Y386238D01*
X1259926Y386255D01*
X1259814Y386277D01*
X1259704Y386302D01*
X1259594Y386330D01*
X1259485Y386363D01*
X1259377Y386399D01*
X1259270Y386439D01*
X1259165Y386483D01*
X1259062Y386530D01*
X1258960Y386580D01*
X1258860Y386634D01*
X1258762Y386692D01*
X1258666Y386753D01*
X1258572Y386816D01*
X1258480Y386884D01*
X1258390Y386954D01*
X1258304Y387027D01*
X1258219Y387103D01*
X1258137Y387182D01*
X1258058Y387264D01*
X1257982Y387349D01*
X1257909Y387435D01*
X1257839Y387525D01*
X1257771Y387617D01*
X1257708Y387711D01*
X1257647Y387807D01*
X1257589Y387905D01*
X1257535Y388005D01*
X1257485Y388107D01*
X1257438Y388210D01*
X1257394Y388315D01*
X1257354Y388422D01*
X1257318Y388530D01*
X1257285Y388639D01*
X1257257Y388749D01*
X1257232Y388859D01*
X1257210Y388971D01*
X1257193Y389084D01*
X1257179Y389196D01*
X1257170Y389310D01*
X1257164Y389423D01*
X1257162Y389537D01*
X1271358Y386207D02*
X1271358Y396198D01*
X1276353Y396198D01*
X1276353Y394533D01*
X1284148Y386207D02*
X1288311Y386207D01*
X1284148Y386207D02*
X1284050Y386209D01*
X1283952Y386215D01*
X1283854Y386224D01*
X1283757Y386238D01*
X1283661Y386255D01*
X1283565Y386276D01*
X1283470Y386301D01*
X1283376Y386329D01*
X1283283Y386361D01*
X1283192Y386397D01*
X1283102Y386436D01*
X1283014Y386479D01*
X1282927Y386526D01*
X1282843Y386575D01*
X1282760Y386628D01*
X1282680Y386684D01*
X1282602Y386743D01*
X1282526Y386806D01*
X1282452Y386871D01*
X1282382Y386939D01*
X1282314Y387009D01*
X1282249Y387083D01*
X1282186Y387159D01*
X1282127Y387237D01*
X1282071Y387317D01*
X1282018Y387400D01*
X1281969Y387484D01*
X1281922Y387571D01*
X1281879Y387659D01*
X1281840Y387749D01*
X1281804Y387840D01*
X1281772Y387933D01*
X1281744Y388027D01*
X1281719Y388122D01*
X1281698Y388218D01*
X1281681Y388314D01*
X1281667Y388411D01*
X1281658Y388509D01*
X1281652Y388607D01*
X1281650Y388705D01*
X1281650Y392867D01*
X1281651Y392867D02*
X1281653Y392981D01*
X1281659Y393094D01*
X1281668Y393208D01*
X1281682Y393320D01*
X1281699Y393433D01*
X1281721Y393545D01*
X1281746Y393655D01*
X1281774Y393765D01*
X1281807Y393874D01*
X1281843Y393982D01*
X1281883Y394089D01*
X1281927Y394194D01*
X1281974Y394297D01*
X1282024Y394399D01*
X1282078Y394499D01*
X1282136Y394597D01*
X1282197Y394693D01*
X1282260Y394787D01*
X1282328Y394879D01*
X1282398Y394969D01*
X1282471Y395055D01*
X1282547Y395140D01*
X1282626Y395222D01*
X1282708Y395301D01*
X1282793Y395377D01*
X1282879Y395450D01*
X1282969Y395520D01*
X1283061Y395588D01*
X1283155Y395651D01*
X1283251Y395712D01*
X1283349Y395770D01*
X1283449Y395824D01*
X1283551Y395874D01*
X1283654Y395921D01*
X1283759Y395965D01*
X1283866Y396005D01*
X1283974Y396041D01*
X1284083Y396074D01*
X1284193Y396102D01*
X1284303Y396127D01*
X1284415Y396149D01*
X1284528Y396166D01*
X1284640Y396180D01*
X1284754Y396189D01*
X1284867Y396195D01*
X1284981Y396197D01*
X1285095Y396195D01*
X1285208Y396189D01*
X1285322Y396180D01*
X1285434Y396166D01*
X1285547Y396149D01*
X1285659Y396127D01*
X1285769Y396102D01*
X1285879Y396074D01*
X1285988Y396041D01*
X1286096Y396005D01*
X1286203Y395965D01*
X1286308Y395921D01*
X1286411Y395874D01*
X1286513Y395824D01*
X1286613Y395770D01*
X1286711Y395712D01*
X1286807Y395651D01*
X1286901Y395588D01*
X1286993Y395520D01*
X1287083Y395450D01*
X1287169Y395377D01*
X1287254Y395301D01*
X1287336Y395222D01*
X1287415Y395140D01*
X1287491Y395055D01*
X1287564Y394969D01*
X1287634Y394879D01*
X1287702Y394787D01*
X1287765Y394693D01*
X1287826Y394597D01*
X1287884Y394499D01*
X1287938Y394399D01*
X1287988Y394297D01*
X1288035Y394194D01*
X1288079Y394089D01*
X1288119Y393982D01*
X1288155Y393874D01*
X1288188Y393765D01*
X1288216Y393655D01*
X1288241Y393545D01*
X1288263Y393433D01*
X1288280Y393320D01*
X1288294Y393208D01*
X1288303Y393094D01*
X1288309Y392981D01*
X1288311Y392867D01*
X1288311Y391202D01*
X1281650Y391202D01*
D11*
X1168400Y525780D02*
X-68580Y525780D01*
D12*
X1200889Y528278D02*
X1204219Y518287D01*
X1207550Y528278D01*
X1214334Y524115D02*
X1224325Y524115D01*
X1232879Y524115D02*
X1237042Y522450D01*
X1232879Y524114D02*
X1232794Y524150D01*
X1232711Y524190D01*
X1232630Y524233D01*
X1232550Y524280D01*
X1232473Y524330D01*
X1232397Y524383D01*
X1232324Y524439D01*
X1232254Y524499D01*
X1232186Y524561D01*
X1232121Y524626D01*
X1232059Y524694D01*
X1231999Y524765D01*
X1231943Y524838D01*
X1231890Y524913D01*
X1231840Y524991D01*
X1231794Y525070D01*
X1231751Y525152D01*
X1231711Y525235D01*
X1231675Y525320D01*
X1231643Y525406D01*
X1231614Y525494D01*
X1231590Y525583D01*
X1231569Y525673D01*
X1231552Y525763D01*
X1231538Y525854D01*
X1231529Y525946D01*
X1231524Y526038D01*
X1231522Y526130D01*
X1231524Y526222D01*
X1231531Y526314D01*
X1231541Y526406D01*
X1231555Y526497D01*
X1231573Y526588D01*
X1231595Y526677D01*
X1231621Y526766D01*
X1231651Y526853D01*
X1231684Y526939D01*
X1231721Y527023D01*
X1231761Y527106D01*
X1231805Y527187D01*
X1231852Y527266D01*
X1231903Y527343D01*
X1231957Y527418D01*
X1232014Y527491D01*
X1232074Y527561D01*
X1232137Y527628D01*
X1232203Y527692D01*
X1232271Y527754D01*
X1232342Y527813D01*
X1232416Y527868D01*
X1232492Y527921D01*
X1232570Y527970D01*
X1232650Y528016D01*
X1232731Y528058D01*
X1232815Y528097D01*
X1232900Y528132D01*
X1232987Y528163D01*
X1233075Y528191D01*
X1233164Y528215D01*
X1233254Y528235D01*
X1233344Y528252D01*
X1233436Y528264D01*
X1233528Y528273D01*
X1233620Y528277D01*
X1233712Y528278D01*
X1233939Y528272D01*
X1234166Y528261D01*
X1234393Y528244D01*
X1234619Y528221D01*
X1234845Y528194D01*
X1235070Y528160D01*
X1235294Y528122D01*
X1235517Y528078D01*
X1235739Y528029D01*
X1235960Y527974D01*
X1236179Y527914D01*
X1236397Y527849D01*
X1236613Y527778D01*
X1236827Y527703D01*
X1237040Y527622D01*
X1237250Y527536D01*
X1237459Y527445D01*
X1237042Y522450D02*
X1237127Y522414D01*
X1237210Y522374D01*
X1237291Y522331D01*
X1237371Y522284D01*
X1237448Y522234D01*
X1237524Y522181D01*
X1237597Y522125D01*
X1237667Y522065D01*
X1237735Y522003D01*
X1237800Y521938D01*
X1237862Y521870D01*
X1237922Y521799D01*
X1237978Y521726D01*
X1238031Y521651D01*
X1238081Y521573D01*
X1238127Y521494D01*
X1238170Y521412D01*
X1238210Y521329D01*
X1238246Y521244D01*
X1238278Y521158D01*
X1238307Y521070D01*
X1238331Y520981D01*
X1238352Y520891D01*
X1238369Y520801D01*
X1238383Y520710D01*
X1238392Y520618D01*
X1238397Y520526D01*
X1238399Y520434D01*
X1238397Y520342D01*
X1238390Y520250D01*
X1238380Y520158D01*
X1238366Y520067D01*
X1238348Y519976D01*
X1238326Y519887D01*
X1238300Y519798D01*
X1238270Y519711D01*
X1238237Y519625D01*
X1238200Y519541D01*
X1238160Y519458D01*
X1238116Y519377D01*
X1238069Y519298D01*
X1238018Y519221D01*
X1237964Y519146D01*
X1237907Y519073D01*
X1237847Y519003D01*
X1237784Y518936D01*
X1237718Y518872D01*
X1237650Y518810D01*
X1237579Y518751D01*
X1237505Y518696D01*
X1237429Y518643D01*
X1237351Y518594D01*
X1237271Y518548D01*
X1237190Y518506D01*
X1237106Y518467D01*
X1237021Y518432D01*
X1236934Y518401D01*
X1236846Y518373D01*
X1236757Y518349D01*
X1236667Y518329D01*
X1236577Y518312D01*
X1236485Y518300D01*
X1236393Y518291D01*
X1236301Y518287D01*
X1236209Y518286D01*
X1236209Y518287D02*
X1235875Y518296D01*
X1235542Y518313D01*
X1235209Y518337D01*
X1234876Y518370D01*
X1234545Y518410D01*
X1234214Y518458D01*
X1233885Y518514D01*
X1233557Y518577D01*
X1233231Y518649D01*
X1232907Y518728D01*
X1232584Y518814D01*
X1232264Y518909D01*
X1231946Y519011D01*
X1231630Y519120D01*
X1247702Y518287D02*
X1251032Y518287D01*
X1247702Y518287D02*
X1247604Y518289D01*
X1247506Y518295D01*
X1247408Y518304D01*
X1247311Y518318D01*
X1247215Y518335D01*
X1247119Y518356D01*
X1247024Y518381D01*
X1246930Y518409D01*
X1246837Y518441D01*
X1246746Y518477D01*
X1246656Y518516D01*
X1246568Y518559D01*
X1246481Y518606D01*
X1246397Y518655D01*
X1246314Y518708D01*
X1246234Y518764D01*
X1246156Y518823D01*
X1246080Y518886D01*
X1246006Y518951D01*
X1245936Y519019D01*
X1245868Y519089D01*
X1245803Y519163D01*
X1245740Y519239D01*
X1245681Y519317D01*
X1245625Y519397D01*
X1245572Y519480D01*
X1245523Y519564D01*
X1245476Y519651D01*
X1245433Y519739D01*
X1245394Y519829D01*
X1245358Y519920D01*
X1245326Y520013D01*
X1245298Y520107D01*
X1245273Y520202D01*
X1245252Y520298D01*
X1245235Y520394D01*
X1245221Y520491D01*
X1245212Y520589D01*
X1245206Y520687D01*
X1245204Y520785D01*
X1245204Y525780D01*
X1245206Y525878D01*
X1245212Y525976D01*
X1245221Y526074D01*
X1245235Y526171D01*
X1245252Y526267D01*
X1245273Y526363D01*
X1245298Y526458D01*
X1245326Y526552D01*
X1245358Y526645D01*
X1245394Y526736D01*
X1245433Y526826D01*
X1245476Y526914D01*
X1245523Y527001D01*
X1245572Y527085D01*
X1245625Y527168D01*
X1245681Y527248D01*
X1245740Y527327D01*
X1245803Y527402D01*
X1245868Y527476D01*
X1245936Y527546D01*
X1246006Y527614D01*
X1246080Y527680D01*
X1246156Y527742D01*
X1246234Y527801D01*
X1246314Y527857D01*
X1246397Y527910D01*
X1246481Y527960D01*
X1246568Y528006D01*
X1246656Y528049D01*
X1246746Y528088D01*
X1246837Y528124D01*
X1246930Y528156D01*
X1247024Y528184D01*
X1247119Y528209D01*
X1247215Y528230D01*
X1247311Y528247D01*
X1247408Y528261D01*
X1247506Y528270D01*
X1247604Y528276D01*
X1247702Y528278D01*
X1251032Y528278D01*
X1257162Y524947D02*
X1257162Y521617D01*
X1257162Y524947D02*
X1257164Y525061D01*
X1257170Y525174D01*
X1257179Y525288D01*
X1257193Y525400D01*
X1257210Y525513D01*
X1257232Y525625D01*
X1257257Y525735D01*
X1257285Y525845D01*
X1257318Y525954D01*
X1257354Y526062D01*
X1257394Y526169D01*
X1257438Y526274D01*
X1257485Y526377D01*
X1257535Y526479D01*
X1257589Y526579D01*
X1257647Y526677D01*
X1257708Y526773D01*
X1257771Y526867D01*
X1257839Y526959D01*
X1257909Y527049D01*
X1257982Y527135D01*
X1258058Y527220D01*
X1258137Y527302D01*
X1258219Y527381D01*
X1258304Y527457D01*
X1258390Y527530D01*
X1258480Y527600D01*
X1258572Y527668D01*
X1258666Y527731D01*
X1258762Y527792D01*
X1258860Y527850D01*
X1258960Y527904D01*
X1259062Y527954D01*
X1259165Y528001D01*
X1259270Y528045D01*
X1259377Y528085D01*
X1259485Y528121D01*
X1259594Y528154D01*
X1259704Y528182D01*
X1259814Y528207D01*
X1259926Y528229D01*
X1260039Y528246D01*
X1260151Y528260D01*
X1260265Y528269D01*
X1260378Y528275D01*
X1260492Y528277D01*
X1260606Y528275D01*
X1260719Y528269D01*
X1260833Y528260D01*
X1260945Y528246D01*
X1261058Y528229D01*
X1261170Y528207D01*
X1261280Y528182D01*
X1261390Y528154D01*
X1261499Y528121D01*
X1261607Y528085D01*
X1261714Y528045D01*
X1261819Y528001D01*
X1261922Y527954D01*
X1262024Y527904D01*
X1262124Y527850D01*
X1262222Y527792D01*
X1262318Y527731D01*
X1262412Y527668D01*
X1262504Y527600D01*
X1262594Y527530D01*
X1262680Y527457D01*
X1262765Y527381D01*
X1262847Y527302D01*
X1262926Y527220D01*
X1263002Y527135D01*
X1263075Y527049D01*
X1263145Y526959D01*
X1263213Y526867D01*
X1263276Y526773D01*
X1263337Y526677D01*
X1263395Y526579D01*
X1263449Y526479D01*
X1263499Y526377D01*
X1263546Y526274D01*
X1263590Y526169D01*
X1263630Y526062D01*
X1263666Y525954D01*
X1263699Y525845D01*
X1263727Y525735D01*
X1263752Y525625D01*
X1263774Y525513D01*
X1263791Y525400D01*
X1263805Y525288D01*
X1263814Y525174D01*
X1263820Y525061D01*
X1263822Y524947D01*
X1263822Y521617D01*
X1263820Y521503D01*
X1263814Y521390D01*
X1263805Y521276D01*
X1263791Y521164D01*
X1263774Y521051D01*
X1263752Y520939D01*
X1263727Y520829D01*
X1263699Y520719D01*
X1263666Y520610D01*
X1263630Y520502D01*
X1263590Y520395D01*
X1263546Y520290D01*
X1263499Y520187D01*
X1263449Y520085D01*
X1263395Y519985D01*
X1263337Y519887D01*
X1263276Y519791D01*
X1263213Y519697D01*
X1263145Y519605D01*
X1263075Y519515D01*
X1263002Y519429D01*
X1262926Y519344D01*
X1262847Y519262D01*
X1262765Y519183D01*
X1262680Y519107D01*
X1262594Y519034D01*
X1262504Y518964D01*
X1262412Y518896D01*
X1262318Y518833D01*
X1262222Y518772D01*
X1262124Y518714D01*
X1262024Y518660D01*
X1261922Y518610D01*
X1261819Y518563D01*
X1261714Y518519D01*
X1261607Y518479D01*
X1261499Y518443D01*
X1261390Y518410D01*
X1261280Y518382D01*
X1261170Y518357D01*
X1261058Y518335D01*
X1260945Y518318D01*
X1260833Y518304D01*
X1260719Y518295D01*
X1260606Y518289D01*
X1260492Y518287D01*
X1260378Y518289D01*
X1260265Y518295D01*
X1260151Y518304D01*
X1260039Y518318D01*
X1259926Y518335D01*
X1259814Y518357D01*
X1259704Y518382D01*
X1259594Y518410D01*
X1259485Y518443D01*
X1259377Y518479D01*
X1259270Y518519D01*
X1259165Y518563D01*
X1259062Y518610D01*
X1258960Y518660D01*
X1258860Y518714D01*
X1258762Y518772D01*
X1258666Y518833D01*
X1258572Y518896D01*
X1258480Y518964D01*
X1258390Y519034D01*
X1258304Y519107D01*
X1258219Y519183D01*
X1258137Y519262D01*
X1258058Y519344D01*
X1257982Y519429D01*
X1257909Y519515D01*
X1257839Y519605D01*
X1257771Y519697D01*
X1257708Y519791D01*
X1257647Y519887D01*
X1257589Y519985D01*
X1257535Y520085D01*
X1257485Y520187D01*
X1257438Y520290D01*
X1257394Y520395D01*
X1257354Y520502D01*
X1257318Y520610D01*
X1257285Y520719D01*
X1257257Y520829D01*
X1257232Y520939D01*
X1257210Y521051D01*
X1257193Y521164D01*
X1257179Y521276D01*
X1257170Y521390D01*
X1257164Y521503D01*
X1257162Y521617D01*
X1271358Y518287D02*
X1271358Y528278D01*
X1276353Y528278D01*
X1276353Y526613D01*
X1284148Y518287D02*
X1288311Y518287D01*
X1284148Y518287D02*
X1284050Y518289D01*
X1283952Y518295D01*
X1283854Y518304D01*
X1283757Y518318D01*
X1283661Y518335D01*
X1283565Y518356D01*
X1283470Y518381D01*
X1283376Y518409D01*
X1283283Y518441D01*
X1283192Y518477D01*
X1283102Y518516D01*
X1283014Y518559D01*
X1282927Y518606D01*
X1282843Y518655D01*
X1282760Y518708D01*
X1282680Y518764D01*
X1282602Y518823D01*
X1282526Y518886D01*
X1282452Y518951D01*
X1282382Y519019D01*
X1282314Y519089D01*
X1282249Y519163D01*
X1282186Y519239D01*
X1282127Y519317D01*
X1282071Y519397D01*
X1282018Y519480D01*
X1281969Y519564D01*
X1281922Y519651D01*
X1281879Y519739D01*
X1281840Y519829D01*
X1281804Y519920D01*
X1281772Y520013D01*
X1281744Y520107D01*
X1281719Y520202D01*
X1281698Y520298D01*
X1281681Y520394D01*
X1281667Y520491D01*
X1281658Y520589D01*
X1281652Y520687D01*
X1281650Y520785D01*
X1281650Y524947D01*
X1281651Y524947D02*
X1281653Y525061D01*
X1281659Y525174D01*
X1281668Y525288D01*
X1281682Y525400D01*
X1281699Y525513D01*
X1281721Y525625D01*
X1281746Y525735D01*
X1281774Y525845D01*
X1281807Y525954D01*
X1281843Y526062D01*
X1281883Y526169D01*
X1281927Y526274D01*
X1281974Y526377D01*
X1282024Y526479D01*
X1282078Y526579D01*
X1282136Y526677D01*
X1282197Y526773D01*
X1282260Y526867D01*
X1282328Y526959D01*
X1282398Y527049D01*
X1282471Y527135D01*
X1282547Y527220D01*
X1282626Y527302D01*
X1282708Y527381D01*
X1282793Y527457D01*
X1282879Y527530D01*
X1282969Y527600D01*
X1283061Y527668D01*
X1283155Y527731D01*
X1283251Y527792D01*
X1283349Y527850D01*
X1283449Y527904D01*
X1283551Y527954D01*
X1283654Y528001D01*
X1283759Y528045D01*
X1283866Y528085D01*
X1283974Y528121D01*
X1284083Y528154D01*
X1284193Y528182D01*
X1284303Y528207D01*
X1284415Y528229D01*
X1284528Y528246D01*
X1284640Y528260D01*
X1284754Y528269D01*
X1284867Y528275D01*
X1284981Y528277D01*
X1285095Y528275D01*
X1285208Y528269D01*
X1285322Y528260D01*
X1285434Y528246D01*
X1285547Y528229D01*
X1285659Y528207D01*
X1285769Y528182D01*
X1285879Y528154D01*
X1285988Y528121D01*
X1286096Y528085D01*
X1286203Y528045D01*
X1286308Y528001D01*
X1286411Y527954D01*
X1286513Y527904D01*
X1286613Y527850D01*
X1286711Y527792D01*
X1286807Y527731D01*
X1286901Y527668D01*
X1286993Y527600D01*
X1287083Y527530D01*
X1287169Y527457D01*
X1287254Y527381D01*
X1287336Y527302D01*
X1287415Y527220D01*
X1287491Y527135D01*
X1287564Y527049D01*
X1287634Y526959D01*
X1287702Y526867D01*
X1287765Y526773D01*
X1287826Y526677D01*
X1287884Y526579D01*
X1287938Y526479D01*
X1287988Y526377D01*
X1288035Y526274D01*
X1288079Y526169D01*
X1288119Y526062D01*
X1288155Y525954D01*
X1288188Y525845D01*
X1288216Y525735D01*
X1288241Y525625D01*
X1288263Y525513D01*
X1288280Y525400D01*
X1288294Y525288D01*
X1288303Y525174D01*
X1288309Y525061D01*
X1288311Y524947D01*
X1288311Y523282D01*
X1281650Y523282D01*
D11*
X1168400Y657860D02*
X-68580Y657860D01*
D12*
X1200889Y660358D02*
X1204219Y650367D01*
X1207550Y660358D01*
X1214334Y656195D02*
X1224325Y656195D01*
X1232879Y656195D02*
X1237042Y654530D01*
X1232879Y656194D02*
X1232794Y656230D01*
X1232711Y656270D01*
X1232630Y656313D01*
X1232550Y656360D01*
X1232473Y656410D01*
X1232397Y656463D01*
X1232324Y656519D01*
X1232254Y656579D01*
X1232186Y656641D01*
X1232121Y656706D01*
X1232059Y656774D01*
X1231999Y656845D01*
X1231943Y656918D01*
X1231890Y656993D01*
X1231840Y657071D01*
X1231794Y657150D01*
X1231751Y657232D01*
X1231711Y657315D01*
X1231675Y657400D01*
X1231643Y657486D01*
X1231614Y657574D01*
X1231590Y657663D01*
X1231569Y657753D01*
X1231552Y657843D01*
X1231538Y657934D01*
X1231529Y658026D01*
X1231524Y658118D01*
X1231522Y658210D01*
X1231524Y658302D01*
X1231531Y658394D01*
X1231541Y658486D01*
X1231555Y658577D01*
X1231573Y658668D01*
X1231595Y658757D01*
X1231621Y658846D01*
X1231651Y658933D01*
X1231684Y659019D01*
X1231721Y659103D01*
X1231761Y659186D01*
X1231805Y659267D01*
X1231852Y659346D01*
X1231903Y659423D01*
X1231957Y659498D01*
X1232014Y659571D01*
X1232074Y659641D01*
X1232137Y659708D01*
X1232203Y659772D01*
X1232271Y659834D01*
X1232342Y659893D01*
X1232416Y659948D01*
X1232492Y660001D01*
X1232570Y660050D01*
X1232650Y660096D01*
X1232731Y660138D01*
X1232815Y660177D01*
X1232900Y660212D01*
X1232987Y660243D01*
X1233075Y660271D01*
X1233164Y660295D01*
X1233254Y660315D01*
X1233344Y660332D01*
X1233436Y660344D01*
X1233528Y660353D01*
X1233620Y660357D01*
X1233712Y660358D01*
X1233939Y660352D01*
X1234166Y660341D01*
X1234393Y660324D01*
X1234619Y660301D01*
X1234845Y660274D01*
X1235070Y660240D01*
X1235294Y660202D01*
X1235517Y660158D01*
X1235739Y660109D01*
X1235960Y660054D01*
X1236179Y659994D01*
X1236397Y659929D01*
X1236613Y659858D01*
X1236827Y659783D01*
X1237040Y659702D01*
X1237250Y659616D01*
X1237459Y659525D01*
X1237042Y654530D02*
X1237127Y654494D01*
X1237210Y654454D01*
X1237291Y654411D01*
X1237371Y654364D01*
X1237448Y654314D01*
X1237524Y654261D01*
X1237597Y654205D01*
X1237667Y654145D01*
X1237735Y654083D01*
X1237800Y654018D01*
X1237862Y653950D01*
X1237922Y653879D01*
X1237978Y653806D01*
X1238031Y653731D01*
X1238081Y653653D01*
X1238127Y653574D01*
X1238170Y653492D01*
X1238210Y653409D01*
X1238246Y653324D01*
X1238278Y653238D01*
X1238307Y653150D01*
X1238331Y653061D01*
X1238352Y652971D01*
X1238369Y652881D01*
X1238383Y652790D01*
X1238392Y652698D01*
X1238397Y652606D01*
X1238399Y652514D01*
X1238397Y652422D01*
X1238390Y652330D01*
X1238380Y652238D01*
X1238366Y652147D01*
X1238348Y652056D01*
X1238326Y651967D01*
X1238300Y651878D01*
X1238270Y651791D01*
X1238237Y651705D01*
X1238200Y651621D01*
X1238160Y651538D01*
X1238116Y651457D01*
X1238069Y651378D01*
X1238018Y651301D01*
X1237964Y651226D01*
X1237907Y651153D01*
X1237847Y651083D01*
X1237784Y651016D01*
X1237718Y650952D01*
X1237650Y650890D01*
X1237579Y650831D01*
X1237505Y650776D01*
X1237429Y650723D01*
X1237351Y650674D01*
X1237271Y650628D01*
X1237190Y650586D01*
X1237106Y650547D01*
X1237021Y650512D01*
X1236934Y650481D01*
X1236846Y650453D01*
X1236757Y650429D01*
X1236667Y650409D01*
X1236577Y650392D01*
X1236485Y650380D01*
X1236393Y650371D01*
X1236301Y650367D01*
X1236209Y650366D01*
X1236209Y650367D02*
X1235875Y650376D01*
X1235542Y650393D01*
X1235209Y650417D01*
X1234876Y650450D01*
X1234545Y650490D01*
X1234214Y650538D01*
X1233885Y650594D01*
X1233557Y650657D01*
X1233231Y650729D01*
X1232907Y650808D01*
X1232584Y650894D01*
X1232264Y650989D01*
X1231946Y651091D01*
X1231630Y651200D01*
X1247702Y650367D02*
X1251032Y650367D01*
X1247702Y650367D02*
X1247604Y650369D01*
X1247506Y650375D01*
X1247408Y650384D01*
X1247311Y650398D01*
X1247215Y650415D01*
X1247119Y650436D01*
X1247024Y650461D01*
X1246930Y650489D01*
X1246837Y650521D01*
X1246746Y650557D01*
X1246656Y650596D01*
X1246568Y650639D01*
X1246481Y650686D01*
X1246397Y650735D01*
X1246314Y650788D01*
X1246234Y650844D01*
X1246156Y650903D01*
X1246080Y650966D01*
X1246006Y651031D01*
X1245936Y651099D01*
X1245868Y651169D01*
X1245803Y651243D01*
X1245740Y651319D01*
X1245681Y651397D01*
X1245625Y651477D01*
X1245572Y651560D01*
X1245523Y651644D01*
X1245476Y651731D01*
X1245433Y651819D01*
X1245394Y651909D01*
X1245358Y652000D01*
X1245326Y652093D01*
X1245298Y652187D01*
X1245273Y652282D01*
X1245252Y652378D01*
X1245235Y652474D01*
X1245221Y652571D01*
X1245212Y652669D01*
X1245206Y652767D01*
X1245204Y652865D01*
X1245204Y657860D01*
X1245206Y657958D01*
X1245212Y658056D01*
X1245221Y658154D01*
X1245235Y658251D01*
X1245252Y658347D01*
X1245273Y658443D01*
X1245298Y658538D01*
X1245326Y658632D01*
X1245358Y658725D01*
X1245394Y658816D01*
X1245433Y658906D01*
X1245476Y658994D01*
X1245523Y659081D01*
X1245572Y659165D01*
X1245625Y659248D01*
X1245681Y659328D01*
X1245740Y659407D01*
X1245803Y659482D01*
X1245868Y659556D01*
X1245936Y659626D01*
X1246006Y659694D01*
X1246080Y659760D01*
X1246156Y659822D01*
X1246234Y659881D01*
X1246314Y659937D01*
X1246397Y659990D01*
X1246481Y660040D01*
X1246568Y660086D01*
X1246656Y660129D01*
X1246746Y660168D01*
X1246837Y660204D01*
X1246930Y660236D01*
X1247024Y660264D01*
X1247119Y660289D01*
X1247215Y660310D01*
X1247311Y660327D01*
X1247408Y660341D01*
X1247506Y660350D01*
X1247604Y660356D01*
X1247702Y660358D01*
X1251032Y660358D01*
X1257162Y657027D02*
X1257162Y653697D01*
X1257162Y657027D02*
X1257164Y657141D01*
X1257170Y657254D01*
X1257179Y657368D01*
X1257193Y657480D01*
X1257210Y657593D01*
X1257232Y657705D01*
X1257257Y657815D01*
X1257285Y657925D01*
X1257318Y658034D01*
X1257354Y658142D01*
X1257394Y658249D01*
X1257438Y658354D01*
X1257485Y658457D01*
X1257535Y658559D01*
X1257589Y658659D01*
X1257647Y658757D01*
X1257708Y658853D01*
X1257771Y658947D01*
X1257839Y659039D01*
X1257909Y659129D01*
X1257982Y659215D01*
X1258058Y659300D01*
X1258137Y659382D01*
X1258219Y659461D01*
X1258304Y659537D01*
X1258390Y659610D01*
X1258480Y659680D01*
X1258572Y659748D01*
X1258666Y659811D01*
X1258762Y659872D01*
X1258860Y659930D01*
X1258960Y659984D01*
X1259062Y660034D01*
X1259165Y660081D01*
X1259270Y660125D01*
X1259377Y660165D01*
X1259485Y660201D01*
X1259594Y660234D01*
X1259704Y660262D01*
X1259814Y660287D01*
X1259926Y660309D01*
X1260039Y660326D01*
X1260151Y660340D01*
X1260265Y660349D01*
X1260378Y660355D01*
X1260492Y660357D01*
X1260606Y660355D01*
X1260719Y660349D01*
X1260833Y660340D01*
X1260945Y660326D01*
X1261058Y660309D01*
X1261170Y660287D01*
X1261280Y660262D01*
X1261390Y660234D01*
X1261499Y660201D01*
X1261607Y660165D01*
X1261714Y660125D01*
X1261819Y660081D01*
X1261922Y660034D01*
X1262024Y659984D01*
X1262124Y659930D01*
X1262222Y659872D01*
X1262318Y659811D01*
X1262412Y659748D01*
X1262504Y659680D01*
X1262594Y659610D01*
X1262680Y659537D01*
X1262765Y659461D01*
X1262847Y659382D01*
X1262926Y659300D01*
X1263002Y659215D01*
X1263075Y659129D01*
X1263145Y659039D01*
X1263213Y658947D01*
X1263276Y658853D01*
X1263337Y658757D01*
X1263395Y658659D01*
X1263449Y658559D01*
X1263499Y658457D01*
X1263546Y658354D01*
X1263590Y658249D01*
X1263630Y658142D01*
X1263666Y658034D01*
X1263699Y657925D01*
X1263727Y657815D01*
X1263752Y657705D01*
X1263774Y657593D01*
X1263791Y657480D01*
X1263805Y657368D01*
X1263814Y657254D01*
X1263820Y657141D01*
X1263822Y657027D01*
X1263822Y653697D01*
X1263820Y653583D01*
X1263814Y653470D01*
X1263805Y653356D01*
X1263791Y653244D01*
X1263774Y653131D01*
X1263752Y653019D01*
X1263727Y652909D01*
X1263699Y652799D01*
X1263666Y652690D01*
X1263630Y652582D01*
X1263590Y652475D01*
X1263546Y652370D01*
X1263499Y652267D01*
X1263449Y652165D01*
X1263395Y652065D01*
X1263337Y651967D01*
X1263276Y651871D01*
X1263213Y651777D01*
X1263145Y651685D01*
X1263075Y651595D01*
X1263002Y651509D01*
X1262926Y651424D01*
X1262847Y651342D01*
X1262765Y651263D01*
X1262680Y651187D01*
X1262594Y651114D01*
X1262504Y651044D01*
X1262412Y650976D01*
X1262318Y650913D01*
X1262222Y650852D01*
X1262124Y650794D01*
X1262024Y650740D01*
X1261922Y650690D01*
X1261819Y650643D01*
X1261714Y650599D01*
X1261607Y650559D01*
X1261499Y650523D01*
X1261390Y650490D01*
X1261280Y650462D01*
X1261170Y650437D01*
X1261058Y650415D01*
X1260945Y650398D01*
X1260833Y650384D01*
X1260719Y650375D01*
X1260606Y650369D01*
X1260492Y650367D01*
X1260378Y650369D01*
X1260265Y650375D01*
X1260151Y650384D01*
X1260039Y650398D01*
X1259926Y650415D01*
X1259814Y650437D01*
X1259704Y650462D01*
X1259594Y650490D01*
X1259485Y650523D01*
X1259377Y650559D01*
X1259270Y650599D01*
X1259165Y650643D01*
X1259062Y650690D01*
X1258960Y650740D01*
X1258860Y650794D01*
X1258762Y650852D01*
X1258666Y650913D01*
X1258572Y650976D01*
X1258480Y651044D01*
X1258390Y651114D01*
X1258304Y651187D01*
X1258219Y651263D01*
X1258137Y651342D01*
X1258058Y651424D01*
X1257982Y651509D01*
X1257909Y651595D01*
X1257839Y651685D01*
X1257771Y651777D01*
X1257708Y651871D01*
X1257647Y651967D01*
X1257589Y652065D01*
X1257535Y652165D01*
X1257485Y652267D01*
X1257438Y652370D01*
X1257394Y652475D01*
X1257354Y652582D01*
X1257318Y652690D01*
X1257285Y652799D01*
X1257257Y652909D01*
X1257232Y653019D01*
X1257210Y653131D01*
X1257193Y653244D01*
X1257179Y653356D01*
X1257170Y653470D01*
X1257164Y653583D01*
X1257162Y653697D01*
X1271358Y650367D02*
X1271358Y660358D01*
X1276353Y660358D01*
X1276353Y658693D01*
X1284148Y650367D02*
X1288311Y650367D01*
X1284148Y650367D02*
X1284050Y650369D01*
X1283952Y650375D01*
X1283854Y650384D01*
X1283757Y650398D01*
X1283661Y650415D01*
X1283565Y650436D01*
X1283470Y650461D01*
X1283376Y650489D01*
X1283283Y650521D01*
X1283192Y650557D01*
X1283102Y650596D01*
X1283014Y650639D01*
X1282927Y650686D01*
X1282843Y650735D01*
X1282760Y650788D01*
X1282680Y650844D01*
X1282602Y650903D01*
X1282526Y650966D01*
X1282452Y651031D01*
X1282382Y651099D01*
X1282314Y651169D01*
X1282249Y651243D01*
X1282186Y651319D01*
X1282127Y651397D01*
X1282071Y651477D01*
X1282018Y651560D01*
X1281969Y651644D01*
X1281922Y651731D01*
X1281879Y651819D01*
X1281840Y651909D01*
X1281804Y652000D01*
X1281772Y652093D01*
X1281744Y652187D01*
X1281719Y652282D01*
X1281698Y652378D01*
X1281681Y652474D01*
X1281667Y652571D01*
X1281658Y652669D01*
X1281652Y652767D01*
X1281650Y652865D01*
X1281650Y657027D01*
X1281651Y657027D02*
X1281653Y657141D01*
X1281659Y657254D01*
X1281668Y657368D01*
X1281682Y657480D01*
X1281699Y657593D01*
X1281721Y657705D01*
X1281746Y657815D01*
X1281774Y657925D01*
X1281807Y658034D01*
X1281843Y658142D01*
X1281883Y658249D01*
X1281927Y658354D01*
X1281974Y658457D01*
X1282024Y658559D01*
X1282078Y658659D01*
X1282136Y658757D01*
X1282197Y658853D01*
X1282260Y658947D01*
X1282328Y659039D01*
X1282398Y659129D01*
X1282471Y659215D01*
X1282547Y659300D01*
X1282626Y659382D01*
X1282708Y659461D01*
X1282793Y659537D01*
X1282879Y659610D01*
X1282969Y659680D01*
X1283061Y659748D01*
X1283155Y659811D01*
X1283251Y659872D01*
X1283349Y659930D01*
X1283449Y659984D01*
X1283551Y660034D01*
X1283654Y660081D01*
X1283759Y660125D01*
X1283866Y660165D01*
X1283974Y660201D01*
X1284083Y660234D01*
X1284193Y660262D01*
X1284303Y660287D01*
X1284415Y660309D01*
X1284528Y660326D01*
X1284640Y660340D01*
X1284754Y660349D01*
X1284867Y660355D01*
X1284981Y660357D01*
X1285095Y660355D01*
X1285208Y660349D01*
X1285322Y660340D01*
X1285434Y660326D01*
X1285547Y660309D01*
X1285659Y660287D01*
X1285769Y660262D01*
X1285879Y660234D01*
X1285988Y660201D01*
X1286096Y660165D01*
X1286203Y660125D01*
X1286308Y660081D01*
X1286411Y660034D01*
X1286513Y659984D01*
X1286613Y659930D01*
X1286711Y659872D01*
X1286807Y659811D01*
X1286901Y659748D01*
X1286993Y659680D01*
X1287083Y659610D01*
X1287169Y659537D01*
X1287254Y659461D01*
X1287336Y659382D01*
X1287415Y659300D01*
X1287491Y659215D01*
X1287564Y659129D01*
X1287634Y659039D01*
X1287702Y658947D01*
X1287765Y658853D01*
X1287826Y658757D01*
X1287884Y658659D01*
X1287938Y658559D01*
X1287988Y658457D01*
X1288035Y658354D01*
X1288079Y658249D01*
X1288119Y658142D01*
X1288155Y658034D01*
X1288188Y657925D01*
X1288216Y657815D01*
X1288241Y657705D01*
X1288263Y657593D01*
X1288280Y657480D01*
X1288294Y657368D01*
X1288303Y657254D01*
X1288309Y657141D01*
X1288311Y657027D01*
X1288311Y655362D01*
X1281650Y655362D01*
D11*
X1168400Y789940D02*
X-68580Y789940D01*
D12*
X1200889Y792438D02*
X1204219Y782447D01*
X1207550Y792438D01*
X1214334Y788275D02*
X1224325Y788275D01*
X1232879Y788275D02*
X1237042Y786610D01*
X1232879Y788274D02*
X1232794Y788310D01*
X1232711Y788350D01*
X1232630Y788393D01*
X1232550Y788440D01*
X1232473Y788490D01*
X1232397Y788543D01*
X1232324Y788599D01*
X1232254Y788659D01*
X1232186Y788721D01*
X1232121Y788786D01*
X1232059Y788854D01*
X1231999Y788925D01*
X1231943Y788998D01*
X1231890Y789073D01*
X1231840Y789151D01*
X1231794Y789230D01*
X1231751Y789312D01*
X1231711Y789395D01*
X1231675Y789480D01*
X1231643Y789566D01*
X1231614Y789654D01*
X1231590Y789743D01*
X1231569Y789833D01*
X1231552Y789923D01*
X1231538Y790014D01*
X1231529Y790106D01*
X1231524Y790198D01*
X1231522Y790290D01*
X1231524Y790382D01*
X1231531Y790474D01*
X1231541Y790566D01*
X1231555Y790657D01*
X1231573Y790748D01*
X1231595Y790837D01*
X1231621Y790926D01*
X1231651Y791013D01*
X1231684Y791099D01*
X1231721Y791183D01*
X1231761Y791266D01*
X1231805Y791347D01*
X1231852Y791426D01*
X1231903Y791503D01*
X1231957Y791578D01*
X1232014Y791651D01*
X1232074Y791721D01*
X1232137Y791788D01*
X1232203Y791852D01*
X1232271Y791914D01*
X1232342Y791973D01*
X1232416Y792028D01*
X1232492Y792081D01*
X1232570Y792130D01*
X1232650Y792176D01*
X1232731Y792218D01*
X1232815Y792257D01*
X1232900Y792292D01*
X1232987Y792323D01*
X1233075Y792351D01*
X1233164Y792375D01*
X1233254Y792395D01*
X1233344Y792412D01*
X1233436Y792424D01*
X1233528Y792433D01*
X1233620Y792437D01*
X1233712Y792438D01*
X1233939Y792432D01*
X1234166Y792421D01*
X1234393Y792404D01*
X1234619Y792381D01*
X1234845Y792354D01*
X1235070Y792320D01*
X1235294Y792282D01*
X1235517Y792238D01*
X1235739Y792189D01*
X1235960Y792134D01*
X1236179Y792074D01*
X1236397Y792009D01*
X1236613Y791938D01*
X1236827Y791863D01*
X1237040Y791782D01*
X1237250Y791696D01*
X1237459Y791605D01*
X1237042Y786610D02*
X1237127Y786574D01*
X1237210Y786534D01*
X1237291Y786491D01*
X1237371Y786444D01*
X1237448Y786394D01*
X1237524Y786341D01*
X1237597Y786285D01*
X1237667Y786225D01*
X1237735Y786163D01*
X1237800Y786098D01*
X1237862Y786030D01*
X1237922Y785959D01*
X1237978Y785886D01*
X1238031Y785811D01*
X1238081Y785733D01*
X1238127Y785654D01*
X1238170Y785572D01*
X1238210Y785489D01*
X1238246Y785404D01*
X1238278Y785318D01*
X1238307Y785230D01*
X1238331Y785141D01*
X1238352Y785051D01*
X1238369Y784961D01*
X1238383Y784870D01*
X1238392Y784778D01*
X1238397Y784686D01*
X1238399Y784594D01*
X1238397Y784502D01*
X1238390Y784410D01*
X1238380Y784318D01*
X1238366Y784227D01*
X1238348Y784136D01*
X1238326Y784047D01*
X1238300Y783958D01*
X1238270Y783871D01*
X1238237Y783785D01*
X1238200Y783701D01*
X1238160Y783618D01*
X1238116Y783537D01*
X1238069Y783458D01*
X1238018Y783381D01*
X1237964Y783306D01*
X1237907Y783233D01*
X1237847Y783163D01*
X1237784Y783096D01*
X1237718Y783032D01*
X1237650Y782970D01*
X1237579Y782911D01*
X1237505Y782856D01*
X1237429Y782803D01*
X1237351Y782754D01*
X1237271Y782708D01*
X1237190Y782666D01*
X1237106Y782627D01*
X1237021Y782592D01*
X1236934Y782561D01*
X1236846Y782533D01*
X1236757Y782509D01*
X1236667Y782489D01*
X1236577Y782472D01*
X1236485Y782460D01*
X1236393Y782451D01*
X1236301Y782447D01*
X1236209Y782446D01*
X1236209Y782447D02*
X1235875Y782456D01*
X1235542Y782473D01*
X1235209Y782497D01*
X1234876Y782530D01*
X1234545Y782570D01*
X1234214Y782618D01*
X1233885Y782674D01*
X1233557Y782737D01*
X1233231Y782809D01*
X1232907Y782888D01*
X1232584Y782974D01*
X1232264Y783069D01*
X1231946Y783171D01*
X1231630Y783280D01*
X1247702Y782447D02*
X1251032Y782447D01*
X1247702Y782447D02*
X1247604Y782449D01*
X1247506Y782455D01*
X1247408Y782464D01*
X1247311Y782478D01*
X1247215Y782495D01*
X1247119Y782516D01*
X1247024Y782541D01*
X1246930Y782569D01*
X1246837Y782601D01*
X1246746Y782637D01*
X1246656Y782676D01*
X1246568Y782719D01*
X1246481Y782766D01*
X1246397Y782815D01*
X1246314Y782868D01*
X1246234Y782924D01*
X1246156Y782983D01*
X1246080Y783046D01*
X1246006Y783111D01*
X1245936Y783179D01*
X1245868Y783249D01*
X1245803Y783323D01*
X1245740Y783399D01*
X1245681Y783477D01*
X1245625Y783557D01*
X1245572Y783640D01*
X1245523Y783724D01*
X1245476Y783811D01*
X1245433Y783899D01*
X1245394Y783989D01*
X1245358Y784080D01*
X1245326Y784173D01*
X1245298Y784267D01*
X1245273Y784362D01*
X1245252Y784458D01*
X1245235Y784554D01*
X1245221Y784651D01*
X1245212Y784749D01*
X1245206Y784847D01*
X1245204Y784945D01*
X1245204Y789940D01*
X1245206Y790038D01*
X1245212Y790136D01*
X1245221Y790234D01*
X1245235Y790331D01*
X1245252Y790427D01*
X1245273Y790523D01*
X1245298Y790618D01*
X1245326Y790712D01*
X1245358Y790805D01*
X1245394Y790896D01*
X1245433Y790986D01*
X1245476Y791074D01*
X1245523Y791161D01*
X1245572Y791245D01*
X1245625Y791328D01*
X1245681Y791408D01*
X1245740Y791487D01*
X1245803Y791562D01*
X1245868Y791636D01*
X1245936Y791706D01*
X1246006Y791774D01*
X1246080Y791840D01*
X1246156Y791902D01*
X1246234Y791961D01*
X1246314Y792017D01*
X1246397Y792070D01*
X1246481Y792120D01*
X1246568Y792166D01*
X1246656Y792209D01*
X1246746Y792248D01*
X1246837Y792284D01*
X1246930Y792316D01*
X1247024Y792344D01*
X1247119Y792369D01*
X1247215Y792390D01*
X1247311Y792407D01*
X1247408Y792421D01*
X1247506Y792430D01*
X1247604Y792436D01*
X1247702Y792438D01*
X1251032Y792438D01*
X1257162Y789107D02*
X1257162Y785777D01*
X1257162Y789107D02*
X1257164Y789221D01*
X1257170Y789334D01*
X1257179Y789448D01*
X1257193Y789560D01*
X1257210Y789673D01*
X1257232Y789785D01*
X1257257Y789895D01*
X1257285Y790005D01*
X1257318Y790114D01*
X1257354Y790222D01*
X1257394Y790329D01*
X1257438Y790434D01*
X1257485Y790537D01*
X1257535Y790639D01*
X1257589Y790739D01*
X1257647Y790837D01*
X1257708Y790933D01*
X1257771Y791027D01*
X1257839Y791119D01*
X1257909Y791209D01*
X1257982Y791295D01*
X1258058Y791380D01*
X1258137Y791462D01*
X1258219Y791541D01*
X1258304Y791617D01*
X1258390Y791690D01*
X1258480Y791760D01*
X1258572Y791828D01*
X1258666Y791891D01*
X1258762Y791952D01*
X1258860Y792010D01*
X1258960Y792064D01*
X1259062Y792114D01*
X1259165Y792161D01*
X1259270Y792205D01*
X1259377Y792245D01*
X1259485Y792281D01*
X1259594Y792314D01*
X1259704Y792342D01*
X1259814Y792367D01*
X1259926Y792389D01*
X1260039Y792406D01*
X1260151Y792420D01*
X1260265Y792429D01*
X1260378Y792435D01*
X1260492Y792437D01*
X1260606Y792435D01*
X1260719Y792429D01*
X1260833Y792420D01*
X1260945Y792406D01*
X1261058Y792389D01*
X1261170Y792367D01*
X1261280Y792342D01*
X1261390Y792314D01*
X1261499Y792281D01*
X1261607Y792245D01*
X1261714Y792205D01*
X1261819Y792161D01*
X1261922Y792114D01*
X1262024Y792064D01*
X1262124Y792010D01*
X1262222Y791952D01*
X1262318Y791891D01*
X1262412Y791828D01*
X1262504Y791760D01*
X1262594Y791690D01*
X1262680Y791617D01*
X1262765Y791541D01*
X1262847Y791462D01*
X1262926Y791380D01*
X1263002Y791295D01*
X1263075Y791209D01*
X1263145Y791119D01*
X1263213Y791027D01*
X1263276Y790933D01*
X1263337Y790837D01*
X1263395Y790739D01*
X1263449Y790639D01*
X1263499Y790537D01*
X1263546Y790434D01*
X1263590Y790329D01*
X1263630Y790222D01*
X1263666Y790114D01*
X1263699Y790005D01*
X1263727Y789895D01*
X1263752Y789785D01*
X1263774Y789673D01*
X1263791Y789560D01*
X1263805Y789448D01*
X1263814Y789334D01*
X1263820Y789221D01*
X1263822Y789107D01*
X1263822Y785777D01*
X1263820Y785663D01*
X1263814Y785550D01*
X1263805Y785436D01*
X1263791Y785324D01*
X1263774Y785211D01*
X1263752Y785099D01*
X1263727Y784989D01*
X1263699Y784879D01*
X1263666Y784770D01*
X1263630Y784662D01*
X1263590Y784555D01*
X1263546Y784450D01*
X1263499Y784347D01*
X1263449Y784245D01*
X1263395Y784145D01*
X1263337Y784047D01*
X1263276Y783951D01*
X1263213Y783857D01*
X1263145Y783765D01*
X1263075Y783675D01*
X1263002Y783589D01*
X1262926Y783504D01*
X1262847Y783422D01*
X1262765Y783343D01*
X1262680Y783267D01*
X1262594Y783194D01*
X1262504Y783124D01*
X1262412Y783056D01*
X1262318Y782993D01*
X1262222Y782932D01*
X1262124Y782874D01*
X1262024Y782820D01*
X1261922Y782770D01*
X1261819Y782723D01*
X1261714Y782679D01*
X1261607Y782639D01*
X1261499Y782603D01*
X1261390Y782570D01*
X1261280Y782542D01*
X1261170Y782517D01*
X1261058Y782495D01*
X1260945Y782478D01*
X1260833Y782464D01*
X1260719Y782455D01*
X1260606Y782449D01*
X1260492Y782447D01*
X1260378Y782449D01*
X1260265Y782455D01*
X1260151Y782464D01*
X1260039Y782478D01*
X1259926Y782495D01*
X1259814Y782517D01*
X1259704Y782542D01*
X1259594Y782570D01*
X1259485Y782603D01*
X1259377Y782639D01*
X1259270Y782679D01*
X1259165Y782723D01*
X1259062Y782770D01*
X1258960Y782820D01*
X1258860Y782874D01*
X1258762Y782932D01*
X1258666Y782993D01*
X1258572Y783056D01*
X1258480Y783124D01*
X1258390Y783194D01*
X1258304Y783267D01*
X1258219Y783343D01*
X1258137Y783422D01*
X1258058Y783504D01*
X1257982Y783589D01*
X1257909Y783675D01*
X1257839Y783765D01*
X1257771Y783857D01*
X1257708Y783951D01*
X1257647Y784047D01*
X1257589Y784145D01*
X1257535Y784245D01*
X1257485Y784347D01*
X1257438Y784450D01*
X1257394Y784555D01*
X1257354Y784662D01*
X1257318Y784770D01*
X1257285Y784879D01*
X1257257Y784989D01*
X1257232Y785099D01*
X1257210Y785211D01*
X1257193Y785324D01*
X1257179Y785436D01*
X1257170Y785550D01*
X1257164Y785663D01*
X1257162Y785777D01*
X1271358Y782447D02*
X1271358Y792438D01*
X1276353Y792438D01*
X1276353Y790773D01*
X1284148Y782447D02*
X1288311Y782447D01*
X1284148Y782447D02*
X1284050Y782449D01*
X1283952Y782455D01*
X1283854Y782464D01*
X1283757Y782478D01*
X1283661Y782495D01*
X1283565Y782516D01*
X1283470Y782541D01*
X1283376Y782569D01*
X1283283Y782601D01*
X1283192Y782637D01*
X1283102Y782676D01*
X1283014Y782719D01*
X1282927Y782766D01*
X1282843Y782815D01*
X1282760Y782868D01*
X1282680Y782924D01*
X1282602Y782983D01*
X1282526Y783046D01*
X1282452Y783111D01*
X1282382Y783179D01*
X1282314Y783249D01*
X1282249Y783323D01*
X1282186Y783399D01*
X1282127Y783477D01*
X1282071Y783557D01*
X1282018Y783640D01*
X1281969Y783724D01*
X1281922Y783811D01*
X1281879Y783899D01*
X1281840Y783989D01*
X1281804Y784080D01*
X1281772Y784173D01*
X1281744Y784267D01*
X1281719Y784362D01*
X1281698Y784458D01*
X1281681Y784554D01*
X1281667Y784651D01*
X1281658Y784749D01*
X1281652Y784847D01*
X1281650Y784945D01*
X1281650Y789107D01*
X1281651Y789107D02*
X1281653Y789221D01*
X1281659Y789334D01*
X1281668Y789448D01*
X1281682Y789560D01*
X1281699Y789673D01*
X1281721Y789785D01*
X1281746Y789895D01*
X1281774Y790005D01*
X1281807Y790114D01*
X1281843Y790222D01*
X1281883Y790329D01*
X1281927Y790434D01*
X1281974Y790537D01*
X1282024Y790639D01*
X1282078Y790739D01*
X1282136Y790837D01*
X1282197Y790933D01*
X1282260Y791027D01*
X1282328Y791119D01*
X1282398Y791209D01*
X1282471Y791295D01*
X1282547Y791380D01*
X1282626Y791462D01*
X1282708Y791541D01*
X1282793Y791617D01*
X1282879Y791690D01*
X1282969Y791760D01*
X1283061Y791828D01*
X1283155Y791891D01*
X1283251Y791952D01*
X1283349Y792010D01*
X1283449Y792064D01*
X1283551Y792114D01*
X1283654Y792161D01*
X1283759Y792205D01*
X1283866Y792245D01*
X1283974Y792281D01*
X1284083Y792314D01*
X1284193Y792342D01*
X1284303Y792367D01*
X1284415Y792389D01*
X1284528Y792406D01*
X1284640Y792420D01*
X1284754Y792429D01*
X1284867Y792435D01*
X1284981Y792437D01*
X1285095Y792435D01*
X1285208Y792429D01*
X1285322Y792420D01*
X1285434Y792406D01*
X1285547Y792389D01*
X1285659Y792367D01*
X1285769Y792342D01*
X1285879Y792314D01*
X1285988Y792281D01*
X1286096Y792245D01*
X1286203Y792205D01*
X1286308Y792161D01*
X1286411Y792114D01*
X1286513Y792064D01*
X1286613Y792010D01*
X1286711Y791952D01*
X1286807Y791891D01*
X1286901Y791828D01*
X1286993Y791760D01*
X1287083Y791690D01*
X1287169Y791617D01*
X1287254Y791541D01*
X1287336Y791462D01*
X1287415Y791380D01*
X1287491Y791295D01*
X1287564Y791209D01*
X1287634Y791119D01*
X1287702Y791027D01*
X1287765Y790933D01*
X1287826Y790837D01*
X1287884Y790739D01*
X1287938Y790639D01*
X1287988Y790537D01*
X1288035Y790434D01*
X1288079Y790329D01*
X1288119Y790222D01*
X1288155Y790114D01*
X1288188Y790005D01*
X1288216Y789895D01*
X1288241Y789785D01*
X1288263Y789673D01*
X1288280Y789560D01*
X1288294Y789448D01*
X1288303Y789334D01*
X1288309Y789221D01*
X1288311Y789107D01*
X1288311Y787442D01*
X1281650Y787442D01*
D11*
X1168400Y922020D02*
X-68580Y922020D01*
D12*
X1200889Y924518D02*
X1204219Y914527D01*
X1207550Y924518D01*
X1214334Y920355D02*
X1224325Y920355D01*
X1232879Y920355D02*
X1237042Y918690D01*
X1232879Y920354D02*
X1232794Y920390D01*
X1232711Y920430D01*
X1232630Y920473D01*
X1232550Y920520D01*
X1232473Y920570D01*
X1232397Y920623D01*
X1232324Y920679D01*
X1232254Y920739D01*
X1232186Y920801D01*
X1232121Y920866D01*
X1232059Y920934D01*
X1231999Y921005D01*
X1231943Y921078D01*
X1231890Y921153D01*
X1231840Y921231D01*
X1231794Y921310D01*
X1231751Y921392D01*
X1231711Y921475D01*
X1231675Y921560D01*
X1231643Y921646D01*
X1231614Y921734D01*
X1231590Y921823D01*
X1231569Y921913D01*
X1231552Y922003D01*
X1231538Y922094D01*
X1231529Y922186D01*
X1231524Y922278D01*
X1231522Y922370D01*
X1231524Y922462D01*
X1231531Y922554D01*
X1231541Y922646D01*
X1231555Y922737D01*
X1231573Y922828D01*
X1231595Y922917D01*
X1231621Y923006D01*
X1231651Y923093D01*
X1231684Y923179D01*
X1231721Y923263D01*
X1231761Y923346D01*
X1231805Y923427D01*
X1231852Y923506D01*
X1231903Y923583D01*
X1231957Y923658D01*
X1232014Y923731D01*
X1232074Y923801D01*
X1232137Y923868D01*
X1232203Y923932D01*
X1232271Y923994D01*
X1232342Y924053D01*
X1232416Y924108D01*
X1232492Y924161D01*
X1232570Y924210D01*
X1232650Y924256D01*
X1232731Y924298D01*
X1232815Y924337D01*
X1232900Y924372D01*
X1232987Y924403D01*
X1233075Y924431D01*
X1233164Y924455D01*
X1233254Y924475D01*
X1233344Y924492D01*
X1233436Y924504D01*
X1233528Y924513D01*
X1233620Y924517D01*
X1233712Y924518D01*
X1233939Y924512D01*
X1234166Y924501D01*
X1234393Y924484D01*
X1234619Y924461D01*
X1234845Y924434D01*
X1235070Y924400D01*
X1235294Y924362D01*
X1235517Y924318D01*
X1235739Y924269D01*
X1235960Y924214D01*
X1236179Y924154D01*
X1236397Y924089D01*
X1236613Y924018D01*
X1236827Y923943D01*
X1237040Y923862D01*
X1237250Y923776D01*
X1237459Y923685D01*
X1237042Y918690D02*
X1237127Y918654D01*
X1237210Y918614D01*
X1237291Y918571D01*
X1237371Y918524D01*
X1237448Y918474D01*
X1237524Y918421D01*
X1237597Y918365D01*
X1237667Y918305D01*
X1237735Y918243D01*
X1237800Y918178D01*
X1237862Y918110D01*
X1237922Y918039D01*
X1237978Y917966D01*
X1238031Y917891D01*
X1238081Y917813D01*
X1238127Y917734D01*
X1238170Y917652D01*
X1238210Y917569D01*
X1238246Y917484D01*
X1238278Y917398D01*
X1238307Y917310D01*
X1238331Y917221D01*
X1238352Y917131D01*
X1238369Y917041D01*
X1238383Y916950D01*
X1238392Y916858D01*
X1238397Y916766D01*
X1238399Y916674D01*
X1238397Y916582D01*
X1238390Y916490D01*
X1238380Y916398D01*
X1238366Y916307D01*
X1238348Y916216D01*
X1238326Y916127D01*
X1238300Y916038D01*
X1238270Y915951D01*
X1238237Y915865D01*
X1238200Y915781D01*
X1238160Y915698D01*
X1238116Y915617D01*
X1238069Y915538D01*
X1238018Y915461D01*
X1237964Y915386D01*
X1237907Y915313D01*
X1237847Y915243D01*
X1237784Y915176D01*
X1237718Y915112D01*
X1237650Y915050D01*
X1237579Y914991D01*
X1237505Y914936D01*
X1237429Y914883D01*
X1237351Y914834D01*
X1237271Y914788D01*
X1237190Y914746D01*
X1237106Y914707D01*
X1237021Y914672D01*
X1236934Y914641D01*
X1236846Y914613D01*
X1236757Y914589D01*
X1236667Y914569D01*
X1236577Y914552D01*
X1236485Y914540D01*
X1236393Y914531D01*
X1236301Y914527D01*
X1236209Y914526D01*
X1236209Y914527D02*
X1235875Y914536D01*
X1235542Y914553D01*
X1235209Y914577D01*
X1234876Y914610D01*
X1234545Y914650D01*
X1234214Y914698D01*
X1233885Y914754D01*
X1233557Y914817D01*
X1233231Y914889D01*
X1232907Y914968D01*
X1232584Y915054D01*
X1232264Y915149D01*
X1231946Y915251D01*
X1231630Y915360D01*
X1247702Y914527D02*
X1251032Y914527D01*
X1247702Y914527D02*
X1247604Y914529D01*
X1247506Y914535D01*
X1247408Y914544D01*
X1247311Y914558D01*
X1247215Y914575D01*
X1247119Y914596D01*
X1247024Y914621D01*
X1246930Y914649D01*
X1246837Y914681D01*
X1246746Y914717D01*
X1246656Y914756D01*
X1246568Y914799D01*
X1246481Y914846D01*
X1246397Y914895D01*
X1246314Y914948D01*
X1246234Y915004D01*
X1246156Y915063D01*
X1246080Y915126D01*
X1246006Y915191D01*
X1245936Y915259D01*
X1245868Y915329D01*
X1245803Y915403D01*
X1245740Y915479D01*
X1245681Y915557D01*
X1245625Y915637D01*
X1245572Y915720D01*
X1245523Y915804D01*
X1245476Y915891D01*
X1245433Y915979D01*
X1245394Y916069D01*
X1245358Y916160D01*
X1245326Y916253D01*
X1245298Y916347D01*
X1245273Y916442D01*
X1245252Y916538D01*
X1245235Y916634D01*
X1245221Y916731D01*
X1245212Y916829D01*
X1245206Y916927D01*
X1245204Y917025D01*
X1245204Y922020D01*
X1245206Y922118D01*
X1245212Y922216D01*
X1245221Y922314D01*
X1245235Y922411D01*
X1245252Y922507D01*
X1245273Y922603D01*
X1245298Y922698D01*
X1245326Y922792D01*
X1245358Y922885D01*
X1245394Y922976D01*
X1245433Y923066D01*
X1245476Y923154D01*
X1245523Y923241D01*
X1245572Y923325D01*
X1245625Y923408D01*
X1245681Y923488D01*
X1245740Y923567D01*
X1245803Y923642D01*
X1245868Y923716D01*
X1245936Y923786D01*
X1246006Y923854D01*
X1246080Y923920D01*
X1246156Y923982D01*
X1246234Y924041D01*
X1246314Y924097D01*
X1246397Y924150D01*
X1246481Y924200D01*
X1246568Y924246D01*
X1246656Y924289D01*
X1246746Y924328D01*
X1246837Y924364D01*
X1246930Y924396D01*
X1247024Y924424D01*
X1247119Y924449D01*
X1247215Y924470D01*
X1247311Y924487D01*
X1247408Y924501D01*
X1247506Y924510D01*
X1247604Y924516D01*
X1247702Y924518D01*
X1251032Y924518D01*
X1257162Y921187D02*
X1257162Y917857D01*
X1257162Y921187D02*
X1257164Y921301D01*
X1257170Y921414D01*
X1257179Y921528D01*
X1257193Y921640D01*
X1257210Y921753D01*
X1257232Y921865D01*
X1257257Y921975D01*
X1257285Y922085D01*
X1257318Y922194D01*
X1257354Y922302D01*
X1257394Y922409D01*
X1257438Y922514D01*
X1257485Y922617D01*
X1257535Y922719D01*
X1257589Y922819D01*
X1257647Y922917D01*
X1257708Y923013D01*
X1257771Y923107D01*
X1257839Y923199D01*
X1257909Y923289D01*
X1257982Y923375D01*
X1258058Y923460D01*
X1258137Y923542D01*
X1258219Y923621D01*
X1258304Y923697D01*
X1258390Y923770D01*
X1258480Y923840D01*
X1258572Y923908D01*
X1258666Y923971D01*
X1258762Y924032D01*
X1258860Y924090D01*
X1258960Y924144D01*
X1259062Y924194D01*
X1259165Y924241D01*
X1259270Y924285D01*
X1259377Y924325D01*
X1259485Y924361D01*
X1259594Y924394D01*
X1259704Y924422D01*
X1259814Y924447D01*
X1259926Y924469D01*
X1260039Y924486D01*
X1260151Y924500D01*
X1260265Y924509D01*
X1260378Y924515D01*
X1260492Y924517D01*
X1260606Y924515D01*
X1260719Y924509D01*
X1260833Y924500D01*
X1260945Y924486D01*
X1261058Y924469D01*
X1261170Y924447D01*
X1261280Y924422D01*
X1261390Y924394D01*
X1261499Y924361D01*
X1261607Y924325D01*
X1261714Y924285D01*
X1261819Y924241D01*
X1261922Y924194D01*
X1262024Y924144D01*
X1262124Y924090D01*
X1262222Y924032D01*
X1262318Y923971D01*
X1262412Y923908D01*
X1262504Y923840D01*
X1262594Y923770D01*
X1262680Y923697D01*
X1262765Y923621D01*
X1262847Y923542D01*
X1262926Y923460D01*
X1263002Y923375D01*
X1263075Y923289D01*
X1263145Y923199D01*
X1263213Y923107D01*
X1263276Y923013D01*
X1263337Y922917D01*
X1263395Y922819D01*
X1263449Y922719D01*
X1263499Y922617D01*
X1263546Y922514D01*
X1263590Y922409D01*
X1263630Y922302D01*
X1263666Y922194D01*
X1263699Y922085D01*
X1263727Y921975D01*
X1263752Y921865D01*
X1263774Y921753D01*
X1263791Y921640D01*
X1263805Y921528D01*
X1263814Y921414D01*
X1263820Y921301D01*
X1263822Y921187D01*
X1263822Y917857D01*
X1263820Y917743D01*
X1263814Y917630D01*
X1263805Y917516D01*
X1263791Y917404D01*
X1263774Y917291D01*
X1263752Y917179D01*
X1263727Y917069D01*
X1263699Y916959D01*
X1263666Y916850D01*
X1263630Y916742D01*
X1263590Y916635D01*
X1263546Y916530D01*
X1263499Y916427D01*
X1263449Y916325D01*
X1263395Y916225D01*
X1263337Y916127D01*
X1263276Y916031D01*
X1263213Y915937D01*
X1263145Y915845D01*
X1263075Y915755D01*
X1263002Y915669D01*
X1262926Y915584D01*
X1262847Y915502D01*
X1262765Y915423D01*
X1262680Y915347D01*
X1262594Y915274D01*
X1262504Y915204D01*
X1262412Y915136D01*
X1262318Y915073D01*
X1262222Y915012D01*
X1262124Y914954D01*
X1262024Y914900D01*
X1261922Y914850D01*
X1261819Y914803D01*
X1261714Y914759D01*
X1261607Y914719D01*
X1261499Y914683D01*
X1261390Y914650D01*
X1261280Y914622D01*
X1261170Y914597D01*
X1261058Y914575D01*
X1260945Y914558D01*
X1260833Y914544D01*
X1260719Y914535D01*
X1260606Y914529D01*
X1260492Y914527D01*
X1260378Y914529D01*
X1260265Y914535D01*
X1260151Y914544D01*
X1260039Y914558D01*
X1259926Y914575D01*
X1259814Y914597D01*
X1259704Y914622D01*
X1259594Y914650D01*
X1259485Y914683D01*
X1259377Y914719D01*
X1259270Y914759D01*
X1259165Y914803D01*
X1259062Y914850D01*
X1258960Y914900D01*
X1258860Y914954D01*
X1258762Y915012D01*
X1258666Y915073D01*
X1258572Y915136D01*
X1258480Y915204D01*
X1258390Y915274D01*
X1258304Y915347D01*
X1258219Y915423D01*
X1258137Y915502D01*
X1258058Y915584D01*
X1257982Y915669D01*
X1257909Y915755D01*
X1257839Y915845D01*
X1257771Y915937D01*
X1257708Y916031D01*
X1257647Y916127D01*
X1257589Y916225D01*
X1257535Y916325D01*
X1257485Y916427D01*
X1257438Y916530D01*
X1257394Y916635D01*
X1257354Y916742D01*
X1257318Y916850D01*
X1257285Y916959D01*
X1257257Y917069D01*
X1257232Y917179D01*
X1257210Y917291D01*
X1257193Y917404D01*
X1257179Y917516D01*
X1257170Y917630D01*
X1257164Y917743D01*
X1257162Y917857D01*
X1271358Y914527D02*
X1271358Y924518D01*
X1276353Y924518D01*
X1276353Y922853D01*
X1284148Y914527D02*
X1288311Y914527D01*
X1284148Y914527D02*
X1284050Y914529D01*
X1283952Y914535D01*
X1283854Y914544D01*
X1283757Y914558D01*
X1283661Y914575D01*
X1283565Y914596D01*
X1283470Y914621D01*
X1283376Y914649D01*
X1283283Y914681D01*
X1283192Y914717D01*
X1283102Y914756D01*
X1283014Y914799D01*
X1282927Y914846D01*
X1282843Y914895D01*
X1282760Y914948D01*
X1282680Y915004D01*
X1282602Y915063D01*
X1282526Y915126D01*
X1282452Y915191D01*
X1282382Y915259D01*
X1282314Y915329D01*
X1282249Y915403D01*
X1282186Y915479D01*
X1282127Y915557D01*
X1282071Y915637D01*
X1282018Y915720D01*
X1281969Y915804D01*
X1281922Y915891D01*
X1281879Y915979D01*
X1281840Y916069D01*
X1281804Y916160D01*
X1281772Y916253D01*
X1281744Y916347D01*
X1281719Y916442D01*
X1281698Y916538D01*
X1281681Y916634D01*
X1281667Y916731D01*
X1281658Y916829D01*
X1281652Y916927D01*
X1281650Y917025D01*
X1281650Y921187D01*
X1281651Y921187D02*
X1281653Y921301D01*
X1281659Y921414D01*
X1281668Y921528D01*
X1281682Y921640D01*
X1281699Y921753D01*
X1281721Y921865D01*
X1281746Y921975D01*
X1281774Y922085D01*
X1281807Y922194D01*
X1281843Y922302D01*
X1281883Y922409D01*
X1281927Y922514D01*
X1281974Y922617D01*
X1282024Y922719D01*
X1282078Y922819D01*
X1282136Y922917D01*
X1282197Y923013D01*
X1282260Y923107D01*
X1282328Y923199D01*
X1282398Y923289D01*
X1282471Y923375D01*
X1282547Y923460D01*
X1282626Y923542D01*
X1282708Y923621D01*
X1282793Y923697D01*
X1282879Y923770D01*
X1282969Y923840D01*
X1283061Y923908D01*
X1283155Y923971D01*
X1283251Y924032D01*
X1283349Y924090D01*
X1283449Y924144D01*
X1283551Y924194D01*
X1283654Y924241D01*
X1283759Y924285D01*
X1283866Y924325D01*
X1283974Y924361D01*
X1284083Y924394D01*
X1284193Y924422D01*
X1284303Y924447D01*
X1284415Y924469D01*
X1284528Y924486D01*
X1284640Y924500D01*
X1284754Y924509D01*
X1284867Y924515D01*
X1284981Y924517D01*
X1285095Y924515D01*
X1285208Y924509D01*
X1285322Y924500D01*
X1285434Y924486D01*
X1285547Y924469D01*
X1285659Y924447D01*
X1285769Y924422D01*
X1285879Y924394D01*
X1285988Y924361D01*
X1286096Y924325D01*
X1286203Y924285D01*
X1286308Y924241D01*
X1286411Y924194D01*
X1286513Y924144D01*
X1286613Y924090D01*
X1286711Y924032D01*
X1286807Y923971D01*
X1286901Y923908D01*
X1286993Y923840D01*
X1287083Y923770D01*
X1287169Y923697D01*
X1287254Y923621D01*
X1287336Y923542D01*
X1287415Y923460D01*
X1287491Y923375D01*
X1287564Y923289D01*
X1287634Y923199D01*
X1287702Y923107D01*
X1287765Y923013D01*
X1287826Y922917D01*
X1287884Y922819D01*
X1287938Y922719D01*
X1287988Y922617D01*
X1288035Y922514D01*
X1288079Y922409D01*
X1288119Y922302D01*
X1288155Y922194D01*
X1288188Y922085D01*
X1288216Y921975D01*
X1288241Y921865D01*
X1288263Y921753D01*
X1288280Y921640D01*
X1288294Y921528D01*
X1288303Y921414D01*
X1288309Y921301D01*
X1288311Y921187D01*
X1288311Y919522D01*
X1281650Y919522D01*
D11*
X1168400Y1054100D02*
X-68580Y1054100D01*
D12*
X1200889Y1056598D02*
X1204219Y1046607D01*
X1207550Y1056598D01*
X1214334Y1052435D02*
X1224325Y1052435D01*
X1232879Y1052435D02*
X1237042Y1050770D01*
X1232879Y1052434D02*
X1232794Y1052470D01*
X1232711Y1052510D01*
X1232630Y1052553D01*
X1232550Y1052600D01*
X1232473Y1052650D01*
X1232397Y1052703D01*
X1232324Y1052759D01*
X1232254Y1052819D01*
X1232186Y1052881D01*
X1232121Y1052946D01*
X1232059Y1053014D01*
X1231999Y1053085D01*
X1231943Y1053158D01*
X1231890Y1053233D01*
X1231840Y1053311D01*
X1231794Y1053390D01*
X1231751Y1053472D01*
X1231711Y1053555D01*
X1231675Y1053640D01*
X1231643Y1053726D01*
X1231614Y1053814D01*
X1231590Y1053903D01*
X1231569Y1053993D01*
X1231552Y1054083D01*
X1231538Y1054174D01*
X1231529Y1054266D01*
X1231524Y1054358D01*
X1231522Y1054450D01*
X1231524Y1054542D01*
X1231531Y1054634D01*
X1231541Y1054726D01*
X1231555Y1054817D01*
X1231573Y1054908D01*
X1231595Y1054997D01*
X1231621Y1055086D01*
X1231651Y1055173D01*
X1231684Y1055259D01*
X1231721Y1055343D01*
X1231761Y1055426D01*
X1231805Y1055507D01*
X1231852Y1055586D01*
X1231903Y1055663D01*
X1231957Y1055738D01*
X1232014Y1055811D01*
X1232074Y1055881D01*
X1232137Y1055948D01*
X1232203Y1056012D01*
X1232271Y1056074D01*
X1232342Y1056133D01*
X1232416Y1056188D01*
X1232492Y1056241D01*
X1232570Y1056290D01*
X1232650Y1056336D01*
X1232731Y1056378D01*
X1232815Y1056417D01*
X1232900Y1056452D01*
X1232987Y1056483D01*
X1233075Y1056511D01*
X1233164Y1056535D01*
X1233254Y1056555D01*
X1233344Y1056572D01*
X1233436Y1056584D01*
X1233528Y1056593D01*
X1233620Y1056597D01*
X1233712Y1056598D01*
X1233939Y1056592D01*
X1234166Y1056581D01*
X1234393Y1056564D01*
X1234619Y1056541D01*
X1234845Y1056514D01*
X1235070Y1056480D01*
X1235294Y1056442D01*
X1235517Y1056398D01*
X1235739Y1056349D01*
X1235960Y1056294D01*
X1236179Y1056234D01*
X1236397Y1056169D01*
X1236613Y1056098D01*
X1236827Y1056023D01*
X1237040Y1055942D01*
X1237250Y1055856D01*
X1237459Y1055765D01*
X1237042Y1050770D02*
X1237127Y1050734D01*
X1237210Y1050694D01*
X1237291Y1050651D01*
X1237371Y1050604D01*
X1237448Y1050554D01*
X1237524Y1050501D01*
X1237597Y1050445D01*
X1237667Y1050385D01*
X1237735Y1050323D01*
X1237800Y1050258D01*
X1237862Y1050190D01*
X1237922Y1050119D01*
X1237978Y1050046D01*
X1238031Y1049971D01*
X1238081Y1049893D01*
X1238127Y1049814D01*
X1238170Y1049732D01*
X1238210Y1049649D01*
X1238246Y1049564D01*
X1238278Y1049478D01*
X1238307Y1049390D01*
X1238331Y1049301D01*
X1238352Y1049211D01*
X1238369Y1049121D01*
X1238383Y1049030D01*
X1238392Y1048938D01*
X1238397Y1048846D01*
X1238399Y1048754D01*
X1238397Y1048662D01*
X1238390Y1048570D01*
X1238380Y1048478D01*
X1238366Y1048387D01*
X1238348Y1048296D01*
X1238326Y1048207D01*
X1238300Y1048118D01*
X1238270Y1048031D01*
X1238237Y1047945D01*
X1238200Y1047861D01*
X1238160Y1047778D01*
X1238116Y1047697D01*
X1238069Y1047618D01*
X1238018Y1047541D01*
X1237964Y1047466D01*
X1237907Y1047393D01*
X1237847Y1047323D01*
X1237784Y1047256D01*
X1237718Y1047192D01*
X1237650Y1047130D01*
X1237579Y1047071D01*
X1237505Y1047016D01*
X1237429Y1046963D01*
X1237351Y1046914D01*
X1237271Y1046868D01*
X1237190Y1046826D01*
X1237106Y1046787D01*
X1237021Y1046752D01*
X1236934Y1046721D01*
X1236846Y1046693D01*
X1236757Y1046669D01*
X1236667Y1046649D01*
X1236577Y1046632D01*
X1236485Y1046620D01*
X1236393Y1046611D01*
X1236301Y1046607D01*
X1236209Y1046606D01*
X1236209Y1046607D02*
X1235875Y1046616D01*
X1235542Y1046633D01*
X1235209Y1046657D01*
X1234876Y1046690D01*
X1234545Y1046730D01*
X1234214Y1046778D01*
X1233885Y1046834D01*
X1233557Y1046897D01*
X1233231Y1046969D01*
X1232907Y1047048D01*
X1232584Y1047134D01*
X1232264Y1047229D01*
X1231946Y1047331D01*
X1231630Y1047440D01*
X1247702Y1046607D02*
X1251032Y1046607D01*
X1247702Y1046607D02*
X1247604Y1046609D01*
X1247506Y1046615D01*
X1247408Y1046624D01*
X1247311Y1046638D01*
X1247215Y1046655D01*
X1247119Y1046676D01*
X1247024Y1046701D01*
X1246930Y1046729D01*
X1246837Y1046761D01*
X1246746Y1046797D01*
X1246656Y1046836D01*
X1246568Y1046879D01*
X1246481Y1046926D01*
X1246397Y1046975D01*
X1246314Y1047028D01*
X1246234Y1047084D01*
X1246156Y1047143D01*
X1246080Y1047206D01*
X1246006Y1047271D01*
X1245936Y1047339D01*
X1245868Y1047409D01*
X1245803Y1047483D01*
X1245740Y1047559D01*
X1245681Y1047637D01*
X1245625Y1047717D01*
X1245572Y1047800D01*
X1245523Y1047884D01*
X1245476Y1047971D01*
X1245433Y1048059D01*
X1245394Y1048149D01*
X1245358Y1048240D01*
X1245326Y1048333D01*
X1245298Y1048427D01*
X1245273Y1048522D01*
X1245252Y1048618D01*
X1245235Y1048714D01*
X1245221Y1048811D01*
X1245212Y1048909D01*
X1245206Y1049007D01*
X1245204Y1049105D01*
X1245204Y1054100D01*
X1245206Y1054198D01*
X1245212Y1054296D01*
X1245221Y1054394D01*
X1245235Y1054491D01*
X1245252Y1054587D01*
X1245273Y1054683D01*
X1245298Y1054778D01*
X1245326Y1054872D01*
X1245358Y1054965D01*
X1245394Y1055056D01*
X1245433Y1055146D01*
X1245476Y1055234D01*
X1245523Y1055321D01*
X1245572Y1055405D01*
X1245625Y1055488D01*
X1245681Y1055568D01*
X1245740Y1055647D01*
X1245803Y1055722D01*
X1245868Y1055796D01*
X1245936Y1055866D01*
X1246006Y1055934D01*
X1246080Y1056000D01*
X1246156Y1056062D01*
X1246234Y1056121D01*
X1246314Y1056177D01*
X1246397Y1056230D01*
X1246481Y1056280D01*
X1246568Y1056326D01*
X1246656Y1056369D01*
X1246746Y1056408D01*
X1246837Y1056444D01*
X1246930Y1056476D01*
X1247024Y1056504D01*
X1247119Y1056529D01*
X1247215Y1056550D01*
X1247311Y1056567D01*
X1247408Y1056581D01*
X1247506Y1056590D01*
X1247604Y1056596D01*
X1247702Y1056598D01*
X1251032Y1056598D01*
X1257162Y1053267D02*
X1257162Y1049937D01*
X1257162Y1053267D02*
X1257164Y1053381D01*
X1257170Y1053494D01*
X1257179Y1053608D01*
X1257193Y1053720D01*
X1257210Y1053833D01*
X1257232Y1053945D01*
X1257257Y1054055D01*
X1257285Y1054165D01*
X1257318Y1054274D01*
X1257354Y1054382D01*
X1257394Y1054489D01*
X1257438Y1054594D01*
X1257485Y1054697D01*
X1257535Y1054799D01*
X1257589Y1054899D01*
X1257647Y1054997D01*
X1257708Y1055093D01*
X1257771Y1055187D01*
X1257839Y1055279D01*
X1257909Y1055369D01*
X1257982Y1055455D01*
X1258058Y1055540D01*
X1258137Y1055622D01*
X1258219Y1055701D01*
X1258304Y1055777D01*
X1258390Y1055850D01*
X1258480Y1055920D01*
X1258572Y1055988D01*
X1258666Y1056051D01*
X1258762Y1056112D01*
X1258860Y1056170D01*
X1258960Y1056224D01*
X1259062Y1056274D01*
X1259165Y1056321D01*
X1259270Y1056365D01*
X1259377Y1056405D01*
X1259485Y1056441D01*
X1259594Y1056474D01*
X1259704Y1056502D01*
X1259814Y1056527D01*
X1259926Y1056549D01*
X1260039Y1056566D01*
X1260151Y1056580D01*
X1260265Y1056589D01*
X1260378Y1056595D01*
X1260492Y1056597D01*
X1260606Y1056595D01*
X1260719Y1056589D01*
X1260833Y1056580D01*
X1260945Y1056566D01*
X1261058Y1056549D01*
X1261170Y1056527D01*
X1261280Y1056502D01*
X1261390Y1056474D01*
X1261499Y1056441D01*
X1261607Y1056405D01*
X1261714Y1056365D01*
X1261819Y1056321D01*
X1261922Y1056274D01*
X1262024Y1056224D01*
X1262124Y1056170D01*
X1262222Y1056112D01*
X1262318Y1056051D01*
X1262412Y1055988D01*
X1262504Y1055920D01*
X1262594Y1055850D01*
X1262680Y1055777D01*
X1262765Y1055701D01*
X1262847Y1055622D01*
X1262926Y1055540D01*
X1263002Y1055455D01*
X1263075Y1055369D01*
X1263145Y1055279D01*
X1263213Y1055187D01*
X1263276Y1055093D01*
X1263337Y1054997D01*
X1263395Y1054899D01*
X1263449Y1054799D01*
X1263499Y1054697D01*
X1263546Y1054594D01*
X1263590Y1054489D01*
X1263630Y1054382D01*
X1263666Y1054274D01*
X1263699Y1054165D01*
X1263727Y1054055D01*
X1263752Y1053945D01*
X1263774Y1053833D01*
X1263791Y1053720D01*
X1263805Y1053608D01*
X1263814Y1053494D01*
X1263820Y1053381D01*
X1263822Y1053267D01*
X1263822Y1049937D01*
X1263820Y1049823D01*
X1263814Y1049710D01*
X1263805Y1049596D01*
X1263791Y1049484D01*
X1263774Y1049371D01*
X1263752Y1049259D01*
X1263727Y1049149D01*
X1263699Y1049039D01*
X1263666Y1048930D01*
X1263630Y1048822D01*
X1263590Y1048715D01*
X1263546Y1048610D01*
X1263499Y1048507D01*
X1263449Y1048405D01*
X1263395Y1048305D01*
X1263337Y1048207D01*
X1263276Y1048111D01*
X1263213Y1048017D01*
X1263145Y1047925D01*
X1263075Y1047835D01*
X1263002Y1047749D01*
X1262926Y1047664D01*
X1262847Y1047582D01*
X1262765Y1047503D01*
X1262680Y1047427D01*
X1262594Y1047354D01*
X1262504Y1047284D01*
X1262412Y1047216D01*
X1262318Y1047153D01*
X1262222Y1047092D01*
X1262124Y1047034D01*
X1262024Y1046980D01*
X1261922Y1046930D01*
X1261819Y1046883D01*
X1261714Y1046839D01*
X1261607Y1046799D01*
X1261499Y1046763D01*
X1261390Y1046730D01*
X1261280Y1046702D01*
X1261170Y1046677D01*
X1261058Y1046655D01*
X1260945Y1046638D01*
X1260833Y1046624D01*
X1260719Y1046615D01*
X1260606Y1046609D01*
X1260492Y1046607D01*
X1260378Y1046609D01*
X1260265Y1046615D01*
X1260151Y1046624D01*
X1260039Y1046638D01*
X1259926Y1046655D01*
X1259814Y1046677D01*
X1259704Y1046702D01*
X1259594Y1046730D01*
X1259485Y1046763D01*
X1259377Y1046799D01*
X1259270Y1046839D01*
X1259165Y1046883D01*
X1259062Y1046930D01*
X1258960Y1046980D01*
X1258860Y1047034D01*
X1258762Y1047092D01*
X1258666Y1047153D01*
X1258572Y1047216D01*
X1258480Y1047284D01*
X1258390Y1047354D01*
X1258304Y1047427D01*
X1258219Y1047503D01*
X1258137Y1047582D01*
X1258058Y1047664D01*
X1257982Y1047749D01*
X1257909Y1047835D01*
X1257839Y1047925D01*
X1257771Y1048017D01*
X1257708Y1048111D01*
X1257647Y1048207D01*
X1257589Y1048305D01*
X1257535Y1048405D01*
X1257485Y1048507D01*
X1257438Y1048610D01*
X1257394Y1048715D01*
X1257354Y1048822D01*
X1257318Y1048930D01*
X1257285Y1049039D01*
X1257257Y1049149D01*
X1257232Y1049259D01*
X1257210Y1049371D01*
X1257193Y1049484D01*
X1257179Y1049596D01*
X1257170Y1049710D01*
X1257164Y1049823D01*
X1257162Y1049937D01*
X1271358Y1046607D02*
X1271358Y1056598D01*
X1276353Y1056598D01*
X1276353Y1054933D01*
X1284148Y1046607D02*
X1288311Y1046607D01*
X1284148Y1046607D02*
X1284050Y1046609D01*
X1283952Y1046615D01*
X1283854Y1046624D01*
X1283757Y1046638D01*
X1283661Y1046655D01*
X1283565Y1046676D01*
X1283470Y1046701D01*
X1283376Y1046729D01*
X1283283Y1046761D01*
X1283192Y1046797D01*
X1283102Y1046836D01*
X1283014Y1046879D01*
X1282927Y1046926D01*
X1282843Y1046975D01*
X1282760Y1047028D01*
X1282680Y1047084D01*
X1282602Y1047143D01*
X1282526Y1047206D01*
X1282452Y1047271D01*
X1282382Y1047339D01*
X1282314Y1047409D01*
X1282249Y1047483D01*
X1282186Y1047559D01*
X1282127Y1047637D01*
X1282071Y1047717D01*
X1282018Y1047800D01*
X1281969Y1047884D01*
X1281922Y1047971D01*
X1281879Y1048059D01*
X1281840Y1048149D01*
X1281804Y1048240D01*
X1281772Y1048333D01*
X1281744Y1048427D01*
X1281719Y1048522D01*
X1281698Y1048618D01*
X1281681Y1048714D01*
X1281667Y1048811D01*
X1281658Y1048909D01*
X1281652Y1049007D01*
X1281650Y1049105D01*
X1281650Y1053267D01*
X1281651Y1053267D02*
X1281653Y1053381D01*
X1281659Y1053494D01*
X1281668Y1053608D01*
X1281682Y1053720D01*
X1281699Y1053833D01*
X1281721Y1053945D01*
X1281746Y1054055D01*
X1281774Y1054165D01*
X1281807Y1054274D01*
X1281843Y1054382D01*
X1281883Y1054489D01*
X1281927Y1054594D01*
X1281974Y1054697D01*
X1282024Y1054799D01*
X1282078Y1054899D01*
X1282136Y1054997D01*
X1282197Y1055093D01*
X1282260Y1055187D01*
X1282328Y1055279D01*
X1282398Y1055369D01*
X1282471Y1055455D01*
X1282547Y1055540D01*
X1282626Y1055622D01*
X1282708Y1055701D01*
X1282793Y1055777D01*
X1282879Y1055850D01*
X1282969Y1055920D01*
X1283061Y1055988D01*
X1283155Y1056051D01*
X1283251Y1056112D01*
X1283349Y1056170D01*
X1283449Y1056224D01*
X1283551Y1056274D01*
X1283654Y1056321D01*
X1283759Y1056365D01*
X1283866Y1056405D01*
X1283974Y1056441D01*
X1284083Y1056474D01*
X1284193Y1056502D01*
X1284303Y1056527D01*
X1284415Y1056549D01*
X1284528Y1056566D01*
X1284640Y1056580D01*
X1284754Y1056589D01*
X1284867Y1056595D01*
X1284981Y1056597D01*
X1285095Y1056595D01*
X1285208Y1056589D01*
X1285322Y1056580D01*
X1285434Y1056566D01*
X1285547Y1056549D01*
X1285659Y1056527D01*
X1285769Y1056502D01*
X1285879Y1056474D01*
X1285988Y1056441D01*
X1286096Y1056405D01*
X1286203Y1056365D01*
X1286308Y1056321D01*
X1286411Y1056274D01*
X1286513Y1056224D01*
X1286613Y1056170D01*
X1286711Y1056112D01*
X1286807Y1056051D01*
X1286901Y1055988D01*
X1286993Y1055920D01*
X1287083Y1055850D01*
X1287169Y1055777D01*
X1287254Y1055701D01*
X1287336Y1055622D01*
X1287415Y1055540D01*
X1287491Y1055455D01*
X1287564Y1055369D01*
X1287634Y1055279D01*
X1287702Y1055187D01*
X1287765Y1055093D01*
X1287826Y1054997D01*
X1287884Y1054899D01*
X1287938Y1054799D01*
X1287988Y1054697D01*
X1288035Y1054594D01*
X1288079Y1054489D01*
X1288119Y1054382D01*
X1288155Y1054274D01*
X1288188Y1054165D01*
X1288216Y1054055D01*
X1288241Y1053945D01*
X1288263Y1053833D01*
X1288280Y1053720D01*
X1288294Y1053608D01*
X1288303Y1053494D01*
X1288309Y1053381D01*
X1288311Y1053267D01*
X1288311Y1051602D01*
X1281650Y1051602D01*
D13*
X1104900Y-5080D02*
X-68580Y-5080D01*
X1104900Y-5080D02*
X1104900Y-68580D01*
X-68580Y-68580D01*
X-68580Y-5080D01*
X1041400Y1051560D02*
X1104900Y1051560D01*
X1104900Y0D01*
X1041400Y0D01*
X1041400Y1051560D01*
X1104900Y1120140D02*
X-68580Y1120140D01*
X1104900Y1120140D02*
X1104900Y1056640D01*
X-68580Y1056640D01*
X-68580Y1120140D01*
X-68580Y1051560D02*
X-5080Y1051560D01*
X-5080Y0D01*
X-68580Y0D01*
X-68580Y1051560D01*
M02*
