G04 EAGLE Gerber RS-274X export*
G75*
%MOMM*%
%FSLAX34Y34*%
%LPD*%
%INSoldermask Top*%
%IPPOS*%
%AMOC8*
5,1,8,0,0,1.08239X$1,22.5*%
G01*
%ADD10C,0.838200*%
%ADD11R,1.053200X0.703200*%
%ADD12R,1.203200X1.303200*%
%ADD13C,2.082800*%
%ADD14C,1.203200*%
%ADD15C,1.270000*%
%ADD16C,1.703200*%

G36*
X315196Y966816D02*
X315196Y966816D01*
X315213Y966813D01*
X315263Y966835D01*
X315314Y966850D01*
X315325Y966863D01*
X315341Y966870D01*
X315371Y966915D01*
X315406Y966955D01*
X315409Y966972D01*
X315418Y966987D01*
X315429Y967060D01*
X315429Y1009310D01*
X315424Y1009326D01*
X315427Y1009343D01*
X315405Y1009393D01*
X315390Y1009444D01*
X315377Y1009455D01*
X315370Y1009471D01*
X315325Y1009501D01*
X315285Y1009536D01*
X315268Y1009539D01*
X315254Y1009548D01*
X315180Y1009559D01*
X311080Y1009559D01*
X311022Y1009542D01*
X310964Y1009530D01*
X310952Y1009522D01*
X310946Y1009520D01*
X310939Y1009512D01*
X310904Y1009486D01*
X304404Y1002986D01*
X304375Y1002934D01*
X304342Y1002884D01*
X304340Y1002869D01*
X304337Y1002864D01*
X304337Y1002853D01*
X304331Y1002810D01*
X304331Y967060D01*
X304336Y967044D01*
X304333Y967027D01*
X304355Y966977D01*
X304370Y966926D01*
X304383Y966915D01*
X304390Y966899D01*
X304435Y966869D01*
X304475Y966834D01*
X304492Y966831D01*
X304507Y966822D01*
X304580Y966811D01*
X315180Y966811D01*
X315196Y966816D01*
G37*
G36*
X731756Y966816D02*
X731756Y966816D01*
X731773Y966813D01*
X731823Y966835D01*
X731874Y966850D01*
X731885Y966863D01*
X731901Y966870D01*
X731931Y966915D01*
X731966Y966955D01*
X731969Y966972D01*
X731978Y966987D01*
X731989Y967060D01*
X731989Y1009310D01*
X731984Y1009326D01*
X731987Y1009343D01*
X731965Y1009393D01*
X731950Y1009444D01*
X731937Y1009455D01*
X731930Y1009471D01*
X731885Y1009501D01*
X731845Y1009536D01*
X731828Y1009539D01*
X731814Y1009548D01*
X731740Y1009559D01*
X727640Y1009559D01*
X727582Y1009542D01*
X727524Y1009530D01*
X727512Y1009522D01*
X727506Y1009520D01*
X727499Y1009512D01*
X727464Y1009486D01*
X720964Y1002986D01*
X720935Y1002934D01*
X720902Y1002884D01*
X720900Y1002869D01*
X720897Y1002864D01*
X720897Y1002853D01*
X720891Y1002810D01*
X720891Y967060D01*
X720896Y967044D01*
X720893Y967027D01*
X720915Y966977D01*
X720930Y966926D01*
X720943Y966915D01*
X720950Y966899D01*
X720995Y966869D01*
X721035Y966834D01*
X721052Y966831D01*
X721067Y966822D01*
X721140Y966811D01*
X731740Y966811D01*
X731756Y966816D01*
G37*
G36*
X523476Y966816D02*
X523476Y966816D01*
X523493Y966813D01*
X523543Y966835D01*
X523594Y966850D01*
X523605Y966863D01*
X523621Y966870D01*
X523651Y966915D01*
X523686Y966955D01*
X523689Y966972D01*
X523698Y966987D01*
X523709Y967060D01*
X523709Y1009310D01*
X523704Y1009326D01*
X523707Y1009343D01*
X523685Y1009393D01*
X523670Y1009444D01*
X523657Y1009455D01*
X523650Y1009471D01*
X523605Y1009501D01*
X523565Y1009536D01*
X523548Y1009539D01*
X523534Y1009548D01*
X523460Y1009559D01*
X519360Y1009559D01*
X519302Y1009542D01*
X519244Y1009530D01*
X519232Y1009522D01*
X519226Y1009520D01*
X519219Y1009512D01*
X519184Y1009486D01*
X512684Y1002986D01*
X512655Y1002934D01*
X512622Y1002884D01*
X512620Y1002869D01*
X512617Y1002864D01*
X512617Y1002853D01*
X512611Y1002810D01*
X512611Y967060D01*
X512616Y967044D01*
X512613Y967027D01*
X512635Y966977D01*
X512650Y966926D01*
X512663Y966915D01*
X512670Y966899D01*
X512715Y966869D01*
X512755Y966834D01*
X512772Y966831D01*
X512787Y966822D01*
X512860Y966811D01*
X523460Y966811D01*
X523476Y966816D01*
G37*
G36*
X106916Y966816D02*
X106916Y966816D01*
X106933Y966813D01*
X106983Y966835D01*
X107034Y966850D01*
X107045Y966863D01*
X107061Y966870D01*
X107091Y966915D01*
X107126Y966955D01*
X107129Y966972D01*
X107138Y966987D01*
X107149Y967060D01*
X107149Y1009310D01*
X107144Y1009326D01*
X107147Y1009343D01*
X107125Y1009393D01*
X107110Y1009444D01*
X107097Y1009455D01*
X107090Y1009471D01*
X107045Y1009501D01*
X107005Y1009536D01*
X106988Y1009539D01*
X106974Y1009548D01*
X106900Y1009559D01*
X102800Y1009559D01*
X102742Y1009542D01*
X102684Y1009530D01*
X102672Y1009522D01*
X102666Y1009520D01*
X102659Y1009512D01*
X102624Y1009486D01*
X96124Y1002986D01*
X96095Y1002934D01*
X96062Y1002884D01*
X96060Y1002869D01*
X96057Y1002864D01*
X96057Y1002853D01*
X96051Y1002810D01*
X96051Y967060D01*
X96056Y967044D01*
X96053Y967027D01*
X96075Y966977D01*
X96090Y966926D01*
X96103Y966915D01*
X96110Y966899D01*
X96155Y966869D01*
X96195Y966834D01*
X96212Y966831D01*
X96227Y966822D01*
X96300Y966811D01*
X106900Y966811D01*
X106916Y966816D01*
G37*
G36*
X940036Y966816D02*
X940036Y966816D01*
X940053Y966813D01*
X940103Y966835D01*
X940154Y966850D01*
X940165Y966863D01*
X940181Y966870D01*
X940211Y966915D01*
X940246Y966955D01*
X940249Y966972D01*
X940258Y966987D01*
X940269Y967060D01*
X940269Y1009310D01*
X940264Y1009326D01*
X940267Y1009343D01*
X940245Y1009393D01*
X940230Y1009444D01*
X940217Y1009455D01*
X940210Y1009471D01*
X940165Y1009501D01*
X940125Y1009536D01*
X940108Y1009539D01*
X940094Y1009548D01*
X940020Y1009559D01*
X935920Y1009559D01*
X935862Y1009542D01*
X935804Y1009530D01*
X935792Y1009522D01*
X935786Y1009520D01*
X935779Y1009512D01*
X935744Y1009486D01*
X929244Y1002986D01*
X929215Y1002934D01*
X929182Y1002884D01*
X929180Y1002869D01*
X929177Y1002864D01*
X929177Y1002853D01*
X929171Y1002810D01*
X929171Y967060D01*
X929176Y967044D01*
X929173Y967027D01*
X929195Y966977D01*
X929210Y966926D01*
X929223Y966915D01*
X929230Y966899D01*
X929275Y966869D01*
X929315Y966834D01*
X929332Y966831D01*
X929347Y966822D01*
X929420Y966811D01*
X940020Y966811D01*
X940036Y966816D01*
G37*
G36*
X106916Y834736D02*
X106916Y834736D01*
X106933Y834733D01*
X106983Y834755D01*
X107034Y834770D01*
X107045Y834783D01*
X107061Y834790D01*
X107091Y834835D01*
X107126Y834875D01*
X107129Y834892D01*
X107138Y834907D01*
X107149Y834980D01*
X107149Y877230D01*
X107144Y877246D01*
X107147Y877263D01*
X107125Y877313D01*
X107110Y877364D01*
X107097Y877375D01*
X107090Y877391D01*
X107045Y877421D01*
X107005Y877456D01*
X106988Y877459D01*
X106974Y877468D01*
X106900Y877479D01*
X102800Y877479D01*
X102742Y877462D01*
X102684Y877450D01*
X102672Y877442D01*
X102666Y877440D01*
X102659Y877432D01*
X102624Y877406D01*
X96124Y870906D01*
X96095Y870854D01*
X96062Y870804D01*
X96060Y870789D01*
X96057Y870784D01*
X96057Y870773D01*
X96051Y870730D01*
X96051Y834980D01*
X96056Y834964D01*
X96053Y834947D01*
X96075Y834897D01*
X96090Y834846D01*
X96103Y834835D01*
X96110Y834819D01*
X96155Y834789D01*
X96195Y834754D01*
X96212Y834751D01*
X96227Y834742D01*
X96300Y834731D01*
X106900Y834731D01*
X106916Y834736D01*
G37*
G36*
X731756Y834736D02*
X731756Y834736D01*
X731773Y834733D01*
X731823Y834755D01*
X731874Y834770D01*
X731885Y834783D01*
X731901Y834790D01*
X731931Y834835D01*
X731966Y834875D01*
X731969Y834892D01*
X731978Y834907D01*
X731989Y834980D01*
X731989Y877230D01*
X731984Y877246D01*
X731987Y877263D01*
X731965Y877313D01*
X731950Y877364D01*
X731937Y877375D01*
X731930Y877391D01*
X731885Y877421D01*
X731845Y877456D01*
X731828Y877459D01*
X731814Y877468D01*
X731740Y877479D01*
X727640Y877479D01*
X727582Y877462D01*
X727524Y877450D01*
X727512Y877442D01*
X727506Y877440D01*
X727499Y877432D01*
X727464Y877406D01*
X720964Y870906D01*
X720935Y870854D01*
X720902Y870804D01*
X720900Y870789D01*
X720897Y870784D01*
X720897Y870773D01*
X720891Y870730D01*
X720891Y834980D01*
X720896Y834964D01*
X720893Y834947D01*
X720915Y834897D01*
X720930Y834846D01*
X720943Y834835D01*
X720950Y834819D01*
X720995Y834789D01*
X721035Y834754D01*
X721052Y834751D01*
X721067Y834742D01*
X721140Y834731D01*
X731740Y834731D01*
X731756Y834736D01*
G37*
G36*
X315196Y834736D02*
X315196Y834736D01*
X315213Y834733D01*
X315263Y834755D01*
X315314Y834770D01*
X315325Y834783D01*
X315341Y834790D01*
X315371Y834835D01*
X315406Y834875D01*
X315409Y834892D01*
X315418Y834907D01*
X315429Y834980D01*
X315429Y877230D01*
X315424Y877246D01*
X315427Y877263D01*
X315405Y877313D01*
X315390Y877364D01*
X315377Y877375D01*
X315370Y877391D01*
X315325Y877421D01*
X315285Y877456D01*
X315268Y877459D01*
X315254Y877468D01*
X315180Y877479D01*
X311080Y877479D01*
X311022Y877462D01*
X310964Y877450D01*
X310952Y877442D01*
X310946Y877440D01*
X310939Y877432D01*
X310904Y877406D01*
X304404Y870906D01*
X304375Y870854D01*
X304342Y870804D01*
X304340Y870789D01*
X304337Y870784D01*
X304337Y870773D01*
X304331Y870730D01*
X304331Y834980D01*
X304336Y834964D01*
X304333Y834947D01*
X304355Y834897D01*
X304370Y834846D01*
X304383Y834835D01*
X304390Y834819D01*
X304435Y834789D01*
X304475Y834754D01*
X304492Y834751D01*
X304507Y834742D01*
X304580Y834731D01*
X315180Y834731D01*
X315196Y834736D01*
G37*
G36*
X523476Y834736D02*
X523476Y834736D01*
X523493Y834733D01*
X523543Y834755D01*
X523594Y834770D01*
X523605Y834783D01*
X523621Y834790D01*
X523651Y834835D01*
X523686Y834875D01*
X523689Y834892D01*
X523698Y834907D01*
X523709Y834980D01*
X523709Y877230D01*
X523704Y877246D01*
X523707Y877263D01*
X523685Y877313D01*
X523670Y877364D01*
X523657Y877375D01*
X523650Y877391D01*
X523605Y877421D01*
X523565Y877456D01*
X523548Y877459D01*
X523534Y877468D01*
X523460Y877479D01*
X519360Y877479D01*
X519302Y877462D01*
X519244Y877450D01*
X519232Y877442D01*
X519226Y877440D01*
X519219Y877432D01*
X519184Y877406D01*
X512684Y870906D01*
X512655Y870854D01*
X512622Y870804D01*
X512620Y870789D01*
X512617Y870784D01*
X512617Y870773D01*
X512611Y870730D01*
X512611Y834980D01*
X512616Y834964D01*
X512613Y834947D01*
X512635Y834897D01*
X512650Y834846D01*
X512663Y834835D01*
X512670Y834819D01*
X512715Y834789D01*
X512755Y834754D01*
X512772Y834751D01*
X512787Y834742D01*
X512860Y834731D01*
X523460Y834731D01*
X523476Y834736D01*
G37*
G36*
X940036Y834736D02*
X940036Y834736D01*
X940053Y834733D01*
X940103Y834755D01*
X940154Y834770D01*
X940165Y834783D01*
X940181Y834790D01*
X940211Y834835D01*
X940246Y834875D01*
X940249Y834892D01*
X940258Y834907D01*
X940269Y834980D01*
X940269Y877230D01*
X940264Y877246D01*
X940267Y877263D01*
X940245Y877313D01*
X940230Y877364D01*
X940217Y877375D01*
X940210Y877391D01*
X940165Y877421D01*
X940125Y877456D01*
X940108Y877459D01*
X940094Y877468D01*
X940020Y877479D01*
X935920Y877479D01*
X935862Y877462D01*
X935804Y877450D01*
X935792Y877442D01*
X935786Y877440D01*
X935779Y877432D01*
X935744Y877406D01*
X929244Y870906D01*
X929215Y870854D01*
X929182Y870804D01*
X929180Y870789D01*
X929177Y870784D01*
X929177Y870773D01*
X929171Y870730D01*
X929171Y834980D01*
X929176Y834964D01*
X929173Y834947D01*
X929195Y834897D01*
X929210Y834846D01*
X929223Y834835D01*
X929230Y834819D01*
X929275Y834789D01*
X929315Y834754D01*
X929332Y834751D01*
X929347Y834742D01*
X929420Y834731D01*
X940020Y834731D01*
X940036Y834736D01*
G37*
G36*
X315196Y702656D02*
X315196Y702656D01*
X315213Y702653D01*
X315263Y702675D01*
X315314Y702690D01*
X315325Y702703D01*
X315341Y702710D01*
X315371Y702755D01*
X315406Y702795D01*
X315409Y702812D01*
X315418Y702827D01*
X315429Y702900D01*
X315429Y745150D01*
X315424Y745166D01*
X315427Y745183D01*
X315405Y745233D01*
X315390Y745284D01*
X315377Y745295D01*
X315370Y745311D01*
X315325Y745341D01*
X315285Y745376D01*
X315268Y745379D01*
X315254Y745388D01*
X315180Y745399D01*
X311080Y745399D01*
X311022Y745382D01*
X310964Y745370D01*
X310952Y745362D01*
X310946Y745360D01*
X310939Y745352D01*
X310904Y745326D01*
X304404Y738826D01*
X304375Y738774D01*
X304342Y738724D01*
X304340Y738709D01*
X304337Y738704D01*
X304337Y738693D01*
X304331Y738650D01*
X304331Y702900D01*
X304336Y702884D01*
X304333Y702867D01*
X304355Y702817D01*
X304370Y702766D01*
X304383Y702755D01*
X304390Y702739D01*
X304435Y702709D01*
X304475Y702674D01*
X304492Y702671D01*
X304507Y702662D01*
X304580Y702651D01*
X315180Y702651D01*
X315196Y702656D01*
G37*
G36*
X523476Y702656D02*
X523476Y702656D01*
X523493Y702653D01*
X523543Y702675D01*
X523594Y702690D01*
X523605Y702703D01*
X523621Y702710D01*
X523651Y702755D01*
X523686Y702795D01*
X523689Y702812D01*
X523698Y702827D01*
X523709Y702900D01*
X523709Y745150D01*
X523704Y745166D01*
X523707Y745183D01*
X523685Y745233D01*
X523670Y745284D01*
X523657Y745295D01*
X523650Y745311D01*
X523605Y745341D01*
X523565Y745376D01*
X523548Y745379D01*
X523534Y745388D01*
X523460Y745399D01*
X519360Y745399D01*
X519302Y745382D01*
X519244Y745370D01*
X519232Y745362D01*
X519226Y745360D01*
X519219Y745352D01*
X519184Y745326D01*
X512684Y738826D01*
X512655Y738774D01*
X512622Y738724D01*
X512620Y738709D01*
X512617Y738704D01*
X512617Y738693D01*
X512611Y738650D01*
X512611Y702900D01*
X512616Y702884D01*
X512613Y702867D01*
X512635Y702817D01*
X512650Y702766D01*
X512663Y702755D01*
X512670Y702739D01*
X512715Y702709D01*
X512755Y702674D01*
X512772Y702671D01*
X512787Y702662D01*
X512860Y702651D01*
X523460Y702651D01*
X523476Y702656D01*
G37*
G36*
X106916Y702656D02*
X106916Y702656D01*
X106933Y702653D01*
X106983Y702675D01*
X107034Y702690D01*
X107045Y702703D01*
X107061Y702710D01*
X107091Y702755D01*
X107126Y702795D01*
X107129Y702812D01*
X107138Y702827D01*
X107149Y702900D01*
X107149Y745150D01*
X107144Y745166D01*
X107147Y745183D01*
X107125Y745233D01*
X107110Y745284D01*
X107097Y745295D01*
X107090Y745311D01*
X107045Y745341D01*
X107005Y745376D01*
X106988Y745379D01*
X106974Y745388D01*
X106900Y745399D01*
X102800Y745399D01*
X102742Y745382D01*
X102684Y745370D01*
X102672Y745362D01*
X102666Y745360D01*
X102659Y745352D01*
X102624Y745326D01*
X96124Y738826D01*
X96095Y738774D01*
X96062Y738724D01*
X96060Y738709D01*
X96057Y738704D01*
X96057Y738693D01*
X96051Y738650D01*
X96051Y702900D01*
X96056Y702884D01*
X96053Y702867D01*
X96075Y702817D01*
X96090Y702766D01*
X96103Y702755D01*
X96110Y702739D01*
X96155Y702709D01*
X96195Y702674D01*
X96212Y702671D01*
X96227Y702662D01*
X96300Y702651D01*
X106900Y702651D01*
X106916Y702656D01*
G37*
G36*
X731756Y702656D02*
X731756Y702656D01*
X731773Y702653D01*
X731823Y702675D01*
X731874Y702690D01*
X731885Y702703D01*
X731901Y702710D01*
X731931Y702755D01*
X731966Y702795D01*
X731969Y702812D01*
X731978Y702827D01*
X731989Y702900D01*
X731989Y745150D01*
X731984Y745166D01*
X731987Y745183D01*
X731965Y745233D01*
X731950Y745284D01*
X731937Y745295D01*
X731930Y745311D01*
X731885Y745341D01*
X731845Y745376D01*
X731828Y745379D01*
X731814Y745388D01*
X731740Y745399D01*
X727640Y745399D01*
X727582Y745382D01*
X727524Y745370D01*
X727512Y745362D01*
X727506Y745360D01*
X727499Y745352D01*
X727464Y745326D01*
X720964Y738826D01*
X720935Y738774D01*
X720902Y738724D01*
X720900Y738709D01*
X720897Y738704D01*
X720897Y738693D01*
X720891Y738650D01*
X720891Y702900D01*
X720896Y702884D01*
X720893Y702867D01*
X720915Y702817D01*
X720930Y702766D01*
X720943Y702755D01*
X720950Y702739D01*
X720995Y702709D01*
X721035Y702674D01*
X721052Y702671D01*
X721067Y702662D01*
X721140Y702651D01*
X731740Y702651D01*
X731756Y702656D01*
G37*
G36*
X940036Y702656D02*
X940036Y702656D01*
X940053Y702653D01*
X940103Y702675D01*
X940154Y702690D01*
X940165Y702703D01*
X940181Y702710D01*
X940211Y702755D01*
X940246Y702795D01*
X940249Y702812D01*
X940258Y702827D01*
X940269Y702900D01*
X940269Y745150D01*
X940264Y745166D01*
X940267Y745183D01*
X940245Y745233D01*
X940230Y745284D01*
X940217Y745295D01*
X940210Y745311D01*
X940165Y745341D01*
X940125Y745376D01*
X940108Y745379D01*
X940094Y745388D01*
X940020Y745399D01*
X935920Y745399D01*
X935862Y745382D01*
X935804Y745370D01*
X935792Y745362D01*
X935786Y745360D01*
X935779Y745352D01*
X935744Y745326D01*
X929244Y738826D01*
X929215Y738774D01*
X929182Y738724D01*
X929180Y738709D01*
X929177Y738704D01*
X929177Y738693D01*
X929171Y738650D01*
X929171Y702900D01*
X929176Y702884D01*
X929173Y702867D01*
X929195Y702817D01*
X929210Y702766D01*
X929223Y702755D01*
X929230Y702739D01*
X929275Y702709D01*
X929315Y702674D01*
X929332Y702671D01*
X929347Y702662D01*
X929420Y702651D01*
X940020Y702651D01*
X940036Y702656D01*
G37*
G36*
X731756Y570576D02*
X731756Y570576D01*
X731773Y570573D01*
X731823Y570595D01*
X731874Y570610D01*
X731885Y570623D01*
X731901Y570630D01*
X731931Y570675D01*
X731966Y570715D01*
X731969Y570732D01*
X731978Y570747D01*
X731989Y570820D01*
X731989Y613070D01*
X731984Y613086D01*
X731987Y613103D01*
X731965Y613153D01*
X731950Y613204D01*
X731937Y613215D01*
X731930Y613231D01*
X731885Y613261D01*
X731845Y613296D01*
X731828Y613299D01*
X731814Y613308D01*
X731740Y613319D01*
X727640Y613319D01*
X727582Y613302D01*
X727524Y613290D01*
X727512Y613282D01*
X727506Y613280D01*
X727499Y613272D01*
X727464Y613246D01*
X720964Y606746D01*
X720935Y606694D01*
X720902Y606644D01*
X720900Y606629D01*
X720897Y606624D01*
X720897Y606613D01*
X720891Y606570D01*
X720891Y570820D01*
X720896Y570804D01*
X720893Y570787D01*
X720915Y570737D01*
X720930Y570686D01*
X720943Y570675D01*
X720950Y570659D01*
X720995Y570629D01*
X721035Y570594D01*
X721052Y570591D01*
X721067Y570582D01*
X721140Y570571D01*
X731740Y570571D01*
X731756Y570576D01*
G37*
G36*
X523476Y570576D02*
X523476Y570576D01*
X523493Y570573D01*
X523543Y570595D01*
X523594Y570610D01*
X523605Y570623D01*
X523621Y570630D01*
X523651Y570675D01*
X523686Y570715D01*
X523689Y570732D01*
X523698Y570747D01*
X523709Y570820D01*
X523709Y613070D01*
X523704Y613086D01*
X523707Y613103D01*
X523685Y613153D01*
X523670Y613204D01*
X523657Y613215D01*
X523650Y613231D01*
X523605Y613261D01*
X523565Y613296D01*
X523548Y613299D01*
X523534Y613308D01*
X523460Y613319D01*
X519360Y613319D01*
X519302Y613302D01*
X519244Y613290D01*
X519232Y613282D01*
X519226Y613280D01*
X519219Y613272D01*
X519184Y613246D01*
X512684Y606746D01*
X512655Y606694D01*
X512622Y606644D01*
X512620Y606629D01*
X512617Y606624D01*
X512617Y606613D01*
X512611Y606570D01*
X512611Y570820D01*
X512616Y570804D01*
X512613Y570787D01*
X512635Y570737D01*
X512650Y570686D01*
X512663Y570675D01*
X512670Y570659D01*
X512715Y570629D01*
X512755Y570594D01*
X512772Y570591D01*
X512787Y570582D01*
X512860Y570571D01*
X523460Y570571D01*
X523476Y570576D01*
G37*
G36*
X106916Y570576D02*
X106916Y570576D01*
X106933Y570573D01*
X106983Y570595D01*
X107034Y570610D01*
X107045Y570623D01*
X107061Y570630D01*
X107091Y570675D01*
X107126Y570715D01*
X107129Y570732D01*
X107138Y570747D01*
X107149Y570820D01*
X107149Y613070D01*
X107144Y613086D01*
X107147Y613103D01*
X107125Y613153D01*
X107110Y613204D01*
X107097Y613215D01*
X107090Y613231D01*
X107045Y613261D01*
X107005Y613296D01*
X106988Y613299D01*
X106974Y613308D01*
X106900Y613319D01*
X102800Y613319D01*
X102742Y613302D01*
X102684Y613290D01*
X102672Y613282D01*
X102666Y613280D01*
X102659Y613272D01*
X102624Y613246D01*
X96124Y606746D01*
X96095Y606694D01*
X96062Y606644D01*
X96060Y606629D01*
X96057Y606624D01*
X96057Y606613D01*
X96051Y606570D01*
X96051Y570820D01*
X96056Y570804D01*
X96053Y570787D01*
X96075Y570737D01*
X96090Y570686D01*
X96103Y570675D01*
X96110Y570659D01*
X96155Y570629D01*
X96195Y570594D01*
X96212Y570591D01*
X96227Y570582D01*
X96300Y570571D01*
X106900Y570571D01*
X106916Y570576D01*
G37*
G36*
X940036Y570576D02*
X940036Y570576D01*
X940053Y570573D01*
X940103Y570595D01*
X940154Y570610D01*
X940165Y570623D01*
X940181Y570630D01*
X940211Y570675D01*
X940246Y570715D01*
X940249Y570732D01*
X940258Y570747D01*
X940269Y570820D01*
X940269Y613070D01*
X940264Y613086D01*
X940267Y613103D01*
X940245Y613153D01*
X940230Y613204D01*
X940217Y613215D01*
X940210Y613231D01*
X940165Y613261D01*
X940125Y613296D01*
X940108Y613299D01*
X940094Y613308D01*
X940020Y613319D01*
X935920Y613319D01*
X935862Y613302D01*
X935804Y613290D01*
X935792Y613282D01*
X935786Y613280D01*
X935779Y613272D01*
X935744Y613246D01*
X929244Y606746D01*
X929215Y606694D01*
X929182Y606644D01*
X929180Y606629D01*
X929177Y606624D01*
X929177Y606613D01*
X929171Y606570D01*
X929171Y570820D01*
X929176Y570804D01*
X929173Y570787D01*
X929195Y570737D01*
X929210Y570686D01*
X929223Y570675D01*
X929230Y570659D01*
X929275Y570629D01*
X929315Y570594D01*
X929332Y570591D01*
X929347Y570582D01*
X929420Y570571D01*
X940020Y570571D01*
X940036Y570576D01*
G37*
G36*
X315196Y570576D02*
X315196Y570576D01*
X315213Y570573D01*
X315263Y570595D01*
X315314Y570610D01*
X315325Y570623D01*
X315341Y570630D01*
X315371Y570675D01*
X315406Y570715D01*
X315409Y570732D01*
X315418Y570747D01*
X315429Y570820D01*
X315429Y613070D01*
X315424Y613086D01*
X315427Y613103D01*
X315405Y613153D01*
X315390Y613204D01*
X315377Y613215D01*
X315370Y613231D01*
X315325Y613261D01*
X315285Y613296D01*
X315268Y613299D01*
X315254Y613308D01*
X315180Y613319D01*
X311080Y613319D01*
X311022Y613302D01*
X310964Y613290D01*
X310952Y613282D01*
X310946Y613280D01*
X310939Y613272D01*
X310904Y613246D01*
X304404Y606746D01*
X304375Y606694D01*
X304342Y606644D01*
X304340Y606629D01*
X304337Y606624D01*
X304337Y606613D01*
X304331Y606570D01*
X304331Y570820D01*
X304336Y570804D01*
X304333Y570787D01*
X304355Y570737D01*
X304370Y570686D01*
X304383Y570675D01*
X304390Y570659D01*
X304435Y570629D01*
X304475Y570594D01*
X304492Y570591D01*
X304507Y570582D01*
X304580Y570571D01*
X315180Y570571D01*
X315196Y570576D01*
G37*
G36*
X523476Y438496D02*
X523476Y438496D01*
X523493Y438493D01*
X523543Y438515D01*
X523594Y438530D01*
X523605Y438543D01*
X523621Y438550D01*
X523651Y438595D01*
X523686Y438635D01*
X523689Y438652D01*
X523698Y438667D01*
X523709Y438740D01*
X523709Y480990D01*
X523704Y481006D01*
X523707Y481023D01*
X523685Y481073D01*
X523670Y481124D01*
X523657Y481135D01*
X523650Y481151D01*
X523605Y481181D01*
X523565Y481216D01*
X523548Y481219D01*
X523534Y481228D01*
X523460Y481239D01*
X519360Y481239D01*
X519302Y481222D01*
X519244Y481210D01*
X519232Y481202D01*
X519226Y481200D01*
X519219Y481192D01*
X519184Y481166D01*
X512684Y474666D01*
X512655Y474614D01*
X512622Y474564D01*
X512620Y474549D01*
X512617Y474544D01*
X512617Y474533D01*
X512611Y474490D01*
X512611Y438740D01*
X512616Y438724D01*
X512613Y438707D01*
X512635Y438657D01*
X512650Y438606D01*
X512663Y438595D01*
X512670Y438579D01*
X512715Y438549D01*
X512755Y438514D01*
X512772Y438511D01*
X512787Y438502D01*
X512860Y438491D01*
X523460Y438491D01*
X523476Y438496D01*
G37*
G36*
X940036Y438496D02*
X940036Y438496D01*
X940053Y438493D01*
X940103Y438515D01*
X940154Y438530D01*
X940165Y438543D01*
X940181Y438550D01*
X940211Y438595D01*
X940246Y438635D01*
X940249Y438652D01*
X940258Y438667D01*
X940269Y438740D01*
X940269Y480990D01*
X940264Y481006D01*
X940267Y481023D01*
X940245Y481073D01*
X940230Y481124D01*
X940217Y481135D01*
X940210Y481151D01*
X940165Y481181D01*
X940125Y481216D01*
X940108Y481219D01*
X940094Y481228D01*
X940020Y481239D01*
X935920Y481239D01*
X935862Y481222D01*
X935804Y481210D01*
X935792Y481202D01*
X935786Y481200D01*
X935779Y481192D01*
X935744Y481166D01*
X929244Y474666D01*
X929215Y474614D01*
X929182Y474564D01*
X929180Y474549D01*
X929177Y474544D01*
X929177Y474533D01*
X929171Y474490D01*
X929171Y438740D01*
X929176Y438724D01*
X929173Y438707D01*
X929195Y438657D01*
X929210Y438606D01*
X929223Y438595D01*
X929230Y438579D01*
X929275Y438549D01*
X929315Y438514D01*
X929332Y438511D01*
X929347Y438502D01*
X929420Y438491D01*
X940020Y438491D01*
X940036Y438496D01*
G37*
G36*
X731756Y438496D02*
X731756Y438496D01*
X731773Y438493D01*
X731823Y438515D01*
X731874Y438530D01*
X731885Y438543D01*
X731901Y438550D01*
X731931Y438595D01*
X731966Y438635D01*
X731969Y438652D01*
X731978Y438667D01*
X731989Y438740D01*
X731989Y480990D01*
X731984Y481006D01*
X731987Y481023D01*
X731965Y481073D01*
X731950Y481124D01*
X731937Y481135D01*
X731930Y481151D01*
X731885Y481181D01*
X731845Y481216D01*
X731828Y481219D01*
X731814Y481228D01*
X731740Y481239D01*
X727640Y481239D01*
X727582Y481222D01*
X727524Y481210D01*
X727512Y481202D01*
X727506Y481200D01*
X727499Y481192D01*
X727464Y481166D01*
X720964Y474666D01*
X720935Y474614D01*
X720902Y474564D01*
X720900Y474549D01*
X720897Y474544D01*
X720897Y474533D01*
X720891Y474490D01*
X720891Y438740D01*
X720896Y438724D01*
X720893Y438707D01*
X720915Y438657D01*
X720930Y438606D01*
X720943Y438595D01*
X720950Y438579D01*
X720995Y438549D01*
X721035Y438514D01*
X721052Y438511D01*
X721067Y438502D01*
X721140Y438491D01*
X731740Y438491D01*
X731756Y438496D01*
G37*
G36*
X315196Y438496D02*
X315196Y438496D01*
X315213Y438493D01*
X315263Y438515D01*
X315314Y438530D01*
X315325Y438543D01*
X315341Y438550D01*
X315371Y438595D01*
X315406Y438635D01*
X315409Y438652D01*
X315418Y438667D01*
X315429Y438740D01*
X315429Y480990D01*
X315424Y481006D01*
X315427Y481023D01*
X315405Y481073D01*
X315390Y481124D01*
X315377Y481135D01*
X315370Y481151D01*
X315325Y481181D01*
X315285Y481216D01*
X315268Y481219D01*
X315254Y481228D01*
X315180Y481239D01*
X311080Y481239D01*
X311022Y481222D01*
X310964Y481210D01*
X310952Y481202D01*
X310946Y481200D01*
X310939Y481192D01*
X310904Y481166D01*
X304404Y474666D01*
X304375Y474614D01*
X304342Y474564D01*
X304340Y474549D01*
X304337Y474544D01*
X304337Y474533D01*
X304331Y474490D01*
X304331Y438740D01*
X304336Y438724D01*
X304333Y438707D01*
X304355Y438657D01*
X304370Y438606D01*
X304383Y438595D01*
X304390Y438579D01*
X304435Y438549D01*
X304475Y438514D01*
X304492Y438511D01*
X304507Y438502D01*
X304580Y438491D01*
X315180Y438491D01*
X315196Y438496D01*
G37*
G36*
X106916Y438496D02*
X106916Y438496D01*
X106933Y438493D01*
X106983Y438515D01*
X107034Y438530D01*
X107045Y438543D01*
X107061Y438550D01*
X107091Y438595D01*
X107126Y438635D01*
X107129Y438652D01*
X107138Y438667D01*
X107149Y438740D01*
X107149Y480990D01*
X107144Y481006D01*
X107147Y481023D01*
X107125Y481073D01*
X107110Y481124D01*
X107097Y481135D01*
X107090Y481151D01*
X107045Y481181D01*
X107005Y481216D01*
X106988Y481219D01*
X106974Y481228D01*
X106900Y481239D01*
X102800Y481239D01*
X102742Y481222D01*
X102684Y481210D01*
X102672Y481202D01*
X102666Y481200D01*
X102659Y481192D01*
X102624Y481166D01*
X96124Y474666D01*
X96095Y474614D01*
X96062Y474564D01*
X96060Y474549D01*
X96057Y474544D01*
X96057Y474533D01*
X96051Y474490D01*
X96051Y438740D01*
X96056Y438724D01*
X96053Y438707D01*
X96075Y438657D01*
X96090Y438606D01*
X96103Y438595D01*
X96110Y438579D01*
X96155Y438549D01*
X96195Y438514D01*
X96212Y438511D01*
X96227Y438502D01*
X96300Y438491D01*
X106900Y438491D01*
X106916Y438496D01*
G37*
G36*
X940036Y306416D02*
X940036Y306416D01*
X940053Y306413D01*
X940103Y306435D01*
X940154Y306450D01*
X940165Y306463D01*
X940181Y306470D01*
X940211Y306515D01*
X940246Y306555D01*
X940249Y306572D01*
X940258Y306587D01*
X940269Y306660D01*
X940269Y348910D01*
X940264Y348926D01*
X940267Y348943D01*
X940245Y348993D01*
X940230Y349044D01*
X940217Y349055D01*
X940210Y349071D01*
X940165Y349101D01*
X940125Y349136D01*
X940108Y349139D01*
X940094Y349148D01*
X940020Y349159D01*
X935920Y349159D01*
X935862Y349142D01*
X935804Y349130D01*
X935792Y349122D01*
X935786Y349120D01*
X935779Y349112D01*
X935744Y349086D01*
X929244Y342586D01*
X929215Y342534D01*
X929182Y342484D01*
X929180Y342469D01*
X929177Y342464D01*
X929177Y342453D01*
X929171Y342410D01*
X929171Y306660D01*
X929176Y306644D01*
X929173Y306627D01*
X929195Y306577D01*
X929210Y306526D01*
X929223Y306515D01*
X929230Y306499D01*
X929275Y306469D01*
X929315Y306434D01*
X929332Y306431D01*
X929347Y306422D01*
X929420Y306411D01*
X940020Y306411D01*
X940036Y306416D01*
G37*
G36*
X731756Y306416D02*
X731756Y306416D01*
X731773Y306413D01*
X731823Y306435D01*
X731874Y306450D01*
X731885Y306463D01*
X731901Y306470D01*
X731931Y306515D01*
X731966Y306555D01*
X731969Y306572D01*
X731978Y306587D01*
X731989Y306660D01*
X731989Y348910D01*
X731984Y348926D01*
X731987Y348943D01*
X731965Y348993D01*
X731950Y349044D01*
X731937Y349055D01*
X731930Y349071D01*
X731885Y349101D01*
X731845Y349136D01*
X731828Y349139D01*
X731814Y349148D01*
X731740Y349159D01*
X727640Y349159D01*
X727582Y349142D01*
X727524Y349130D01*
X727512Y349122D01*
X727506Y349120D01*
X727499Y349112D01*
X727464Y349086D01*
X720964Y342586D01*
X720935Y342534D01*
X720902Y342484D01*
X720900Y342469D01*
X720897Y342464D01*
X720897Y342453D01*
X720891Y342410D01*
X720891Y306660D01*
X720896Y306644D01*
X720893Y306627D01*
X720915Y306577D01*
X720930Y306526D01*
X720943Y306515D01*
X720950Y306499D01*
X720995Y306469D01*
X721035Y306434D01*
X721052Y306431D01*
X721067Y306422D01*
X721140Y306411D01*
X731740Y306411D01*
X731756Y306416D01*
G37*
G36*
X523476Y306416D02*
X523476Y306416D01*
X523493Y306413D01*
X523543Y306435D01*
X523594Y306450D01*
X523605Y306463D01*
X523621Y306470D01*
X523651Y306515D01*
X523686Y306555D01*
X523689Y306572D01*
X523698Y306587D01*
X523709Y306660D01*
X523709Y348910D01*
X523704Y348926D01*
X523707Y348943D01*
X523685Y348993D01*
X523670Y349044D01*
X523657Y349055D01*
X523650Y349071D01*
X523605Y349101D01*
X523565Y349136D01*
X523548Y349139D01*
X523534Y349148D01*
X523460Y349159D01*
X519360Y349159D01*
X519302Y349142D01*
X519244Y349130D01*
X519232Y349122D01*
X519226Y349120D01*
X519219Y349112D01*
X519184Y349086D01*
X512684Y342586D01*
X512655Y342534D01*
X512622Y342484D01*
X512620Y342469D01*
X512617Y342464D01*
X512617Y342453D01*
X512611Y342410D01*
X512611Y306660D01*
X512616Y306644D01*
X512613Y306627D01*
X512635Y306577D01*
X512650Y306526D01*
X512663Y306515D01*
X512670Y306499D01*
X512715Y306469D01*
X512755Y306434D01*
X512772Y306431D01*
X512787Y306422D01*
X512860Y306411D01*
X523460Y306411D01*
X523476Y306416D01*
G37*
G36*
X106916Y306416D02*
X106916Y306416D01*
X106933Y306413D01*
X106983Y306435D01*
X107034Y306450D01*
X107045Y306463D01*
X107061Y306470D01*
X107091Y306515D01*
X107126Y306555D01*
X107129Y306572D01*
X107138Y306587D01*
X107149Y306660D01*
X107149Y348910D01*
X107144Y348926D01*
X107147Y348943D01*
X107125Y348993D01*
X107110Y349044D01*
X107097Y349055D01*
X107090Y349071D01*
X107045Y349101D01*
X107005Y349136D01*
X106988Y349139D01*
X106974Y349148D01*
X106900Y349159D01*
X102800Y349159D01*
X102742Y349142D01*
X102684Y349130D01*
X102672Y349122D01*
X102666Y349120D01*
X102659Y349112D01*
X102624Y349086D01*
X96124Y342586D01*
X96095Y342534D01*
X96062Y342484D01*
X96060Y342469D01*
X96057Y342464D01*
X96057Y342453D01*
X96051Y342410D01*
X96051Y306660D01*
X96056Y306644D01*
X96053Y306627D01*
X96075Y306577D01*
X96090Y306526D01*
X96103Y306515D01*
X96110Y306499D01*
X96155Y306469D01*
X96195Y306434D01*
X96212Y306431D01*
X96227Y306422D01*
X96300Y306411D01*
X106900Y306411D01*
X106916Y306416D01*
G37*
G36*
X315196Y306416D02*
X315196Y306416D01*
X315213Y306413D01*
X315263Y306435D01*
X315314Y306450D01*
X315325Y306463D01*
X315341Y306470D01*
X315371Y306515D01*
X315406Y306555D01*
X315409Y306572D01*
X315418Y306587D01*
X315429Y306660D01*
X315429Y348910D01*
X315424Y348926D01*
X315427Y348943D01*
X315405Y348993D01*
X315390Y349044D01*
X315377Y349055D01*
X315370Y349071D01*
X315325Y349101D01*
X315285Y349136D01*
X315268Y349139D01*
X315254Y349148D01*
X315180Y349159D01*
X311080Y349159D01*
X311022Y349142D01*
X310964Y349130D01*
X310952Y349122D01*
X310946Y349120D01*
X310939Y349112D01*
X310904Y349086D01*
X304404Y342586D01*
X304375Y342534D01*
X304342Y342484D01*
X304340Y342469D01*
X304337Y342464D01*
X304337Y342453D01*
X304331Y342410D01*
X304331Y306660D01*
X304336Y306644D01*
X304333Y306627D01*
X304355Y306577D01*
X304370Y306526D01*
X304383Y306515D01*
X304390Y306499D01*
X304435Y306469D01*
X304475Y306434D01*
X304492Y306431D01*
X304507Y306422D01*
X304580Y306411D01*
X315180Y306411D01*
X315196Y306416D01*
G37*
G36*
X940036Y174336D02*
X940036Y174336D01*
X940053Y174333D01*
X940103Y174355D01*
X940154Y174370D01*
X940165Y174383D01*
X940181Y174390D01*
X940211Y174435D01*
X940246Y174475D01*
X940249Y174492D01*
X940258Y174507D01*
X940269Y174580D01*
X940269Y216830D01*
X940264Y216846D01*
X940267Y216863D01*
X940245Y216913D01*
X940230Y216964D01*
X940217Y216975D01*
X940210Y216991D01*
X940165Y217021D01*
X940125Y217056D01*
X940108Y217059D01*
X940094Y217068D01*
X940020Y217079D01*
X935920Y217079D01*
X935862Y217062D01*
X935804Y217050D01*
X935792Y217042D01*
X935786Y217040D01*
X935779Y217032D01*
X935744Y217006D01*
X929244Y210506D01*
X929215Y210454D01*
X929182Y210404D01*
X929180Y210389D01*
X929177Y210384D01*
X929177Y210373D01*
X929171Y210330D01*
X929171Y174580D01*
X929176Y174564D01*
X929173Y174547D01*
X929195Y174497D01*
X929210Y174446D01*
X929223Y174435D01*
X929230Y174419D01*
X929275Y174389D01*
X929315Y174354D01*
X929332Y174351D01*
X929347Y174342D01*
X929420Y174331D01*
X940020Y174331D01*
X940036Y174336D01*
G37*
G36*
X731756Y174336D02*
X731756Y174336D01*
X731773Y174333D01*
X731823Y174355D01*
X731874Y174370D01*
X731885Y174383D01*
X731901Y174390D01*
X731931Y174435D01*
X731966Y174475D01*
X731969Y174492D01*
X731978Y174507D01*
X731989Y174580D01*
X731989Y216830D01*
X731984Y216846D01*
X731987Y216863D01*
X731965Y216913D01*
X731950Y216964D01*
X731937Y216975D01*
X731930Y216991D01*
X731885Y217021D01*
X731845Y217056D01*
X731828Y217059D01*
X731814Y217068D01*
X731740Y217079D01*
X727640Y217079D01*
X727582Y217062D01*
X727524Y217050D01*
X727512Y217042D01*
X727506Y217040D01*
X727499Y217032D01*
X727464Y217006D01*
X720964Y210506D01*
X720935Y210454D01*
X720902Y210404D01*
X720900Y210389D01*
X720897Y210384D01*
X720897Y210373D01*
X720891Y210330D01*
X720891Y174580D01*
X720896Y174564D01*
X720893Y174547D01*
X720915Y174497D01*
X720930Y174446D01*
X720943Y174435D01*
X720950Y174419D01*
X720995Y174389D01*
X721035Y174354D01*
X721052Y174351D01*
X721067Y174342D01*
X721140Y174331D01*
X731740Y174331D01*
X731756Y174336D01*
G37*
G36*
X523476Y174336D02*
X523476Y174336D01*
X523493Y174333D01*
X523543Y174355D01*
X523594Y174370D01*
X523605Y174383D01*
X523621Y174390D01*
X523651Y174435D01*
X523686Y174475D01*
X523689Y174492D01*
X523698Y174507D01*
X523709Y174580D01*
X523709Y216830D01*
X523704Y216846D01*
X523707Y216863D01*
X523685Y216913D01*
X523670Y216964D01*
X523657Y216975D01*
X523650Y216991D01*
X523605Y217021D01*
X523565Y217056D01*
X523548Y217059D01*
X523534Y217068D01*
X523460Y217079D01*
X519360Y217079D01*
X519302Y217062D01*
X519244Y217050D01*
X519232Y217042D01*
X519226Y217040D01*
X519219Y217032D01*
X519184Y217006D01*
X512684Y210506D01*
X512655Y210454D01*
X512622Y210404D01*
X512620Y210389D01*
X512617Y210384D01*
X512617Y210373D01*
X512611Y210330D01*
X512611Y174580D01*
X512616Y174564D01*
X512613Y174547D01*
X512635Y174497D01*
X512650Y174446D01*
X512663Y174435D01*
X512670Y174419D01*
X512715Y174389D01*
X512755Y174354D01*
X512772Y174351D01*
X512787Y174342D01*
X512860Y174331D01*
X523460Y174331D01*
X523476Y174336D01*
G37*
G36*
X315196Y174336D02*
X315196Y174336D01*
X315213Y174333D01*
X315263Y174355D01*
X315314Y174370D01*
X315325Y174383D01*
X315341Y174390D01*
X315371Y174435D01*
X315406Y174475D01*
X315409Y174492D01*
X315418Y174507D01*
X315429Y174580D01*
X315429Y216830D01*
X315424Y216846D01*
X315427Y216863D01*
X315405Y216913D01*
X315390Y216964D01*
X315377Y216975D01*
X315370Y216991D01*
X315325Y217021D01*
X315285Y217056D01*
X315268Y217059D01*
X315254Y217068D01*
X315180Y217079D01*
X311080Y217079D01*
X311022Y217062D01*
X310964Y217050D01*
X310952Y217042D01*
X310946Y217040D01*
X310939Y217032D01*
X310904Y217006D01*
X304404Y210506D01*
X304375Y210454D01*
X304342Y210404D01*
X304340Y210389D01*
X304337Y210384D01*
X304337Y210373D01*
X304331Y210330D01*
X304331Y174580D01*
X304336Y174564D01*
X304333Y174547D01*
X304355Y174497D01*
X304370Y174446D01*
X304383Y174435D01*
X304390Y174419D01*
X304435Y174389D01*
X304475Y174354D01*
X304492Y174351D01*
X304507Y174342D01*
X304580Y174331D01*
X315180Y174331D01*
X315196Y174336D01*
G37*
G36*
X106916Y174336D02*
X106916Y174336D01*
X106933Y174333D01*
X106983Y174355D01*
X107034Y174370D01*
X107045Y174383D01*
X107061Y174390D01*
X107091Y174435D01*
X107126Y174475D01*
X107129Y174492D01*
X107138Y174507D01*
X107149Y174580D01*
X107149Y216830D01*
X107144Y216846D01*
X107147Y216863D01*
X107125Y216913D01*
X107110Y216964D01*
X107097Y216975D01*
X107090Y216991D01*
X107045Y217021D01*
X107005Y217056D01*
X106988Y217059D01*
X106974Y217068D01*
X106900Y217079D01*
X102800Y217079D01*
X102742Y217062D01*
X102684Y217050D01*
X102672Y217042D01*
X102666Y217040D01*
X102659Y217032D01*
X102624Y217006D01*
X96124Y210506D01*
X96095Y210454D01*
X96062Y210404D01*
X96060Y210389D01*
X96057Y210384D01*
X96057Y210373D01*
X96051Y210330D01*
X96051Y174580D01*
X96056Y174564D01*
X96053Y174547D01*
X96075Y174497D01*
X96090Y174446D01*
X96103Y174435D01*
X96110Y174419D01*
X96155Y174389D01*
X96195Y174354D01*
X96212Y174351D01*
X96227Y174342D01*
X96300Y174331D01*
X106900Y174331D01*
X106916Y174336D01*
G37*
G36*
X940036Y42256D02*
X940036Y42256D01*
X940053Y42253D01*
X940103Y42275D01*
X940154Y42290D01*
X940165Y42303D01*
X940181Y42310D01*
X940211Y42355D01*
X940246Y42395D01*
X940249Y42412D01*
X940258Y42427D01*
X940269Y42500D01*
X940269Y84750D01*
X940264Y84766D01*
X940267Y84783D01*
X940245Y84833D01*
X940230Y84884D01*
X940217Y84895D01*
X940210Y84911D01*
X940165Y84941D01*
X940125Y84976D01*
X940108Y84979D01*
X940094Y84988D01*
X940020Y84999D01*
X935920Y84999D01*
X935862Y84982D01*
X935804Y84970D01*
X935792Y84962D01*
X935786Y84960D01*
X935779Y84952D01*
X935744Y84926D01*
X929244Y78426D01*
X929215Y78374D01*
X929182Y78324D01*
X929180Y78309D01*
X929177Y78304D01*
X929177Y78293D01*
X929171Y78250D01*
X929171Y42500D01*
X929176Y42484D01*
X929173Y42467D01*
X929195Y42417D01*
X929210Y42366D01*
X929223Y42355D01*
X929230Y42339D01*
X929275Y42309D01*
X929315Y42274D01*
X929332Y42271D01*
X929347Y42262D01*
X929420Y42251D01*
X940020Y42251D01*
X940036Y42256D01*
G37*
G36*
X731756Y42256D02*
X731756Y42256D01*
X731773Y42253D01*
X731823Y42275D01*
X731874Y42290D01*
X731885Y42303D01*
X731901Y42310D01*
X731931Y42355D01*
X731966Y42395D01*
X731969Y42412D01*
X731978Y42427D01*
X731989Y42500D01*
X731989Y84750D01*
X731984Y84766D01*
X731987Y84783D01*
X731965Y84833D01*
X731950Y84884D01*
X731937Y84895D01*
X731930Y84911D01*
X731885Y84941D01*
X731845Y84976D01*
X731828Y84979D01*
X731814Y84988D01*
X731740Y84999D01*
X727640Y84999D01*
X727582Y84982D01*
X727524Y84970D01*
X727512Y84962D01*
X727506Y84960D01*
X727499Y84952D01*
X727464Y84926D01*
X720964Y78426D01*
X720935Y78374D01*
X720902Y78324D01*
X720900Y78309D01*
X720897Y78304D01*
X720897Y78293D01*
X720891Y78250D01*
X720891Y42500D01*
X720896Y42484D01*
X720893Y42467D01*
X720915Y42417D01*
X720930Y42366D01*
X720943Y42355D01*
X720950Y42339D01*
X720995Y42309D01*
X721035Y42274D01*
X721052Y42271D01*
X721067Y42262D01*
X721140Y42251D01*
X731740Y42251D01*
X731756Y42256D01*
G37*
G36*
X523476Y42256D02*
X523476Y42256D01*
X523493Y42253D01*
X523543Y42275D01*
X523594Y42290D01*
X523605Y42303D01*
X523621Y42310D01*
X523651Y42355D01*
X523686Y42395D01*
X523689Y42412D01*
X523698Y42427D01*
X523709Y42500D01*
X523709Y84750D01*
X523704Y84766D01*
X523707Y84783D01*
X523685Y84833D01*
X523670Y84884D01*
X523657Y84895D01*
X523650Y84911D01*
X523605Y84941D01*
X523565Y84976D01*
X523548Y84979D01*
X523534Y84988D01*
X523460Y84999D01*
X519360Y84999D01*
X519302Y84982D01*
X519244Y84970D01*
X519232Y84962D01*
X519226Y84960D01*
X519219Y84952D01*
X519184Y84926D01*
X512684Y78426D01*
X512655Y78374D01*
X512622Y78324D01*
X512620Y78309D01*
X512617Y78304D01*
X512617Y78293D01*
X512611Y78250D01*
X512611Y42500D01*
X512616Y42484D01*
X512613Y42467D01*
X512635Y42417D01*
X512650Y42366D01*
X512663Y42355D01*
X512670Y42339D01*
X512715Y42309D01*
X512755Y42274D01*
X512772Y42271D01*
X512787Y42262D01*
X512860Y42251D01*
X523460Y42251D01*
X523476Y42256D01*
G37*
G36*
X315196Y42256D02*
X315196Y42256D01*
X315213Y42253D01*
X315263Y42275D01*
X315314Y42290D01*
X315325Y42303D01*
X315341Y42310D01*
X315371Y42355D01*
X315406Y42395D01*
X315409Y42412D01*
X315418Y42427D01*
X315429Y42500D01*
X315429Y84750D01*
X315424Y84766D01*
X315427Y84783D01*
X315405Y84833D01*
X315390Y84884D01*
X315377Y84895D01*
X315370Y84911D01*
X315325Y84941D01*
X315285Y84976D01*
X315268Y84979D01*
X315254Y84988D01*
X315180Y84999D01*
X311080Y84999D01*
X311022Y84982D01*
X310964Y84970D01*
X310952Y84962D01*
X310946Y84960D01*
X310939Y84952D01*
X310904Y84926D01*
X304404Y78426D01*
X304375Y78374D01*
X304342Y78324D01*
X304340Y78309D01*
X304337Y78304D01*
X304337Y78293D01*
X304331Y78250D01*
X304331Y42500D01*
X304336Y42484D01*
X304333Y42467D01*
X304355Y42417D01*
X304370Y42366D01*
X304383Y42355D01*
X304390Y42339D01*
X304435Y42309D01*
X304475Y42274D01*
X304492Y42271D01*
X304507Y42262D01*
X304580Y42251D01*
X315180Y42251D01*
X315196Y42256D01*
G37*
G36*
X106916Y42256D02*
X106916Y42256D01*
X106933Y42253D01*
X106983Y42275D01*
X107034Y42290D01*
X107045Y42303D01*
X107061Y42310D01*
X107091Y42355D01*
X107126Y42395D01*
X107129Y42412D01*
X107138Y42427D01*
X107149Y42500D01*
X107149Y84750D01*
X107144Y84766D01*
X107147Y84783D01*
X107125Y84833D01*
X107110Y84884D01*
X107097Y84895D01*
X107090Y84911D01*
X107045Y84941D01*
X107005Y84976D01*
X106988Y84979D01*
X106974Y84988D01*
X106900Y84999D01*
X102800Y84999D01*
X102742Y84982D01*
X102684Y84970D01*
X102672Y84962D01*
X102666Y84960D01*
X102659Y84952D01*
X102624Y84926D01*
X96124Y78426D01*
X96095Y78374D01*
X96062Y78324D01*
X96060Y78309D01*
X96057Y78304D01*
X96057Y78293D01*
X96051Y78250D01*
X96051Y42500D01*
X96056Y42484D01*
X96053Y42467D01*
X96075Y42417D01*
X96090Y42366D01*
X96103Y42355D01*
X96110Y42339D01*
X96155Y42309D01*
X96195Y42274D01*
X96212Y42271D01*
X96227Y42262D01*
X96300Y42251D01*
X106900Y42251D01*
X106916Y42256D01*
G37*
D10*
X190500Y114300D03*
X12700Y38100D03*
D11*
X73850Y82550D03*
X73850Y69850D03*
X73850Y57150D03*
X73850Y44450D03*
X129350Y57150D03*
X129350Y44450D03*
X129350Y69850D03*
X129350Y82550D03*
D12*
X165100Y72000D03*
X165100Y55000D03*
D13*
X190500Y12700D03*
X165100Y12700D03*
X139700Y12700D03*
X114300Y12700D03*
X88900Y12700D03*
X63500Y12700D03*
X38100Y12700D03*
X12700Y12700D03*
D10*
X398780Y114300D03*
X220980Y38100D03*
D11*
X282130Y82550D03*
X282130Y69850D03*
X282130Y57150D03*
X282130Y44450D03*
X337630Y57150D03*
X337630Y44450D03*
X337630Y69850D03*
X337630Y82550D03*
D12*
X373380Y72000D03*
X373380Y55000D03*
D13*
X398780Y12700D03*
X373380Y12700D03*
X347980Y12700D03*
X322580Y12700D03*
X297180Y12700D03*
X271780Y12700D03*
X246380Y12700D03*
X220980Y12700D03*
D10*
X607060Y114300D03*
X429260Y38100D03*
D11*
X490410Y82550D03*
X490410Y69850D03*
X490410Y57150D03*
X490410Y44450D03*
X545910Y57150D03*
X545910Y44450D03*
X545910Y69850D03*
X545910Y82550D03*
D12*
X581660Y72000D03*
X581660Y55000D03*
D13*
X607060Y12700D03*
X581660Y12700D03*
X556260Y12700D03*
X530860Y12700D03*
X505460Y12700D03*
X480060Y12700D03*
X454660Y12700D03*
X429260Y12700D03*
D10*
X815340Y114300D03*
X637540Y38100D03*
D11*
X698690Y82550D03*
X698690Y69850D03*
X698690Y57150D03*
X698690Y44450D03*
X754190Y57150D03*
X754190Y44450D03*
X754190Y69850D03*
X754190Y82550D03*
D12*
X789940Y72000D03*
X789940Y55000D03*
D13*
X815340Y12700D03*
X789940Y12700D03*
X764540Y12700D03*
X739140Y12700D03*
X713740Y12700D03*
X688340Y12700D03*
X662940Y12700D03*
X637540Y12700D03*
D10*
X1023620Y114300D03*
X845820Y38100D03*
D11*
X906970Y82550D03*
X906970Y69850D03*
X906970Y57150D03*
X906970Y44450D03*
X962470Y57150D03*
X962470Y44450D03*
X962470Y69850D03*
X962470Y82550D03*
D12*
X998220Y72000D03*
X998220Y55000D03*
D13*
X1023620Y12700D03*
X998220Y12700D03*
X972820Y12700D03*
X947420Y12700D03*
X922020Y12700D03*
X896620Y12700D03*
X871220Y12700D03*
X845820Y12700D03*
D10*
X190500Y246380D03*
X12700Y170180D03*
D11*
X73850Y214630D03*
X73850Y201930D03*
X73850Y189230D03*
X73850Y176530D03*
X129350Y189230D03*
X129350Y176530D03*
X129350Y201930D03*
X129350Y214630D03*
D12*
X165100Y204080D03*
X165100Y187080D03*
D13*
X190500Y144780D03*
X165100Y144780D03*
X139700Y144780D03*
X114300Y144780D03*
X88900Y144780D03*
X63500Y144780D03*
X38100Y144780D03*
X12700Y144780D03*
D10*
X398780Y246380D03*
X220980Y170180D03*
D11*
X282130Y214630D03*
X282130Y201930D03*
X282130Y189230D03*
X282130Y176530D03*
X337630Y189230D03*
X337630Y176530D03*
X337630Y201930D03*
X337630Y214630D03*
D12*
X373380Y204080D03*
X373380Y187080D03*
D13*
X398780Y144780D03*
X373380Y144780D03*
X347980Y144780D03*
X322580Y144780D03*
X297180Y144780D03*
X271780Y144780D03*
X246380Y144780D03*
X220980Y144780D03*
D10*
X607060Y246380D03*
X429260Y170180D03*
D11*
X490410Y214630D03*
X490410Y201930D03*
X490410Y189230D03*
X490410Y176530D03*
X545910Y189230D03*
X545910Y176530D03*
X545910Y201930D03*
X545910Y214630D03*
D12*
X581660Y204080D03*
X581660Y187080D03*
D13*
X607060Y144780D03*
X581660Y144780D03*
X556260Y144780D03*
X530860Y144780D03*
X505460Y144780D03*
X480060Y144780D03*
X454660Y144780D03*
X429260Y144780D03*
D10*
X815340Y246380D03*
X637540Y170180D03*
D11*
X698690Y214630D03*
X698690Y201930D03*
X698690Y189230D03*
X698690Y176530D03*
X754190Y189230D03*
X754190Y176530D03*
X754190Y201930D03*
X754190Y214630D03*
D12*
X789940Y204080D03*
X789940Y187080D03*
D13*
X815340Y144780D03*
X789940Y144780D03*
X764540Y144780D03*
X739140Y144780D03*
X713740Y144780D03*
X688340Y144780D03*
X662940Y144780D03*
X637540Y144780D03*
D10*
X1023620Y246380D03*
X845820Y170180D03*
D11*
X906970Y214630D03*
X906970Y201930D03*
X906970Y189230D03*
X906970Y176530D03*
X962470Y189230D03*
X962470Y176530D03*
X962470Y201930D03*
X962470Y214630D03*
D12*
X998220Y204080D03*
X998220Y187080D03*
D13*
X1023620Y144780D03*
X998220Y144780D03*
X972820Y144780D03*
X947420Y144780D03*
X922020Y144780D03*
X896620Y144780D03*
X871220Y144780D03*
X845820Y144780D03*
D10*
X190500Y378460D03*
X12700Y302260D03*
D11*
X73850Y346710D03*
X73850Y334010D03*
X73850Y321310D03*
X73850Y308610D03*
X129350Y321310D03*
X129350Y308610D03*
X129350Y334010D03*
X129350Y346710D03*
D12*
X165100Y336160D03*
X165100Y319160D03*
D13*
X190500Y276860D03*
X165100Y276860D03*
X139700Y276860D03*
X114300Y276860D03*
X88900Y276860D03*
X63500Y276860D03*
X38100Y276860D03*
X12700Y276860D03*
D10*
X398780Y378460D03*
X220980Y302260D03*
D11*
X282130Y346710D03*
X282130Y334010D03*
X282130Y321310D03*
X282130Y308610D03*
X337630Y321310D03*
X337630Y308610D03*
X337630Y334010D03*
X337630Y346710D03*
D12*
X373380Y336160D03*
X373380Y319160D03*
D13*
X398780Y276860D03*
X373380Y276860D03*
X347980Y276860D03*
X322580Y276860D03*
X297180Y276860D03*
X271780Y276860D03*
X246380Y276860D03*
X220980Y276860D03*
D10*
X607060Y378460D03*
X429260Y302260D03*
D11*
X490410Y346710D03*
X490410Y334010D03*
X490410Y321310D03*
X490410Y308610D03*
X545910Y321310D03*
X545910Y308610D03*
X545910Y334010D03*
X545910Y346710D03*
D12*
X581660Y336160D03*
X581660Y319160D03*
D13*
X607060Y276860D03*
X581660Y276860D03*
X556260Y276860D03*
X530860Y276860D03*
X505460Y276860D03*
X480060Y276860D03*
X454660Y276860D03*
X429260Y276860D03*
D10*
X815340Y378460D03*
X637540Y302260D03*
D11*
X698690Y346710D03*
X698690Y334010D03*
X698690Y321310D03*
X698690Y308610D03*
X754190Y321310D03*
X754190Y308610D03*
X754190Y334010D03*
X754190Y346710D03*
D12*
X789940Y336160D03*
X789940Y319160D03*
D13*
X815340Y276860D03*
X789940Y276860D03*
X764540Y276860D03*
X739140Y276860D03*
X713740Y276860D03*
X688340Y276860D03*
X662940Y276860D03*
X637540Y276860D03*
D10*
X1023620Y378460D03*
X845820Y302260D03*
D11*
X906970Y346710D03*
X906970Y334010D03*
X906970Y321310D03*
X906970Y308610D03*
X962470Y321310D03*
X962470Y308610D03*
X962470Y334010D03*
X962470Y346710D03*
D12*
X998220Y336160D03*
X998220Y319160D03*
D13*
X1023620Y276860D03*
X998220Y276860D03*
X972820Y276860D03*
X947420Y276860D03*
X922020Y276860D03*
X896620Y276860D03*
X871220Y276860D03*
X845820Y276860D03*
D10*
X190500Y510540D03*
X12700Y434340D03*
D11*
X73850Y478790D03*
X73850Y466090D03*
X73850Y453390D03*
X73850Y440690D03*
X129350Y453390D03*
X129350Y440690D03*
X129350Y466090D03*
X129350Y478790D03*
D12*
X165100Y468240D03*
X165100Y451240D03*
D13*
X190500Y408940D03*
X165100Y408940D03*
X139700Y408940D03*
X114300Y408940D03*
X88900Y408940D03*
X63500Y408940D03*
X38100Y408940D03*
X12700Y408940D03*
D10*
X398780Y510540D03*
X220980Y434340D03*
D11*
X282130Y478790D03*
X282130Y466090D03*
X282130Y453390D03*
X282130Y440690D03*
X337630Y453390D03*
X337630Y440690D03*
X337630Y466090D03*
X337630Y478790D03*
D12*
X373380Y468240D03*
X373380Y451240D03*
D13*
X398780Y408940D03*
X373380Y408940D03*
X347980Y408940D03*
X322580Y408940D03*
X297180Y408940D03*
X271780Y408940D03*
X246380Y408940D03*
X220980Y408940D03*
D10*
X607060Y510540D03*
X429260Y434340D03*
D11*
X490410Y478790D03*
X490410Y466090D03*
X490410Y453390D03*
X490410Y440690D03*
X545910Y453390D03*
X545910Y440690D03*
X545910Y466090D03*
X545910Y478790D03*
D12*
X581660Y468240D03*
X581660Y451240D03*
D13*
X607060Y408940D03*
X581660Y408940D03*
X556260Y408940D03*
X530860Y408940D03*
X505460Y408940D03*
X480060Y408940D03*
X454660Y408940D03*
X429260Y408940D03*
D10*
X815340Y510540D03*
X637540Y434340D03*
D11*
X698690Y478790D03*
X698690Y466090D03*
X698690Y453390D03*
X698690Y440690D03*
X754190Y453390D03*
X754190Y440690D03*
X754190Y466090D03*
X754190Y478790D03*
D12*
X789940Y468240D03*
X789940Y451240D03*
D13*
X815340Y408940D03*
X789940Y408940D03*
X764540Y408940D03*
X739140Y408940D03*
X713740Y408940D03*
X688340Y408940D03*
X662940Y408940D03*
X637540Y408940D03*
D10*
X1023620Y510540D03*
X845820Y434340D03*
D11*
X906970Y478790D03*
X906970Y466090D03*
X906970Y453390D03*
X906970Y440690D03*
X962470Y453390D03*
X962470Y440690D03*
X962470Y466090D03*
X962470Y478790D03*
D12*
X998220Y468240D03*
X998220Y451240D03*
D13*
X1023620Y408940D03*
X998220Y408940D03*
X972820Y408940D03*
X947420Y408940D03*
X922020Y408940D03*
X896620Y408940D03*
X871220Y408940D03*
X845820Y408940D03*
D10*
X190500Y642620D03*
X12700Y566420D03*
D11*
X73850Y610870D03*
X73850Y598170D03*
X73850Y585470D03*
X73850Y572770D03*
X129350Y585470D03*
X129350Y572770D03*
X129350Y598170D03*
X129350Y610870D03*
D12*
X165100Y600320D03*
X165100Y583320D03*
D13*
X190500Y541020D03*
X165100Y541020D03*
X139700Y541020D03*
X114300Y541020D03*
X88900Y541020D03*
X63500Y541020D03*
X38100Y541020D03*
X12700Y541020D03*
D10*
X398780Y642620D03*
X220980Y566420D03*
D11*
X282130Y610870D03*
X282130Y598170D03*
X282130Y585470D03*
X282130Y572770D03*
X337630Y585470D03*
X337630Y572770D03*
X337630Y598170D03*
X337630Y610870D03*
D12*
X373380Y600320D03*
X373380Y583320D03*
D13*
X398780Y541020D03*
X373380Y541020D03*
X347980Y541020D03*
X322580Y541020D03*
X297180Y541020D03*
X271780Y541020D03*
X246380Y541020D03*
X220980Y541020D03*
D10*
X607060Y642620D03*
X429260Y566420D03*
D11*
X490410Y610870D03*
X490410Y598170D03*
X490410Y585470D03*
X490410Y572770D03*
X545910Y585470D03*
X545910Y572770D03*
X545910Y598170D03*
X545910Y610870D03*
D12*
X581660Y600320D03*
X581660Y583320D03*
D13*
X607060Y541020D03*
X581660Y541020D03*
X556260Y541020D03*
X530860Y541020D03*
X505460Y541020D03*
X480060Y541020D03*
X454660Y541020D03*
X429260Y541020D03*
D10*
X815340Y642620D03*
X637540Y566420D03*
D11*
X698690Y610870D03*
X698690Y598170D03*
X698690Y585470D03*
X698690Y572770D03*
X754190Y585470D03*
X754190Y572770D03*
X754190Y598170D03*
X754190Y610870D03*
D12*
X789940Y600320D03*
X789940Y583320D03*
D13*
X815340Y541020D03*
X789940Y541020D03*
X764540Y541020D03*
X739140Y541020D03*
X713740Y541020D03*
X688340Y541020D03*
X662940Y541020D03*
X637540Y541020D03*
D10*
X1023620Y642620D03*
X845820Y566420D03*
D11*
X906970Y610870D03*
X906970Y598170D03*
X906970Y585470D03*
X906970Y572770D03*
X962470Y585470D03*
X962470Y572770D03*
X962470Y598170D03*
X962470Y610870D03*
D12*
X998220Y600320D03*
X998220Y583320D03*
D13*
X1023620Y541020D03*
X998220Y541020D03*
X972820Y541020D03*
X947420Y541020D03*
X922020Y541020D03*
X896620Y541020D03*
X871220Y541020D03*
X845820Y541020D03*
D10*
X190500Y774700D03*
X12700Y698500D03*
D11*
X73850Y742950D03*
X73850Y730250D03*
X73850Y717550D03*
X73850Y704850D03*
X129350Y717550D03*
X129350Y704850D03*
X129350Y730250D03*
X129350Y742950D03*
D12*
X165100Y732400D03*
X165100Y715400D03*
D13*
X190500Y673100D03*
X165100Y673100D03*
X139700Y673100D03*
X114300Y673100D03*
X88900Y673100D03*
X63500Y673100D03*
X38100Y673100D03*
X12700Y673100D03*
D10*
X398780Y774700D03*
X220980Y698500D03*
D11*
X282130Y742950D03*
X282130Y730250D03*
X282130Y717550D03*
X282130Y704850D03*
X337630Y717550D03*
X337630Y704850D03*
X337630Y730250D03*
X337630Y742950D03*
D12*
X373380Y732400D03*
X373380Y715400D03*
D13*
X398780Y673100D03*
X373380Y673100D03*
X347980Y673100D03*
X322580Y673100D03*
X297180Y673100D03*
X271780Y673100D03*
X246380Y673100D03*
X220980Y673100D03*
D10*
X607060Y774700D03*
X429260Y698500D03*
D11*
X490410Y742950D03*
X490410Y730250D03*
X490410Y717550D03*
X490410Y704850D03*
X545910Y717550D03*
X545910Y704850D03*
X545910Y730250D03*
X545910Y742950D03*
D12*
X581660Y732400D03*
X581660Y715400D03*
D13*
X607060Y673100D03*
X581660Y673100D03*
X556260Y673100D03*
X530860Y673100D03*
X505460Y673100D03*
X480060Y673100D03*
X454660Y673100D03*
X429260Y673100D03*
D10*
X815340Y774700D03*
X637540Y698500D03*
D11*
X698690Y742950D03*
X698690Y730250D03*
X698690Y717550D03*
X698690Y704850D03*
X754190Y717550D03*
X754190Y704850D03*
X754190Y730250D03*
X754190Y742950D03*
D12*
X789940Y732400D03*
X789940Y715400D03*
D13*
X815340Y673100D03*
X789940Y673100D03*
X764540Y673100D03*
X739140Y673100D03*
X713740Y673100D03*
X688340Y673100D03*
X662940Y673100D03*
X637540Y673100D03*
D10*
X1023620Y774700D03*
X845820Y698500D03*
D11*
X906970Y742950D03*
X906970Y730250D03*
X906970Y717550D03*
X906970Y704850D03*
X962470Y717550D03*
X962470Y704850D03*
X962470Y730250D03*
X962470Y742950D03*
D12*
X998220Y732400D03*
X998220Y715400D03*
D13*
X1023620Y673100D03*
X998220Y673100D03*
X972820Y673100D03*
X947420Y673100D03*
X922020Y673100D03*
X896620Y673100D03*
X871220Y673100D03*
X845820Y673100D03*
D10*
X190500Y906780D03*
X12700Y830580D03*
D11*
X73850Y875030D03*
X73850Y862330D03*
X73850Y849630D03*
X73850Y836930D03*
X129350Y849630D03*
X129350Y836930D03*
X129350Y862330D03*
X129350Y875030D03*
D12*
X165100Y864480D03*
X165100Y847480D03*
D13*
X190500Y805180D03*
X165100Y805180D03*
X139700Y805180D03*
X114300Y805180D03*
X88900Y805180D03*
X63500Y805180D03*
X38100Y805180D03*
X12700Y805180D03*
D10*
X398780Y906780D03*
X220980Y830580D03*
D11*
X282130Y875030D03*
X282130Y862330D03*
X282130Y849630D03*
X282130Y836930D03*
X337630Y849630D03*
X337630Y836930D03*
X337630Y862330D03*
X337630Y875030D03*
D12*
X373380Y864480D03*
X373380Y847480D03*
D13*
X398780Y805180D03*
X373380Y805180D03*
X347980Y805180D03*
X322580Y805180D03*
X297180Y805180D03*
X271780Y805180D03*
X246380Y805180D03*
X220980Y805180D03*
D10*
X607060Y906780D03*
X429260Y830580D03*
D11*
X490410Y875030D03*
X490410Y862330D03*
X490410Y849630D03*
X490410Y836930D03*
X545910Y849630D03*
X545910Y836930D03*
X545910Y862330D03*
X545910Y875030D03*
D12*
X581660Y864480D03*
X581660Y847480D03*
D13*
X607060Y805180D03*
X581660Y805180D03*
X556260Y805180D03*
X530860Y805180D03*
X505460Y805180D03*
X480060Y805180D03*
X454660Y805180D03*
X429260Y805180D03*
D10*
X815340Y906780D03*
X637540Y830580D03*
D11*
X698690Y875030D03*
X698690Y862330D03*
X698690Y849630D03*
X698690Y836930D03*
X754190Y849630D03*
X754190Y836930D03*
X754190Y862330D03*
X754190Y875030D03*
D12*
X789940Y864480D03*
X789940Y847480D03*
D13*
X815340Y805180D03*
X789940Y805180D03*
X764540Y805180D03*
X739140Y805180D03*
X713740Y805180D03*
X688340Y805180D03*
X662940Y805180D03*
X637540Y805180D03*
D10*
X1023620Y906780D03*
X845820Y830580D03*
D11*
X906970Y875030D03*
X906970Y862330D03*
X906970Y849630D03*
X906970Y836930D03*
X962470Y849630D03*
X962470Y836930D03*
X962470Y862330D03*
X962470Y875030D03*
D12*
X998220Y864480D03*
X998220Y847480D03*
D13*
X1023620Y805180D03*
X998220Y805180D03*
X972820Y805180D03*
X947420Y805180D03*
X922020Y805180D03*
X896620Y805180D03*
X871220Y805180D03*
X845820Y805180D03*
D10*
X190500Y1038860D03*
X12700Y962660D03*
D11*
X73850Y1007110D03*
X73850Y994410D03*
X73850Y981710D03*
X73850Y969010D03*
X129350Y981710D03*
X129350Y969010D03*
X129350Y994410D03*
X129350Y1007110D03*
D12*
X165100Y996560D03*
X165100Y979560D03*
D13*
X190500Y937260D03*
X165100Y937260D03*
X139700Y937260D03*
X114300Y937260D03*
X88900Y937260D03*
X63500Y937260D03*
X38100Y937260D03*
X12700Y937260D03*
D10*
X398780Y1038860D03*
X220980Y962660D03*
D11*
X282130Y1007110D03*
X282130Y994410D03*
X282130Y981710D03*
X282130Y969010D03*
X337630Y981710D03*
X337630Y969010D03*
X337630Y994410D03*
X337630Y1007110D03*
D12*
X373380Y996560D03*
X373380Y979560D03*
D13*
X398780Y937260D03*
X373380Y937260D03*
X347980Y937260D03*
X322580Y937260D03*
X297180Y937260D03*
X271780Y937260D03*
X246380Y937260D03*
X220980Y937260D03*
D10*
X607060Y1038860D03*
X429260Y962660D03*
D11*
X490410Y1007110D03*
X490410Y994410D03*
X490410Y981710D03*
X490410Y969010D03*
X545910Y981710D03*
X545910Y969010D03*
X545910Y994410D03*
X545910Y1007110D03*
D12*
X581660Y996560D03*
X581660Y979560D03*
D13*
X607060Y937260D03*
X581660Y937260D03*
X556260Y937260D03*
X530860Y937260D03*
X505460Y937260D03*
X480060Y937260D03*
X454660Y937260D03*
X429260Y937260D03*
D10*
X815340Y1038860D03*
X637540Y962660D03*
D11*
X698690Y1007110D03*
X698690Y994410D03*
X698690Y981710D03*
X698690Y969010D03*
X754190Y981710D03*
X754190Y969010D03*
X754190Y994410D03*
X754190Y1007110D03*
D12*
X789940Y996560D03*
X789940Y979560D03*
D13*
X815340Y937260D03*
X789940Y937260D03*
X764540Y937260D03*
X739140Y937260D03*
X713740Y937260D03*
X688340Y937260D03*
X662940Y937260D03*
X637540Y937260D03*
D10*
X1023620Y1038860D03*
X845820Y962660D03*
D11*
X906970Y1007110D03*
X906970Y994410D03*
X906970Y981710D03*
X906970Y969010D03*
X962470Y981710D03*
X962470Y969010D03*
X962470Y994410D03*
X962470Y1007110D03*
D12*
X998220Y996560D03*
X998220Y979560D03*
D13*
X1023620Y937260D03*
X998220Y937260D03*
X972820Y937260D03*
X947420Y937260D03*
X922020Y937260D03*
X896620Y937260D03*
X871220Y937260D03*
X845820Y937260D03*
D14*
X68580Y1072515D03*
X967105Y1072515D03*
D15*
X59525Y-20955D02*
X59528Y-20733D01*
X59536Y-20511D01*
X59550Y-20289D01*
X59569Y-20067D01*
X59593Y-19847D01*
X59623Y-19626D01*
X59658Y-19407D01*
X59699Y-19188D01*
X59745Y-18971D01*
X59796Y-18755D01*
X59853Y-18540D01*
X59915Y-18326D01*
X59982Y-18115D01*
X60054Y-17904D01*
X60132Y-17696D01*
X60214Y-17490D01*
X60302Y-17286D01*
X60394Y-17083D01*
X60492Y-16884D01*
X60594Y-16687D01*
X60701Y-16492D01*
X60813Y-16300D01*
X60930Y-16111D01*
X61051Y-15924D01*
X61177Y-15741D01*
X61307Y-15561D01*
X61442Y-15384D01*
X61580Y-15211D01*
X61723Y-15041D01*
X61871Y-14874D01*
X62022Y-14711D01*
X62177Y-14552D01*
X62336Y-14397D01*
X62499Y-14246D01*
X62666Y-14098D01*
X62836Y-13955D01*
X63009Y-13817D01*
X63186Y-13682D01*
X63366Y-13552D01*
X63549Y-13426D01*
X63736Y-13305D01*
X63925Y-13188D01*
X64117Y-13076D01*
X64312Y-12969D01*
X64509Y-12867D01*
X64708Y-12769D01*
X64911Y-12677D01*
X65115Y-12589D01*
X65321Y-12507D01*
X65529Y-12429D01*
X65740Y-12357D01*
X65951Y-12290D01*
X66165Y-12228D01*
X66380Y-12171D01*
X66596Y-12120D01*
X66813Y-12074D01*
X67032Y-12033D01*
X67251Y-11998D01*
X67472Y-11968D01*
X67692Y-11944D01*
X67914Y-11925D01*
X68136Y-11911D01*
X68358Y-11903D01*
X68580Y-11900D01*
X68802Y-11903D01*
X69024Y-11911D01*
X69246Y-11925D01*
X69468Y-11944D01*
X69688Y-11968D01*
X69909Y-11998D01*
X70128Y-12033D01*
X70347Y-12074D01*
X70564Y-12120D01*
X70780Y-12171D01*
X70995Y-12228D01*
X71209Y-12290D01*
X71420Y-12357D01*
X71631Y-12429D01*
X71839Y-12507D01*
X72045Y-12589D01*
X72249Y-12677D01*
X72452Y-12769D01*
X72651Y-12867D01*
X72848Y-12969D01*
X73043Y-13076D01*
X73235Y-13188D01*
X73424Y-13305D01*
X73611Y-13426D01*
X73794Y-13552D01*
X73974Y-13682D01*
X74151Y-13817D01*
X74324Y-13955D01*
X74494Y-14098D01*
X74661Y-14246D01*
X74824Y-14397D01*
X74983Y-14552D01*
X75138Y-14711D01*
X75289Y-14874D01*
X75437Y-15041D01*
X75580Y-15211D01*
X75718Y-15384D01*
X75853Y-15561D01*
X75983Y-15741D01*
X76109Y-15924D01*
X76230Y-16111D01*
X76347Y-16300D01*
X76459Y-16492D01*
X76566Y-16687D01*
X76668Y-16884D01*
X76766Y-17083D01*
X76858Y-17286D01*
X76946Y-17490D01*
X77028Y-17696D01*
X77106Y-17904D01*
X77178Y-18115D01*
X77245Y-18326D01*
X77307Y-18540D01*
X77364Y-18755D01*
X77415Y-18971D01*
X77461Y-19188D01*
X77502Y-19407D01*
X77537Y-19626D01*
X77567Y-19847D01*
X77591Y-20067D01*
X77610Y-20289D01*
X77624Y-20511D01*
X77632Y-20733D01*
X77635Y-20955D01*
X77632Y-21177D01*
X77624Y-21399D01*
X77610Y-21621D01*
X77591Y-21843D01*
X77567Y-22063D01*
X77537Y-22284D01*
X77502Y-22503D01*
X77461Y-22722D01*
X77415Y-22939D01*
X77364Y-23155D01*
X77307Y-23370D01*
X77245Y-23584D01*
X77178Y-23795D01*
X77106Y-24006D01*
X77028Y-24214D01*
X76946Y-24420D01*
X76858Y-24624D01*
X76766Y-24827D01*
X76668Y-25026D01*
X76566Y-25223D01*
X76459Y-25418D01*
X76347Y-25610D01*
X76230Y-25799D01*
X76109Y-25986D01*
X75983Y-26169D01*
X75853Y-26349D01*
X75718Y-26526D01*
X75580Y-26699D01*
X75437Y-26869D01*
X75289Y-27036D01*
X75138Y-27199D01*
X74983Y-27358D01*
X74824Y-27513D01*
X74661Y-27664D01*
X74494Y-27812D01*
X74324Y-27955D01*
X74151Y-28093D01*
X73974Y-28228D01*
X73794Y-28358D01*
X73611Y-28484D01*
X73424Y-28605D01*
X73235Y-28722D01*
X73043Y-28834D01*
X72848Y-28941D01*
X72651Y-29043D01*
X72452Y-29141D01*
X72249Y-29233D01*
X72045Y-29321D01*
X71839Y-29403D01*
X71631Y-29481D01*
X71420Y-29553D01*
X71209Y-29620D01*
X70995Y-29682D01*
X70780Y-29739D01*
X70564Y-29790D01*
X70347Y-29836D01*
X70128Y-29877D01*
X69909Y-29912D01*
X69688Y-29942D01*
X69468Y-29966D01*
X69246Y-29985D01*
X69024Y-29999D01*
X68802Y-30007D01*
X68580Y-30010D01*
X68358Y-30007D01*
X68136Y-29999D01*
X67914Y-29985D01*
X67692Y-29966D01*
X67472Y-29942D01*
X67251Y-29912D01*
X67032Y-29877D01*
X66813Y-29836D01*
X66596Y-29790D01*
X66380Y-29739D01*
X66165Y-29682D01*
X65951Y-29620D01*
X65740Y-29553D01*
X65529Y-29481D01*
X65321Y-29403D01*
X65115Y-29321D01*
X64911Y-29233D01*
X64708Y-29141D01*
X64509Y-29043D01*
X64312Y-28941D01*
X64117Y-28834D01*
X63925Y-28722D01*
X63736Y-28605D01*
X63549Y-28484D01*
X63366Y-28358D01*
X63186Y-28228D01*
X63009Y-28093D01*
X62836Y-27955D01*
X62666Y-27812D01*
X62499Y-27664D01*
X62336Y-27513D01*
X62177Y-27358D01*
X62022Y-27199D01*
X61871Y-27036D01*
X61723Y-26869D01*
X61580Y-26699D01*
X61442Y-26526D01*
X61307Y-26349D01*
X61177Y-26169D01*
X61051Y-25986D01*
X60930Y-25799D01*
X60813Y-25610D01*
X60701Y-25418D01*
X60594Y-25223D01*
X60492Y-25026D01*
X60394Y-24827D01*
X60302Y-24624D01*
X60214Y-24420D01*
X60132Y-24214D01*
X60054Y-24006D01*
X59982Y-23795D01*
X59915Y-23584D01*
X59853Y-23370D01*
X59796Y-23155D01*
X59745Y-22939D01*
X59699Y-22722D01*
X59658Y-22503D01*
X59623Y-22284D01*
X59593Y-22063D01*
X59569Y-21843D01*
X59550Y-21621D01*
X59536Y-21399D01*
X59528Y-21177D01*
X59525Y-20955D01*
D16*
X68580Y-20955D03*
M02*
