M48
;GenerationSoftware,Autodesk,EAGLE,9.6.2*%
;CreationDate,2020-08-12T18:58:00Z*%
FMAT,2
ICI,OFF
METRIC,TZ,000.000
T2C0.508
T1C1.016
%
G90
M71
T1
X19050Y67310
X16510Y67310
X13970Y67310
X11430Y67310
X8890Y67310
X6350Y67310
X3810Y67310
X1270Y67310
X39878Y67310
X37338Y67310
X34798Y67310
X32258Y67310
X29718Y67310
X27178Y67310
X24638Y67310
X22098Y67310
X60706Y67310
X58166Y67310
X55626Y67310
X53086Y67310
X50546Y67310
X48006Y67310
X45466Y67310
X42926Y67310
X81534Y67310
X78994Y67310
X76454Y67310
X73914Y67310
X71374Y67310
X68834Y67310
X66294Y67310
X63754Y67310
X102362Y67310
X99822Y67310
X97282Y67310
X94742Y67310
X92202Y67310
X89662Y67310
X87122Y67310
X84582Y67310
X19050Y80518
X16510Y80518
X13970Y80518
X11430Y80518
X8890Y80518
X6350Y80518
X3810Y80518
X1270Y80518
X39878Y80518
X37338Y80518
X34798Y80518
X32258Y80518
X29718Y80518
X27178Y80518
X24638Y80518
X50546Y27686
X22098Y80518
X60706Y80518
X58166Y80518
X55626Y80518
X53086Y80518
X50546Y80518
X48006Y80518
X45466Y80518
X42926Y80518
X78994Y80518
X76454Y80518
X73914Y80518
X71374Y80518
X68834Y80518
X66294Y80518
X63754Y80518
X102362Y80518
X99822Y80518
X97282Y80518
X94742Y80518
X92202Y80518
X89662Y80518
X87122Y80518
X84582Y80518
X19050Y93726
X16510Y93726
X13970Y93726
X11430Y93726
X8890Y93726
X6350Y93726
X3810Y93726
X1270Y93726
X39878Y93726
X37338Y93726
X34798Y93726
X32258Y93726
X29718Y93726
X27178Y93726
X24638Y93726
X22098Y93726
X60706Y93726
X58166Y93726
X55626Y93726
X53086Y93726
X50546Y93726
X48006Y93726
X45466Y93726
X42926Y93726
X81534Y93726
X78994Y93726
X76454Y93726
X73914Y93726
X71374Y93726
X68834Y93726
X66294Y93726
X63754Y93726
X102362Y93726
X99822Y93726
X97282Y93726
X94742Y93726
X92202Y93726
X89662Y93726
X87122Y93726
X84582Y93726
X19050Y1270
X16510Y1270
X13970Y1270
X11430Y1270
X8890Y1270
X6350Y1270
X3810Y1270
X1270Y1270
X39878Y1270
X37338Y1270
X34798Y1270
X32258Y1270
X29718Y1270
X27178Y1270
X24638Y1270
X22098Y1270
X60706Y1270
X58166Y1270
X55626Y1270
X53086Y1270
X50546Y1270
X48006Y1270
X45466Y1270
X42926Y1270
X81534Y1270
X78994Y1270
X76454Y1270
X73914Y1270
X71374Y1270
X68834Y1270
X66294Y1270
X63754Y1270
X102362Y1270
X99822Y1270
X97282Y1270
X94742Y1270
X92202Y1270
X89662Y1270
X87122Y1270
X84582Y1270
X19050Y14478
X16510Y14478
X13970Y14478
X11430Y14478
X8890Y14478
X6350Y14478
X3810Y14478
X1270Y14478
X39878Y14478
X37338Y14478
X34798Y14478
X32258Y14478
X29718Y14478
X27178Y14478
X24638Y14478
X22098Y14478
X60706Y14478
X58166Y14478
X55626Y14478
X53086Y14478
X50546Y14478
X48006Y14478
X45466Y14478
X42926Y14478
X81534Y14478
X78994Y14478
X76454Y14478
X73914Y14478
X71374Y14478
X68834Y14478
X66294Y14478
X63754Y14478
X102362Y14478
X99822Y14478
X97282Y14478
X94742Y14478
X92202Y14478
X89662Y14478
X87122Y14478
X84582Y14478
X19050Y27686
X16510Y27686
X13970Y27686
X11430Y27686
X8890Y27686
X6350Y27686
X3810Y27686
X1270Y27686
X39878Y27686
X37338Y27686
X34798Y27686
X32258Y27686
X29718Y27686
X27178Y27686
X24638Y27686
X22098Y27686
X60706Y27686
X58166Y27686
X55626Y27686
X53086Y27686
X81534Y80518
X48006Y27686
X45466Y27686
X42926Y27686
X81534Y27686
X78994Y27686
X76454Y27686
X73914Y27686
X71374Y27686
X68834Y27686
X66294Y27686
X63754Y27686
X102362Y27686
X99822Y27686
X97282Y27686
X94742Y27686
X92202Y27686
X89662Y27686
X87122Y27686
X84582Y27686
X19050Y40894
X16510Y40894
X13970Y40894
X11430Y40894
X8890Y40894
X6350Y40894
X3810Y40894
X1270Y40894
X39878Y40894
X37338Y40894
X34798Y40894
X32258Y40894
X29718Y40894
X27178Y40894
X24638Y40894
X22098Y40894
X60706Y40894
X58166Y40894
X55626Y40894
X53086Y40894
X50546Y40894
X48006Y40894
X45466Y40894
X42926Y40894
X81534Y40894
X78994Y40894
X76454Y40894
X73914Y40894
X71374Y40894
X68834Y40894
X66294Y40894
X63754Y40894
X102362Y40894
X99822Y40894
X97282Y40894
X94742Y40894
X92202Y40894
X89662Y40894
X87122Y40894
X84582Y40894
X19050Y54102
X16510Y54102
X13970Y54102
X11430Y54102
X8890Y54102
X6350Y54102
X3810Y54102
X1270Y54102
X39878Y54102
X37338Y54102
X34798Y54102
X32258Y54102
X29718Y54102
X27178Y54102
X24638Y54102
X22098Y54102
X60706Y54102
X58166Y54102
X55626Y54102
X53086Y54102
X50546Y54102
X48006Y54102
X45466Y54102
X42926Y54102
X81534Y54102
X78994Y54102
X76454Y54102
X73914Y54102
X71374Y54102
X68834Y54102
X66294Y54102
X63754Y54102
X102362Y54102
X99822Y54102
X97282Y54102
X94742Y54102
X92202Y54102
X89662Y54102
X87122Y54102
X84582Y54102
T2
X7620Y2794
X3302Y8255
X14613Y6985
X28448Y2794
X24130Y8255
X35441Y6985
X49276Y2794
X44958Y8255
X56269Y6985
X70104Y2794
X65786Y8255
X77097Y6985
X90932Y2794
X86614Y8255
X97925Y6985
X7620Y16002
X3302Y21463
X14613Y20193
X28448Y16002
X24130Y21463
X35441Y20193
X49276Y16002
X44958Y21463
X56269Y20193
X70104Y16002
X65786Y21463
X77097Y20193
X90932Y16002
X86614Y21463
X97925Y20193
X7620Y29210
X3302Y34671
X14613Y33401
X28448Y29210
X24130Y34671
X35441Y33401
X49276Y29210
X44958Y34671
X56269Y33401
X70104Y29210
X65786Y34671
X77097Y33401
X90932Y29210
X86614Y34671
X97925Y33401
X7620Y42418
X3302Y47879
X14613Y46609
X28448Y42418
X24130Y47879
X35441Y46609
X49276Y42418
X44958Y47879
X56269Y46609
X70104Y42418
X77097Y46609
X90932Y42418
X86614Y47879
X97925Y46609
X7620Y55626
X3302Y61087
X14613Y59817
X28448Y55626
X24130Y61087
X35441Y59817
X49276Y55626
X44958Y61087
X56269Y59817
X70104Y55626
X65786Y61087
X77097Y59817
X90932Y55626
X86614Y61087
X97925Y59817
X7620Y68834
X3302Y74295
X14613Y73025
X28448Y68834
X24130Y74295
X35441Y73025
X49276Y68834
X44958Y74295
X56269Y73025
X70104Y68834
X65786Y74295
X77097Y73025
X90932Y68834
X86614Y74295
X97925Y73025
X7620Y82042
X3302Y87503
X14613Y86233
X28448Y82042
X24130Y87503
X35441Y86233
X49276Y82042
X44958Y87503
X56269Y86233
X70104Y82042
X65786Y87503
X77097Y86233
X90932Y82042
X86614Y87503
X97925Y86233
X7620Y95250
X3302Y100711
X14613Y99441
X28448Y95250
X24130Y100711
X35441Y99441
X49276Y95250
X44958Y100711
X56269Y99441
X70104Y95250
X65786Y100711
X77097Y99441
X90932Y95250
X86614Y100711
X97925Y99441
X65786Y47879
M30